<ttFont>
<head>
    <!-- Most of this table will be recalculated by the compiler -->
    <tableVersion value="1.0"/>
    <fontRevision value="2.004"/>
    <checkSumAdjustment value="0xd31b7af8"/>
    <magicNumber value="0x5f0f3cf5"/>
    <flags value="00000000 00000011"/>
    <unitsPerEm value="1000"/>
    <created value="Thu Oct  8 09:58:18 2009"/>
    <modified value="Thu Oct  8 09:58:18 2009"/>
    <xMin value="-458"/>
    <yMin value="-290"/>
    <xMax value="1386"/>
    <yMax value="1125"/>
    <macStyle value="00000000 00000010"/>
    <lowestRecPPEM value="3"/>
    <fontDirectionHint value="2"/>
    <indexToLocFormat value="0"/>
    <glyphDataFormat value="0"/>
  </head>
          <CharString index="0">
            687 89 callgsubr
            -11 -1 -1 -23 -9 vhcurveto
            -138 -58 -35 -65 -159 hhcurveto
            -122 -35 callgsubr
            3 10 1 6 hvcurveto
            69 275 rlineto
            87 hlineto
            68 7 -16 -27 -7 -1 -15 -8 -29 hvcurveto
            0 -2 -8 -3 70 callsubr
            6 11 3 2 18 4 vhcurveto
            55 220 -20 callsubr
            12 -12 0 -4 -13 0 -3 -21 -6 vhcurveto
            -71 -19 -19 -22 -81 hhcurveto
            -81 hlineto
            61 246 rlineto
            33 8 7 1 33 hhcurveto
            125 hlineto
            108 25 -30 -71 -27 -2 -13 -3 -24 hvcurveto
            -1 -5 -1 -9 -3 120 callsubr
            14 1 4 74 callgsubr
            26 3 -6 0 -21 hhcurveto
            -467 43 callsubr
            -18 -13 7 0 20 58 0 -8 -9 0 0 -8 -4 -15 hvcurveto
            -134 -536 -48 callsubr
            return
          </CharString>
          <CharString index="1">
            692 18 rmoveto
            13 -8 0 -16 -52 -3 8 26 -2 vhcurveto
            -43 626 rlineto
            22 -1 -1 3 -16 hhcurveto
            -16 -4 -7 -11 -6 hvcurveto
            -332 -585 -43 -76 -43 -4 -35 -2 rlinecurve
            -11 -1 -1 -18 0 vvcurveto
            -3 1 -9 11 vhcurveto
            25 29 3 26 31 32 -3 30 hhcurveto
            5 13 0 19 11 -8 0 -8 1 hvcurveto
            -6 1 -36 2 31 vvcurveto
            9 5 12 9 17 vhcurveto
            72 126 rlineto
            228 hlineto
            11 -166 rlineto
            -20 -24 -12 -43 -11 -12 -44 callsubr
            12 0 3 vhcurveto
            37 40 3 38 35 36 -3 34 26 callgsubr
            18 hvcurveto
            -176 242 rmoveto
            -209 hlineto
            186 327 rlineto
            return
          </CharString>
          <CharString index="2">
            561 -4 callgsubr
            72 288 76 callsubr
            5 3 vvcurveto
            11 -8 15 -20 -30 -7 -29 -8 -2 vhcurveto
            -73 -292 -5 -18 0 -2 -9 -13 rlinecurve
            -28 -19 -29 -30 -44 hhcurveto
            -45 -9 44 33 61 33 90 25 68 hvcurveto
            8 21 5 14 19 vvcurveto
            50 -33 31 -43 -93 -35 -148 -6 -10 136 callsubr
            1 2 14 4 vhcurveto
            31 8 27 95 58 hhcurveto
            11 11 -3 -26 -24 -10 -27 -14 -39 hvcurveto
            -26 -70 -26 -74 -52 vvcurveto
            -87 58 -29 54 53 34 30 30 24 vhcurveto
            -54 18 43 -6 19 -73 callsubr
            return
          </CharString>
          <CharString index="3">
            rmoveto
            19 3 -12 14 -19 hhcurveto
            -11 -8 -5 -6 -9 hvcurveto
            -165 -116 -11 -8 0 -2 -1 -3 rlinecurve
            -1 -8 7 -10 7 -1 3 -1 2 0 10 6 180 93 rcurveline
            10 5 12 7 3 16 rrcurveto
            endchar
          </CharString>
          <CharString index="4">
            rlineto
            32 8 8 8 63 hhcurveto
            21 9 0 18 11 -7 2 -7 hvcurveto
            -38 -41 -3 -39 -40 -41 3 -39 -80 callsubr
            return
          </CharString>
          <CharString index="5">
            338 19 rmoveto
            78 callgsubr
            -62 0 7 11 0 0 7 4 15 vhcurveto
            135 540 rlineto
            32 8 6 9 69 hhcurveto
            21 10 8 callsubr
            -4 hvcurveto
            -40 -42 -3 -41 -41 -43 3 -41 hhcurveto
            -7 -12 0 -18 -13 7 0 20 34 29 0 -17 -3 -2 -13 -1 -3 hvcurveto
            -136 -544 rlineto
            -33 -8 -9 -8 -67 hhcurveto
            -21 -9 0 -18 -11 7 -2 7 hvcurveto
            40 42 3 41 41 43 -3 40 hhcurveto
            return
          </CharString>
          <CharString index="6">
            29 -7 41 -26 32 vhcurveto
            -25 31 -12 3 -95 28 -19 5 -31 9 -5 2 rrcurveto
            -34 15 -17 32 41 vvcurveto
            82 77 89 85 94 28 -68 -74 -26 -1 -7 -4 -22 vhcurveto
            -1 -14 rlineto
            -10 10 0 5 11 3 1 17 4 vhcurveto
            52 207 rlineto
            1 4 1 6 4 vvcurveto
            0 -1 10 -10 -5 -1 -1 -11 -9 vhcurveto
            -45 -56 rlineto
            67 -39 -71 1 -20 hhcurveto
            -123 -109 -123 -115 -52 22 -53 58 -27 hvcurveto
            6 -3 22 -6 15 -4 49 -14 rcurveline
            52 -15 8 -3 17 -18 rrcurveto
            11 -14 11 -22 -36 vvcurveto
            -91 -78 -100 -89 -75 -75 36 104 23 5 27 3 11 vhcurveto
            1 6 rlineto
            11 -9 0 -6 -12 -2 27 callgsubr
            -52 -209 rlineto
            -2 -7 -1 -3 62 callsubr
            7 1 2 10 8 vhcurveto
            11 12 26 32 10 13 return
          </CharString>
          <CharString index="7">
            852 670 36 callgsubr
            -33 -3 -32 -32 -34 3 -31 hhcurveto
            -5 -13 0 -19 -11 9 -1 9 hvcurveto
            52 -2 8 -20 -21 vvcurveto
            -9 -2 -7 -2 -8 vhcurveto
            -110 -439 -187 520 rlineto
            16 -6 -1 1 -21 hhcurveto
            -125 hlineto
            -16 -11 -42 callsubr
            7 54 0 -8 0 0 -3 -3 -10 hvcurveto
            -132 -530 -14 -55 -37 -13 -46 -2 rlinecurve
            -8 -11 -1 -18 -9 6 -3 7 hvcurveto
            30 34 3 31 32 35 -3 31 26 callgsubr
            18 12 -7 1 -12 hvcurveto
            -57 2 -2 26 15 vvcurveto
            3 0 6 4 16 vhcurveto
            129 515 215 -597 rlineto
            -15 5 1 -2 14 hhcurveto
            11 4 1 19 5 hvcurveto
            140 564 16 64 56 3 29 1 rlinecurve
            3 12 1 17 hvcurveto
            return
          </CharString>
          <CharString index="8">
            775 473 rmoveto
            30 179 rlineto
            1 4 0 5 4 vvcurveto
            136 callgsubr
            vhcurveto
            -513 hlineto
            -20 -3 0 -18 -6 hvcurveto
            -59 -179 rlineto
            -5 -13 0 -4 0 42 callgsubr
            4 4 0 3 3 vhcurveto
            2 2 1 1 10 26 rrcurveto
            141 47 28 21 129 hhcurveto
            34 hlineto
            23 0 -4 -7 -7 -2 -9 -2 -6 hvcurveto
            -134 -537 rlineto
            -35 -9 -9 -10 -88 hhcurveto
            -16 15 callsubr
            12 0 5 hvcurveto
            51 53 3 51 52 54 -3 51 hhcurveto
            9 12 0 20 11 -10 0 -15 hvcurveto
            -15 hlineto
            -16 -31 2 -3 hhcurveto
            -28 3 -5 4 14 vvcurveto
            3 0 2 4 14 vhcurveto
            134 538 7 30 8 2 8 1 rlinecurve
            2 8 27 0 17 hhcurveto
            104 23 -14 -62 -12 0 -19 -10 -59 hvcurveto
            -2 -11 130 callgsubr
            -13 136 callsubr
            2 3 18 3 vhcurveto
            return
          </CharString>
          <CharString index="9">
            874 672 rmoveto
            0 0 11 -12 vhcurveto
            -24 -27 -3 -25 -31 -32 3 -30 hhcurveto
            -6 -12 0 -19 -11 9 -1 6 hvcurveto
            17 -1 14 -6 -16 vvcurveto
            -17 -23 -27 -2 -3 vhcurveto
            -219 -267 -95 300 rlineto
            -4 10 0 3 0 vvcurveto
            23 43 1 13 11 11 8 callsubr
            -4 vhcurveto
            -38 -40 -3 -39 -34 -37 124 callgsubr
            -13 34 callgsubr
            47 10 -7 -23 7 hvcurveto
            106 -334 rlineto
            2 -5 2 -6 -4 vvcurveto
            -5 -41 -159 -5 -19 vhcurveto
            -13 -55 -1 -3 -74 -1 rrcurveto
            -14 -6 callgsubr
            42 -3 38 hhcurveto
            6 63 callgsubr
            -19 -31 -27 0 17 8 12 48 7 29 hvcurveto
            31 123 5 17 0 2 7 8 rlinecurve
            236 287 47 57 38 21 48 4 rlinecurve
            9 1 10 0 19 vvcurveto
            return
          </CharString>
          <CharString index="10">
            -89 callsubr
            hintmask 00100100
            -86 callgsubr
          </CharString>
          <CharString index="11">
            -4 -3 -57 -54 -30 hhcurveto
            -12 -8 8 15 -9 hvcurveto
            25 -15 -12 18 -27 hhcurveto
            -24 -29 -20 -16 -21 hvcurveto
            0 -53 -43 -11 vvcurveto
            return
          </CharString>
          <CharString index="12">
            rmoveto
            -93 callsubr
            return
          </CharString>
          <CharString index="13">
            19 -13 20 -27 -29 -29 -28 -29 -20 14 -19 27 28 29 28 29 vhcurveto
            return
          </CharString>
          <CharString index="14">
            21 -15 22 -30 -32 -32 -31 -32 -22 16 -21 29 32 32 31 32 vhcurveto
            return
          </CharString>
          <CharString index="15">
            -2 callsubr
            9 -6 3 -8 -3 46 callsubr
            vhcurveto
            -99 -8 rlineto
            -12 -1 -11 -1 -19 vvcurveto
            -11 10 0 14 48 2 -7 -10 -3 -3 -14 0 vhcurveto
            return
          </CharString>
          <CharString index="16">
            25 -11 19 -24 -30 -19 -26 -22 -24 18 -7 15 15 12 8 3 4 vhcurveto
            -11 -58 -38 -48 -35 -30 rrcurveto
            -9 -9 -1 -1 -3 vvcurveto
            -2 3 -5 5 13 93 91 89 vhcurveto
            endchar
          </CharString>
          <CharString index="17">
            415 -3 rmoveto
            98 394 rlineto
            1 6 2 5 3 vvcurveto
            11 -8 15 -20 -30 -7 -29 -8 -2 vhcurveto
            -73 -294 rlineto
            -29 -7 -40 -60 -59 hhcurveto
            -45 -9 44 33 61 33 90 25 68 hvcurveto
            8 21 5 14 19 vvcurveto
            50 -33 31 -43 -93 -35 -148 -6 -10 136 callsubr
            1 2 14 4 vhcurveto
            31 8 27 95 58 hhcurveto
            11 11 -3 -26 -24 -10 -27 -14 -39 hvcurveto
            -26 -70 -26 -74 -52 vvcurveto
            -87 58 -29 54 46 31 24 13 13 vhcurveto
            -165 -38 -74 -44 -50 hhcurveto
            -48 -14 38 5 0 1 2 7 1 hvcurveto
            31 5 12 27 16 vvcurveto
            21 -16 11 -18 vhcurveto
            return
          </CharString>
          <CharString index="18">
            -65 callgsubr
            hintmask 00100100
            -96 callsubr
            hintmask 00001000
            -61 callsubr
            return
          </CharString>
          <CharString index="19">
            489 379 rmoveto
            52 -65 11 -33 -69 -36 -50 -22 -16 vhcurveto
            53 -11 -39 19 -33 -91 callgsubr
            30 7 29 8 2 vhcurveto
            65 262 rlineto
            3 1 45 129 86 hhcurveto
            5 28 0 -14 20 hvcurveto
            -35 -11 -3 -32 -5 vvcurveto
            -13 9 -19 26 18 31 14 39 vhcurveto
            return
          </CharString>
          <CharString index="20">
            583 472 rmoveto
            1 6 1 6 5 vvcurveto
            26 -16 21 -26 -37 -27 121 callgsubr
            27 vhcurveto
            3 3 1 3 hhcurveto
            -17 -20 -23 -14 -23 -2 -26 29 -37 17 -43 1 -51 -1 -55 -25 -45 -40 -47 -44 -32 -56 -15 -58 rrcurveto
            -5 -22 -3 -22 -21 vvcurveto
            -35 8 -33 16 -28 vhcurveto
            -42 25 44 -26 52 hhcurveto
            52 55 25 41 44 hvcurveto
            47 43 33 56 15 59 rrcurveto
            5 22 3 22 21 vvcurveto
            33 -7 32 -15 27 vhcurveto
            45 11 40 42 12 49 rrcurveto
            -161 -254 rmoveto
            -15 -63 -17 -46 -33 -39 rrcurveto
            -36 -29 -38 -23 -35 hhcurveto
            -34 -25 22 34 -11 hvcurveto
            -4 14 -2 16 17 vvcurveto
            29 5 30 10 40 vhcurveto
            16 63 17 45 32 40 rrcurveto
            35 30 38 23 35 hhcurveto
            33 25 -22 -33 11 hvcurveto
            5 -15 2 -15 -17 vvcurveto
            -29 -6 -31 -10 -39 vhcurveto
            return
          </CharString>
          <CharString index="21">
            280 143 rmoveto
            10 -8 0 -7 -5 -6 123 callgsubr
            -7 -25 rlineto
            -70 -17 -19 -42 -28 -78 callgsubr
            -125 -500 -34 callsubr
            return
          </CharString>
          <CharString index="22">
            -85 42 rmoveto
            -88 -36 -133 -53 -91 vhcurveto
            -111 -65 -89 -59 -75 hhcurveto
            -91 -56 82 119 46 14 140 70 122 hvcurveto
            94 53 91 73 87 hhcurveto
            78 72 -60 -134 hvcurveto
            return
          </CharString>
          <CharString index="23">
            -103 callgsubr
            endchar
          </CharString>
          <CharString index="24">
            -42 callsubr
            31 27 0 -17 -3 0 -2 -4 -14 hvcurveto
            return
          </CharString>
          <CharString index="25">
            697 376 rmoveto
            35 -12 31 -29 -23 -25 -23 -23 -13 7 -7 6 -7 vhcurveto
            24 -26 3 -32 -21 vvcurveto
            -40 -32 -105 -17 -41 vhcurveto
            -52 -22 -32 -41 -46 hhcurveto
            -50 -16 41 42 9 1 24 11 44 hvcurveto
            42 168 rlineto
            6 22 10 40 4 vvcurveto
            11 -8 15 -20 -29 -7 -27 -8 -2 vhcurveto
            -57 -228 rlineto
            -7 -28 -1 -21 -14 vvcurveto
            -11 -31 -83 -53 -70 0 74 13 54 26 74 31 82 vhcurveto
            7 19 5 15 19 vvcurveto
            50 -33 31 -43 -93 -35 -148 -6 -10 136 callsubr
            1 2 14 4 vhcurveto
            31 8 27 95 58 hhcurveto
            11 11 -3 -26 -24 -10 -27 -14 -39 hvcurveto
            -50 -136 0 -26 -27 vvcurveto
            -34 8 -34 26 -24 vhcurveto
            -28 32 45 -3 17 hhcurveto
            32 35 13 51 30 hvcurveto
            -37 15 40 -27 59 hhcurveto
            60 42 41 71 30 hvcurveto
            30 68 39 154 53 vvcurveto
            return
          </CharString>
          <CharString index="26">
            356 143 rmoveto
            10 -8 0 -7 -12 0 -1 -18 -8 vhcurveto
            -48 -18 -40 -75 -57 hhcurveto
            -27 0 25 16 69 callgsubr
            74 297 rlineto
            85 hlineto
            17 11 75 callgsubr
            -80 hlineto
            37 148 rlineto
            4 14 0 2 5 vvcurveto
            21 -17 5 -10 -25 -10 -21 -15 -4 vhcurveto
            -39 -159 rlineto
            -85 15 callsubr
            9 0 16 hvcurveto
            80 75 callsubr
            -1 -4 -4 -16 -14 vvcurveto
            return
          </CharString>
          <CharString index="27">
            hhcurveto
            -6 -13 -83 callsubr
            return
          </CharString>
          <CharString index="28">
            723 92 rmoveto
            7 -2 6 -13 -13 -1 -5 -12 -3 vhcurveto
            -56 -17 -30 -32 -31 hhcurveto
            -30 -3 27 32 26 3 24 3 26 hvcurveto
            3 23 5 44 21 vvcurveto
            56 -35 42 -51 128 callsubr
            36 68 87 73 vvcurveto
            79 -76 69 -125 vhcurveto
            -264 -14 callsubr
            return
          </CharString>
          <CharString index="29">
            rlineto
            -69 callgsubr
            41 3 39 40 41 -3 39 1 callgsubr
            return
          </CharString>
          <CharString index="30">
            rmoveto
            3 1 102 callgsubr
            -107 116 rlineto
            6 -6 -6 5 -10 hhcurveto
            -19 -20 -14 -19 -6 hvcurveto
            -5 -16 9 -7 7 -5 134 -93 rcurveline
            7 -6 2 0 3 1 8 1 12 10 3 8 rrcurveto
            endchar
          </CharString>
          <CharString index="31">
            605 255 142 callgsubr
            -6 -11 -1 -1 -24 -8 vhcurveto
            -115 -37 -34 -93 -174 hhcurveto
            -147 hlineto
            515 614 rlineto
            11 13 1 8 5 vvcurveto
            9 -6 0 -17 vhcurveto
            -387 hlineto
            -22 -1 -1 -19 -6 hvcurveto
            -54 -181 rlineto
            -1 -2 -2 -11 0 42 callgsubr
            12 1 4 14 5 vhcurveto
            91 29 40 85 158 hhcurveto
            140 hlineto
            -517 -618 rlineto
            -5 -6 -6 -7 -12 vvcurveto
            -9 7 0 16 vhcurveto
            400 hlineto
            22 1 0 18 6 hvcurveto
            68 221 rlineto
            1 2 4 14 0 vvcurveto
            return
          </CharString>
          <CharString index="32">
            -69 callgsubr
            40 3 38 39 -21 callgsubr
            4 25 callgsubr
            65 263 rlineto
            108 hlineto
            42 52 -16 -72 -14 -3 -9 -14 -56 hvcurveto
            -11 -47 -4 -14 -19 vvcurveto
            return
          </CharString>
          <CharString index="33">
            -37 callsubr
            -27 -8 -27 -98 -58 hhcurveto
            -21 -1 15 14 25 10 26 8 24 hvcurveto
            20 53 41 112 58 vvcurveto
            return
          </CharString>
          <CharString index="34">
            hhcurveto
            37 21 25 31 15 hvcurveto
            18 38 12 60 0 vvcurveto
            return
          </CharString>
          <CharString index="35">
            393 157 rmoveto
            87 -78 18 -41 9 vhcurveto
            -28 6 -36 8 43 vvcurveto
            24 21 68 80 27 37 -10 -39 11 vhcurveto
            -32 -4 -8 -27 -10 vvcurveto
            -11 6 -17 24 17 26 12 43 46 -41 39 -66 -117 -41 -96 -52 -77 65 -14 28 -6 vhcurveto
            44 -10 45 -10 -54 vvcurveto
            -32 -27 -80 -103 -22 -58 5 51 -16 vhcurveto
            51 5 0 44 0 vvcurveto
            19 -13 13 -21 -23 -28 -17 -45 return
          </CharString>
          <CharString index="36">
            21 -5 42 -43 -40 -25 -35 -29 -32 23 -10 21 17 18 9 10 10 vhcurveto
            -11 -60 -38 -71 -66 -54 rrcurveto
            -13 -12 -1 -1 -4 vvcurveto
            -3 3 -7 7 19 124 119 117 vhcurveto
            return
          </CharString>
          <CharString index="37">
            rmoveto
            2 3 1 2 -5 10 -71 142 rcurveline
            9 -5 -4 8 -14 hhcurveto
            -12 -21 -10 -18 -9 hvcurveto
            -8 -17 6 -9 6 -6 100 -123 rcurveline
            -8 5 2 0 3 hhcurveto
            7 13 9 8 4 hvcurveto
            endchar
          </CharString>
          <CharString index="38">
            rmoveto
            79 -44 76 -87 -46 -41 -17 -29 -37 vhcurveto
            46 184 rlineto
            3 11 2 1 0 vvcurveto
            0 3 0 10 -3 vhcurveto
            -7 19 23 -2 20 hhcurveto
            110 88 83 15 7 -6 2 -3 -3 -4 -1 -2 -5 hvcurveto
            -20 -45 -45 -8 -39 hhcurveto
            -44 -39 10 16 -29 hvcurveto
            3 -6 -4 2 -4 hhcurveto
            -7 -2 -6 -11 -3 hvcurveto
            -76 -304 rlineto
            -1 -3 -1 -10 0 vvcurveto
            -10 7 -2 6 7 2 3 7 7 vhcurveto
            60 51 55 9 29 hhcurveto
            41 20 -35 -54 -55 -29 -105 -21 -40 hvcurveto
            -81 -44 -59 -22 -37 hhcurveto
            -36 -61 20 97 -1 hvcurveto
            -1 3 2 0 5 hhcurveto
            34 19 29 23 20 -13 14 -23 -52 -6 -59 -32 -73 43 -66 86 128 134 135 152 hvcurveto
            endchar
          </CharString>
          <CharString index="39">
            rmoveto
            10 -8 0 -6 -5 -4 0 -3 -4 vhcurveto
            -15 -20 rlineto
            -54 -37 -37 -40 -41 hhcurveto
            -22 -3 15 34 -3 hvcurveto
            38 -4 -4 30 -41 hhcurveto
            -27 -49 -8 -55 -58 hvcurveto
            23 50 0 3 0 vvcurveto
            129 callsubr
            -11 -1 -1 -14 -7 vhcurveto
            -96 -204 rlineto
            -6 -12 0 -3 0 vvcurveto
            -10 8 0 7 11 1 1 7 4 vhcurveto
            145 75 92 21 36 hhcurveto
            19 5 -7 -28 17 hvcurveto
            -29 16 16 -5 17 hhcurveto
            16 15 4 7 14 hvcurveto
            -101 -166 -1 -2 -33 -66 rrcurveto
            -91 -182 -19 -107 -4 vvcurveto
            -22 18 -11 17 39 9 32 34 8 vhcurveto
            31 120 42 127 58 124 52 112 46 69 28 43 rrcurveto
            9 13 0 4 0 vvcurveto
            endchar
          </CharString>
          <CharString index="40">
            11 10 -10 14 -12 -8 -147 -99 rcurveline
            -99 99 -8 8 -17 -14 7 -10 rlinecurve
            94 -144 3 -4 7 0 5 4 rlinecurve
            endchar
          </CharString>
          <CharString index="41">
            484 143 rmoveto
            -65 callsubr
            -51 -13 -19 -68 -44 hhcurveto
            -27 -2 23 20 23 7 28 1 5 hvcurveto
            5 21 0 1 13 vvcurveto
            68 -70 27 -63 9 vhcurveto
            23 14 21 21 27 31 rrcurveto
            59 52 39 46 50 hhcurveto
            19 8 -12 0 hvcurveto
            -42 -7 -5 -35 -8 59 callgsubr
            26 -18 34 -45 -53 -43 -42 -40 -34 vhcurveto
            -57 -66 -16 -16 -35 -17 102 408 rcurveline
            -10 callgsubr
            30 7 28 9 2 vhcurveto
            51 203 rlineto
            37 -5 64 -21 -58 vvcurveto
            -7 0 -4 -3 -14 vhcurveto
            -4 -17 0 -7 -10 vvcurveto
            -72 47 -25 37 44 22 33 19 11 vhcurveto
            22 38 14 61 3 vvcurveto
            return
          </CharString>
          <CharString index="42">
            10 -8 0 -7 -12 -1 -1 -22 -6 vhcurveto
            return
          </CharString>
          <CharString index="43">
            208 rmoveto
            32 -9 32 -20 27 vhcurveto
            -6 7 -39 34 -23 20 rrcurveto
            99 48 58 66 74 vvcurveto
            76 -64 42 -70 -110 -100 -103 -100 -36 14 -28 10 -13 vhcurveto
            6 -8 1 -1 45 -40 rrcurveto
            -170 -79 -19 -98 -45 vvcurveto
            -84 70 -53 85 126 116 115 115 vhcurveto
            15 342 rmoveto
            -105 -125 -68 -6 vhcurveto
            0 -2 0 -7 7 vhcurveto
            -76 64 rlineto
            -18 15 -10 22 24 vvcurveto
            66 75 66 77 53 39 -33 -58 vhcurveto
            -74 -384 rmoveto
            -80 -88 -80 -92 -64 -44 43 64 73 59 88 99 47 vhcurveto
            82 -69 rlineto
            25 -22 23 -19 -45 vvcurveto
            endchar
          </CharString>
          <CharString index="44">
            hlineto
            20 1 1 15 7 hvcurveto
            89 219 rlineto
            1 2 3 10 0 vvcurveto
            return
          </CharString>
          <CharString index="45">
            270 rmoveto
            50 -27 106 -113 -61 -44 -43 -44 -30 vhcurveto
            23 90 24 66 46 59 rrcurveto
            39 31 53 48 61 hhcurveto
            22 33 -4 -36 10 hvcurveto
            -48 -5 -41 -7 -14 8 -18 26 34 18 28 38 50 -37 29 -60 -82 -90 -57 -102 -72 hvcurveto
            -85 -120 -22 -159 -70 vvcurveto
            -27 0 -153 134 126 127 142 150 vhcurveto
            -127 -174 rmoveto
            -47 -26 -42 -43 -56 hhcurveto
            -59 -12 62 29 79 46 228 133 14 22 0 -24 17 hvcurveto
            9 -12 9 -20 -31 vvcurveto
            -46 -35 -136 -20 -39 vhcurveto
            endchar
          </CharString>
          <CharString index="46">
            -6 4 -4 7 5 3 3 4 5 vhcurveto
            return
          </CharString>
          <CharString index="47">
            775 438 rmoveto
            143 -81 102 -129 vhcurveto
            -312 -1 callgsubr
            307 hlineto
            189 191 213 225 hvcurveto
            -83 38 rmoveto
            -59 -29 -187 -85 -100 vhcurveto
            -57 -49 -71 -42 -80 13 callgsubr
            138 553 rlineto
            35 9 7 1 33 hhcurveto
            97 hlineto
            81 79 -45 -131 hvcurveto
            return
          </CharString>
          <CharString index="48">
            699 104 rmoveto
            5 -8 11 -8 -5 -2 -3 -7 -6 vhcurveto
            -81 -57 -65 -18 -35 hhcurveto
            -64 -19 71 51 15 3 35 11 48 hvcurveto
            52 hlineto
            41 63 5 17 42 hvcurveto
            74 31 3 60 13 vvcurveto
            49 -41 36 -59 -60 -51 -33 -19 -24 vhcurveto
            2 8 4 11 10 vvcurveto
            18 -15 5 -9 -5 -21 -2 -25 -6 vhcurveto
            -283 -99 -59 -157 -59 vvcurveto
            -69 64 -42 71 48 35 30 35 32 vhcurveto
            1 -1 rlineto
            -9 -35 0 -3 -3 vvcurveto
            -19 16 -4 8 26 3 13 58 14 vhcurveto
            -26 13 34 -45 64 hhcurveto
            110 77 101 14 hvcurveto
            -18 255 rmoveto
            -95 -128 -11 -73 vhcurveto
            -30 hlineto
            159 48 102 8 18 hhcurveto
            41 22 -28 -33 hvcurveto
            -315 -214 rmoveto
            -31 -8 -62 -103 -66 hhcurveto
            -24 -41 12 50 89 81 149 181 78 hvcurveto
            return
          </CharString>
          <CharString index="49">
            13 callsubr
            98 -36 57 -20 24 vhcurveto
            80 92 rlineto
            7 9 3 3 4 vvcurveto
            8 -8 4 -4 -7 -5 -5 -4 -3 vhcurveto
            -79 -92 rlineto
            22 -21 -53 41 -82 hhcurveto
            -205 -207 -237 -232 -58 15 -67 42 -52 hvcurveto
            -68 -79 rlineto
            -8 -9 -13 -15 -4 vvcurveto
            -8 8 -4 4 4 1 1 19 18 vhcurveto
            6 7 20 21 44 52 rrcurveto
            -52 55 59 -10 43 hhcurveto
            200 210 225 241 hvcurveto
            -102 165 rmoveto
            -448 -512 rlineto
            -15 40 -2 40 17 vvcurveto
            61 27 174 82 118 vhcurveto
            85 60 87 51 77 hhcurveto
            34 60 -10 -64 38 hvcurveto
            30 -122 rmoveto
            -56 -25 -180 -85 -119 vhcurveto
            -81 -58 -86 -51 -78 hhcurveto
            -59 -48 29 44 -26 hvcurveto
            448 512 rlineto
            17 -44 0 -47 -7 vvcurveto
            return
          </CharString>
          <CharString index="50">
            622 671 rmoveto
            9 -6 3 -8 vhcurveto
            -33 -36 -3 -34 -45 -47 3 -44 hhcurveto
            -9 -12 -44 callsubr
            9 0 16 hvcurveto
            12 hlineto
            17 11 0 -2 18 hvcurveto
            22 -3 8 -1 -15 vvcurveto
            -4 0 -2 -4 -14 vhcurveto
            -116 -466 rlineto
            -75 -19 -57 -70 -55 hhcurveto
            -41 -35 25 41 -8 hvcurveto
            -1 2 2 0 7 hhcurveto
            38 22 34 25 26 -20 13 -21 -3 -59 0 -77 -68 54 -40 64 94 92 75 91 22 hvcurveto
            117 472 rlineto
            28 7 7 8 45 hhcurveto
            15 11 0 19 hvcurveto
            return
          </CharString>
          <CharString index="51">
            rlineto
            -60 callgsubr
            return
          </CharString>
          <CharString index="52">
            5 12 -14 5 -7 -10 rrcurveto
            -36 -24 -33 -20 -32 hhcurveto
            -36 -46 23 46 10 hvcurveto
            return
          </CharString>
          <CharString index="53">
            52 callgsubr
            38 return
          </CharString>
          <CharString index="54">
            32 -23 10 -21 -17 -18 -9 -10 -10 vhcurveto
            11 60 38 71 66 54 rrcurveto
            13 12 1 1 4 vvcurveto
            3 -3 7 -7 -19 -124 -119 -117 -21 5 -42 43 40 25 35 29 vhcurveto
            return
          </CharString>
          <CharString index="55">
            106 36 -96 -87 hvcurveto
            -26 -5 -32 -3 vvcurveto
            -10 10 0 5 11 3 1 17 4 vhcurveto
            return
          </CharString>
          <CharString index="56">
            rmoveto
            0 -1 -80 -71 -21 -23 6 29 0 0 81 72 30 14 -11 -25 vhcurveto
            38 -1 rmoveto
            31 -23 36 -52 -57 return
          </CharString>
          <CharString index="57">
            hlineto
            -16 -11 -83 callsubr
            return
          </CharString>
          <CharString index="58">
            95 callsubr
            hstem
            51 774 vstem
            700 18 rmoveto
            13 -8 0 -16 -54 -4 11 19 -7 vhcurveto
            -119 322 163 187 12 10 24 26 37 41 76 5 rlinecurve
            11 1 10 0 18 vvcurveto
            9 -7 3 -6 vhcurveto
            -28 -30 -3 -29 -34 -37 124 callgsubr
            -12 0 -19 -11 9 -1 3 hvcurveto
            7 -1 29 -2 -27 vvcurveto
            -8 -3 -11 -18 -21 vhcurveto
            -148 -170 -73 199 -4 12 rlineto
            7 20 19 37 3 vhcurveto
            5 11 1 17 11 -7 2 -7 hvcurveto
            -38 -40 -3 -39 -34 -35 124 callgsubr
            -13 34 callgsubr
            54 4 -10 -22 8 hvcurveto
            103 -279 -208 -237 -59 -68 -56 -3 -33 -2 rlinecurve
            -11 -1 -1 -18 0 vvcurveto
            -4 2 -8 10 vhcurveto
            28 31 3 29 34 36 -3 33 hhcurveto
            5 14 0 20 10 -13 1 0 hvcurveto
            -30 3 -5 17 10 vvcurveto
            4 1 10 7 10 vhcurveto
            2 2 1 2 1 2 1 2 rcurveline
            192 219 88 -239 rlineto
            1 -4 2 -5 -3 vvcurveto
            -10 -21 -18 -36 -2 vhcurveto
            -7 -1 -9 -3 -15 vvcurveto
            -12 12 0 3 vhcurveto
            38 40 3 38 34 36 -3 33 26 callgsubr
            18 hvcurveto
            endchar
          </CharString>
          <CharString index="59">
            -56 callsubr
            9 0 16 hvcurveto
            return
          </CharString>
          <CharString index="60">
            13 -7 0 -20 -58 0 8 9 return
          </CharString>
          <CharString index="61">
            22 409 22 return
          </CharString>
          <CharString index="62">
            -132 -205 22 17 82 73 22 37 62 290 31 252 22 hstem
            -20 84 183 64 83 49 72 63 vstem
            523 165 rmoveto
            47 -28 35 -17 22 vhcurveto
            -14 16 -21 26 24 vvcurveto
            22 20 24 27 32 vhcurveto
            20 25 68 82 71 vvcurveto
            69 -56 45 -81 -146 -35 -84 -73 -18 vhcurveto
            -23 -117 rlineto
            -66 hlineto
            -16 -11 0 -20 -11 10 0 15 hvcurveto
            62 hlineto
            -73 -375 rlineto
            -129 -25 -23 -79 -47 hhcurveto
            -21 -9 18 0 hvcurveto
            45 5 4 36 8 vvcurveto
            22 -18 10 -16 -19 -31 -13 -44 -45 34 -19 31 98 47 158 84 16 vhcurveto
            97 497 rlineto
            83 16 16 66 106 hhcurveto
            50 24 -35 -48 -20 -19 -113 -42 -43 hvcurveto
            -39 -38 -21 -24 -58 vvcurveto
            -28 6 -27 19 -25 vhcurveto
            8 -10 18 -22 -30 vvcurveto
            -18 -28 -133 -73 -8 -42 1 37 -14 vhcurveto
            29 6 2 29 0 vvcurveto
            14 -11 12 -16 vhcurveto
            0 -37 0 -47 vvcurveto
            -52 53 -22 45 97 81 101 75 vhcurveto
            endchar
          </CharString>
          <CharString index="63">
            0 -19 -12 return
          </CharString>
          <CharString index="64">
            10 callgsubr
            69 79 145 -20 hstem
            110 68 vstem
            427 559 rmoveto
            24 -18 7 -15 -15 -12 -8 -3 -4 vhcurveto
            11 58 38 48 35 30 rrcurveto
            9 9 1 1 3 vvcurveto
            2 -3 5 -5 -13 -93 -91 -89 -25 11 -19 24 30 19 26 22 vhcurveto
            -53 -622 -22 callgsubr
          </CharString>
          <CharString index="65">
            -27 callsubr
            19 return
          </CharString>
          <CharString index="66">
            35 9 6 10 81 hhcurveto
            10 hlineto
            17 82 callsubr
            -4 hvcurveto
            -45 -47 -3 -46 return
          </CharString>
          <CharString index="67">
            -78 callsubr
            hvcurveto
            return
          </CharString>
          <CharString index="68">
            -9 callsubr
            183 hmoveto
            -53 callsubr
            endchar
          </CharString>
          <CharString index="69">
            -46 -10 37 -44 64 hhcurveto
            50 61 39 57 28 hvcurveto
            return
          </CharString>
          <CharString index="70">
            143 rmoveto
            10 -8 0 -7 -13 0 27 callgsubr
            return
          </CharString>
          <CharString index="71">
            -17 -9 0 -21 -10 8 0 17 hvcurveto
            28 hlineto
            19 58 -2 -81 -18 -9 -99 -52 -60 hvcurveto
            -34 -28 -46 -25 -45 hhcurveto
            -50 -50 30 74 -2 hvcurveto
            43 -4 13 37 15 vvcurveto
            16 -11 16 -23 -51 -2 -60 -18 -68 48 -60 85 126 126 105 120 vhcurveto
            endchar
          </CharString>
          <CharString index="72">
            14 rmoveto
            5 -6 12 -9 vhcurveto
            0 -4 0 -10 -4 vhcurveto
            -7 -18 -25 -4 -17 hhcurveto
            -7 -4 0 1 -5 hvcurveto
            44 178 rlineto
            4 15 0 2 3 vvcurveto
            26 -24 1 -3 -30 -6 -26 -17 -4 vhcurveto
            -42 -166 -73 26 41 -13 -29 10 rlinecurve
            11 -37 -17 0 -22 hhcurveto
            -12 -2 0 -1 -13 hvcurveto
            270 250 58 324 0 vvcurveto
            21 -17 5 -10 -29 -6 -23 -27 -7 vhcurveto
            -33 -125 -44 -120 -71 -116 -79 -128 -89 -70 -4 -3 rrcurveto
            -7 -3 -32 -17 -16 vvcurveto
            -4 7 -13 8 6 15 12 8 11 vhcurveto
            8 9 9 7 59 hhcurveto
            18 20 0 -11 35 hvcurveto
            59 -23 -37 -149 rlineto
            -4 -15 0 -2 -4 vvcurveto
            -21 17 -5 10 19 13 11 23 6 vhcurveto
            37 146 rlineto
            -1 6 8 0 6 hhcurveto
            28 65 13 16 hvcurveto
            endchar
          </CharString>
          <CharString index="73">
            rlineto
            -1 -4 -5 -20 -15 83 callsubr
            38 20 27 25 13 vhcurveto
            17 35 14 64 3 vvcurveto
            return
          </CharString>
          <CharString index="74">
            163 rmoveto
            10 -8 0 -7 -12 -1 -1 -16 -4 vhcurveto
            -41 -14 -39 -67 -67 hhcurveto
            -28 -39 8 4 -16 hvcurveto
            8 -36 -39 9 -31 hhcurveto
            -11 -9 -2 -1 -2 hvcurveto
            50 86 73 41 31 18 rrcurveto
            154 87 91 62 129 vvcurveto
            115 -78 54 -78 -148 -82 -202 -65 -20 6 -43 45 79 42 120 38 18 -9 35 -13 -6 -5 -5 -6 0 0 -4 1 -2 vhcurveto
            6 -12 4 -13 -12 vvcurveto
            -29 -37 -106 -61 -12 -10 5 28 65 75 188 122 41 47 -27 -83 -145 -87 -84 -99 -59 vhcurveto
            -45 -27 -42 -24 -42 -52 rrcurveto
            -70 -84 -11 -71 0 vvcurveto
            -10 10 0 5 12 2 2 11 3 vhcurveto
            28 8 18 36 30 hhcurveto
            32 28 -20 -17 25 hvcurveto
            -18 26 31 -22 40 hhcurveto
            115 46 174 11 hvcurveto
            endchar
          </CharString>
          <CharString index="75">
            -115 rmoveto
            -55 callsubr
            return
          </CharString>
          <CharString index="76">
            35 0 31 313 22 286 31 hstem
            646 88 vstem
            677 219 rmoveto
            83 -67 46 -72 9 vhcurveto
            122 27 74 86 77 vvcurveto
            72 -59 64 -109 vhcurveto
            -311 -1 callgsubr
            330 hlineto
            142 115 115 104 hvcurveto
            -31 334 rmoveto
            -85 -77 -102 -114 vhcurveto
            -132 hlineto
            62 250 36 callsubr
            118 hlineto
            84 10 -68 -31 hvcurveto
            -58 -321 rmoveto
            -97 -80 -104 -110 vhcurveto
            -124 -35 callgsubr
            3 10 1 6 hvcurveto
            70 281 rlineto
            172 hlineto
            93 6 -86 -26 hvcurveto
            endchar
          </CharString>
          <CharString index="77">
            6 rmoveto
            1 vlineto
            8 -7 9 -8 1 vhcurveto
            -21 -22 -8 -22 hhcurveto
            -24 hlineto
            39 160 rlineto
            3 12 6 18 13 vvcurveto
            20 -13 2 -14 -29 -7 -23 -30 -7 vhcurveto
            -40 -161 rlineto
            0 -54 16 -36 4 vhcurveto
            -28 3 -43 0 0 vvcurveto
            123 82 97 135 49 141 rrcurveto
            3 12 5 10 15 vvcurveto
            -1 14 -12 11 -14 1 rrcurveto
            -37 -3 -46 -32 -11 hvcurveto
            -45 -130 -91 -135 -116 -76 rrcurveto
            -18 -9 -31 -10 -16 vvcurveto
            -8 1 7 -8 8 hhcurveto
            10 10 10 3 10 hvcurveto
            5 22 26 0 23 hhcurveto
            49 43 -12 -10 46 hvcurveto
            -35 -141 rlineto
            -2 -7 -3 -11 -7 vvcurveto
            -20 12 -5 14 34 5 29 26 6 vhcurveto
            31 124 rlineto
            26 hlineto
            28 56 7 13 2 hvcurveto
            endchar
          </CharString>
          <CharString index="78">
            46 callgsubr
            hintmask 11011000
            -94 callgsubr
            hintmask 00100000
            return
          </CharString>
          <CharString index="79">
            -362 -205 22 19 80 484 31 153 78 21 22 hstem
            -25 84 309 84 vstem
            452 639 rmoveto
            43 -41 23 -41 -98 -25 -130 -34 -7 vhcurveto
            -21 -110 rlineto
            -66 hlineto
            -16 -11 0 -20 -11 10 0 15 hvcurveto
            62 hlineto
            -73 -373 -12 -62 -10 -41 -6 -21 rlinecurve
            -34 -8 -13 -52 -36 hhcurveto
            -10 -19 3 15 -11 hvcurveto
            -4 callsubr
            -45 43 -21 37 104 41 210 36 7 vhcurveto
            70 359 rlineto
            82 hlineto
            17 10 0 18 13 -8 0 -17 hvcurveto
            -78 hlineto
            32 162 rlineto
            37 8 11 53 36 hhcurveto
            8 21 -2 -16 13 hvcurveto
            -30 -5 -14 -24 -20 83 callgsubr
            25 25 20 35 vhcurveto
            endchar
          </CharString>
          <CharString index="80">
            -44 callsubr
            8 0 return
          </CharString>
          <CharString index="81">
            9 0 31 285 26 310 31 hstem
            642 88 vstem
            730 535 rmoveto
            84 -68 64 -109 vhcurveto
            -300 hlineto
            -16 -11 6 callgsubr
            61 248 rlineto
            155 hlineto
            126 135 102 117 hvcurveto
            -88 27 rmoveto
            -20 -15 -98 -38 -44 vhcurveto
            -39 -35 -50 -19 -60 hhcurveto
            -126 hlineto
            68 274 36 callsubr
            86 hlineto
            70 51 -26 -64 hvcurveto
            endchar
          </CharString>
          <CharString index="82">
            417 -13 callgsubr
            45 33 40 24 rrcurveto
            83 28 51 62 12 vvcurveto
            -57 callgsubr
            -65 -11 71 39 38 10 45 7 27 hvcurveto
            39 hlineto
            30 67 3 19 48 hvcurveto
            79 32 0 65 7 vvcurveto
            46 -37 39 -64 -105 -143 -101 -177 -90 48 -85 95 7 7 0 1 7 vhcurveto
            -46 -31 -35 -33 30 callsubr
            8 474 rmoveto
            -106 -165 0 -33 vhcurveto
            -21 hlineto
            164 43 103 3 10 hhcurveto
            40 23 -27 -34 hvcurveto
            return
          </CharString>
          <CharString index="83">
            1 1 0 2 1 vvcurveto
            6 -4 4 -6 vhcurveto
            -2 hlineto
            -3 -4 -2 -3 -1 hvcurveto
            -48 -84 -64 -78 -75 -67 rrcurveto
            -2 -2 -2 -2 -3 vvcurveto
            -2 1 -2 1 -2 vhcurveto
            42 -65 24 -78 6 -84 rrcurveto
            -5 4 -4 5 vhcurveto
            2 hlineto
            6 4 4 6 hvcurveto
            3 80 -10 78 -22 72 58 71 49 78 37 80 rrcurveto
            return
          </CharString>
          <CharString index="84">
            31 307 31 86 31 163 31 return
          </CharString>
          <CharString index="85">
            18 rmoveto
            -10 callsubr
            vhcurveto
            return
          </CharString>
          <CharString index="86">
            -17 callsubr
            hintmask 01001000
            -96 callsubr
            hintmask 00010000
            -61 callsubr
            hintmask 01001000
            -86 callgsubr
          </CharString>
          <CharString index="87">
            rlineto
            -2 callsubr
            return
          </CharString>
          <CharString index="88">
            -209 -8 callsubr
            return
          </CharString>
          <CharString index="89">
            509 278 rmoveto
            95 -59 69 -87 -124 -129 -142 -146 -85 43 -57 62 -18 vhcurveto
            -45 -31 -40 -40 -9 -44 rrcurveto
            -38 callsubr
            -55 callsubr
            7 28 21 22 25 18 23 16 rcurveline
            6 hlineto
            124 129 142 147 hvcurveto
            -70 39 rmoveto
            -43 -22 -103 -32 -60 vhcurveto
            -55 -29 -51 -45 -49 hhcurveto
            -39 -37 31 72 50 26 111 32 54 hvcurveto
            61 37 48 30 39 hhcurveto
            49 28 -44 -59 hvcurveto
            return
          </CharString>
          <CharString index="90">
            -103 callgsubr
            49 140 -65 callgsubr
            return
          </CharString>
          <CharString index="91">
            48 -18 78 -66 -94 -97 -143 -127 -76 37 -57 58 93 87 156 121 vhcurveto
            return
          </CharString>
          <CharString index="92">
            225 rmoveto
            16 65 9 68 -27 52 rrcurveto
            43 -23 -50 19 -55 hhcurveto
            -55 -59 -19 -43 -45 hvcurveto
            -53 -52 -25 -68 -16 -65 -17 -65 -8 -68 27 -52 rrcurveto
            -43 23 49 -19 56 hhcurveto
            55 59 19 43 44 hvcurveto
            53 52 26 68 16 65 rrcurveto
            -77 hmoveto
            -15 -58 -17 -59 -39 -51 rrcurveto
            -33 -25 -38 -24 -37 hhcurveto
            -37 -26 24 33 -9 hvcurveto
            -13 51 12 59 15 58 14 58 17 59 40 51 rrcurveto
            33 25 38 24 37 hhcurveto
            36 26 -24 -33 9 hvcurveto
            13 -51 -12 -59 -14 -58 rrcurveto
            endchar
          </CharString>
          <CharString index="93">
            -50 callsubr
            -135 -543 rlineto
            return
          </CharString>
          <CharString index="94">
            15 rmoveto
            9 -9 7 -8 -31 -34 2 2 -6 vhcurveto
            -16 5 -3 7 10 41 87 347 rcurveline
            12 4 3 25 -12 hhcurveto
            -12 -13 -12 -2 -4 hvcurveto
            -20 -40 -39 -9 -53 hhcurveto
            -13 -15 3 -21 hvcurveto
            -1 vlineto
            -9 16 -3 12 35 26 6 6 30 vhcurveto
            -80 -317 -7 -29 -8 -17 -16 -8 rlinecurve
            -8 -17 -37 0 -29 hhcurveto
            -9 -11 -4 -14 hvcurveto
            hintmask 10000000
            -11 10 -2 7 vhcurveto
            hintmask 01000000
            50 21 3 59 hhcurveto
            hintmask 10000000
            44 47 -3 42 hhcurveto
            12 7 6 9 hvcurveto
            endchar
          </CharString>
          <CharString index="95">
            614 37 rmoveto
            13 11 -7 10 -5 8 -140 185 rcurveline
            227 181 13 10 16 14 -15 10 rlinecurve
            -15 11 -16 -13 -13 -10 -218 -175 rcurveline
            -132 175 -7 11 0 0 -3 2 rlinecurve
            -9 6 -13 -1 -11 -8 -14 -12 8 -11 5 -6 140 -185 rcurveline
            -228 -182 -13 -10 -16 -14 15 -10 rlinecurve
            15 -11 16 13 13 10 219 176 rcurveline
            131 -175 8 -10 -1 -1 3 -2 rlinecurve
            11 -7 14 3 9 7 rrcurveto
            return
          </CharString>
          <CharString index="96">
            203 168 -102 callgsubr
            return
          </CharString>
          <CharString index="97">
            -47 callsubr
            0 0 8 4 15 return
          </CharString>
          <CharString index="98">
            458 rmoveto
            -53 callsubr
            return
          </CharString>
          <CharString index="99">
            -11 -17 callgsubr
            return
          </CharString>
          <CharString index="100">
            82 callgsubr
            vhcurveto
            hintmask 0100000000110000
            117 callsubr
            hvcurveto
            -599 403 rmoveto
            hintmask 1010111100000000
            -122 -83 -138 -64 -40 -6 52 28 73 53 206 86 40 14 -53 -46 vhcurveto
            293 -403 35 callgsubr
            vhcurveto
            hintmask 0100000010000000
            31 callsubr
            vhcurveto
            endchar
          </CharString>
          <CharString index="101">
            -65 callgsubr
            hintmask 0000100100000000
            -96 callsubr
            hintmask 0000001000000000
            -61 callsubr
            hintmask 0000100100000000
            -86 callgsubr
          </CharString>
          <CharString index="102">
            333 540 rmoveto
            -94 callsubr
            209 hmoveto
            -94 callsubr
            return
          </CharString>
          <CharString index="103">
            30 5 14 24 20 vvcurveto
            22 -18 10 -16 -25 -25 -20 -35 return
          </CharString>
          <CharString index="104">
            rmoveto
            -16 callsubr
            return
          </CharString>
          <CharString index="105">
            1 3 2 10 0 vvcurveto
            return
          </CharString>
          <CharString index="106">
            -209 336 -109 rmoveto
            26 -19 21 -42 8 vhcurveto
            14 57 rlineto
            7 -1 -10 0 -16 hhcurveto
            -13 hlineto
            -22 -1 -1 -5 -2 hvcurveto
            -2 -9 -13 -49 32 callsubr
            hvcurveto
            endchar
          </CharString>
          <CharString index="107">
            rmoveto
            -9 17 rlineto
            -41 -60 -60 -30 -51 hhcurveto
            -40 -25 17 20 -30 hvcurveto
            17 -25 -26 17 -40 hhcurveto
            -25 -28 -8 -10 -25 hvcurveto
            -22 -10 -23 -11 -21 -14 -65 -44 rcurveline
            10 -17 rlineto
            41 59 61 30 51 hhcurveto
            40 25 -17 -20 30 hvcurveto
            -17 24 27 -17 40 hhcurveto
            25 28 8 10 25 hvcurveto
            22 10 23 11 20 14 rrcurveto
            endchar
          </CharString>
          <CharString index="108">
            -269 -21 145 79 return
          </CharString>
          <CharString index="109">
            43 callsubr
            -18 -13 7 0 20 58 0 -8 -9 0 0 -8 -4 -15 hvcurveto
            -134 -536 -56 callsubr
            11 0 3 hvcurveto
            40 42 3 40 46 47 -3 45 hhcurveto
            9 12 27 callsubr
            110 callsubr
            15 hvcurveto
            return
          </CharString>
          <CharString index="110">
            rlineto
            -1 -3 -10 -41 -38 vvcurveto
            -84 42 -68 73 112 117 150 147 vhcurveto
            -123 -180 rmoveto
            -25 -12 -43 -70 -51 hhcurveto
            -25 -33 21 75 44 9 35 29 114 hvcurveto
            7 24 0 2 15 20 rrcurveto
            40 29 38 34 38 hhcurveto
            45 10 -57 -32 -42 -27 -119 -29 -64 hvcurveto
            endchar
          </CharString>
          <CharString index="111">
            64 callgsubr
            456 return
          </CharString>
          <CharString index="112">
            233 934 rlineto
            14 4 5 19 -20 hhcurveto
            -20 -5 -19 -14 -4 hvcurveto
            -233 -934 rlineto
            19 callgsubr
            return
          </CharString>
          <CharString index="113">
            rmoveto
            -9 callgsubr
            return
          </CharString>
          <CharString index="114">
            hstemhm
            9 callgsubr
            return
          </CharString>
          <CharString index="115">
            0 19 12 -10 0 return
          </CharString>
          <CharString index="116">
            -22 callsubr
            135 541 rlineto
            32 8 8 8 63 hhcurveto
            21 9 0 18 return
          </CharString>
          <CharString index="117">
            hstemhm
            5 callgsubr
            return
          </CharString>
          <CharString index="118">
            -283 16 callgsubr
            return
          </CharString>
          <CharString index="119">
            hlineto
            8 9 6 9 2 hvcurveto
            8 2 -5 7 -8 hhcurveto
            return
          </CharString>
          <CharString index="120">
            788 444 rmoveto
            return
          </CharString>
          <CharString index="121">
            -183 -205 22 172 -46 callsubr
            return
          </CharString>
          <CharString index="122">
            hlineto
            -17 -36 callgsubr
            return
          </CharString>
          <CharString index="123">
            17 -13 11 -16 vhcurveto
            hintmask 11000000
            -7 -1 -20 -4 -9 -21 -10 -16 rlinecurve
            -22 -37 -21 -39 -25 -35 rrcurveto
            -3 -7 -8 -7 -8 vvcurveto
            -8 9 -8 9 vhcurveto
            12 2 13 21 10 12 64 74 rcurveline
            14 15 23 20 17 vvcurveto
            return
          </CharString>
          <CharString index="124">
            170 363 -103 callgsubr
            return
          </CharString>
          <CharString index="125">
            rmoveto
            20 -18 0 -15 vhcurveto
            -546 hlineto
            -14 -20 0 -20 -20 20 0 14 hvcurveto
            546 hlineto
            15 18 0 20 hvcurveto
            return
          </CharString>
          <CharString index="126">
            hstemhm
            155 61 15 56 return
          </CharString>
          <CharString index="127">
            -132 -49 callgsubr
            return
          </CharString>
          <CharString index="128">
            -247 hlineto
            62 248 rlineto
            4 14 0 1 4 vvcurveto
            11 -8 9 -12 -16 -4 -16 -9 -2 vhcurveto
            -65 -262 rlineto
            -258 hlineto
            -14 -19 0 -20 -20 19 0 14 hvcurveto
            248 hlineto
            -62 -247 rlineto
            return
          </CharString>
          <CharString index="129">
            -209 -11 22 285 79 45 22 return
          </CharString>
          <CharString index="130">
            hstemhm
            128 56 47 55 return
          </CharString>
          <CharString index="131">
            49 callgsubr
            hstemhm
            return
          </CharString>
          <CharString index="132">
            49 callsubr
            49 0 2 12 21 rrcurveto
            50 29 43 58 69 hhcurveto
            46 0 -51 -15 return
          </CharString>
          <CharString index="133">
            31 621 31 return
          </CharString>
          <CharString index="134">
            75 callgsubr
            -10 hlineto
            -73 0 8 13 return
          </CharString>
          <CharString index="135">
            -317 123 rmoveto
            -94 callsubr
            209 hmoveto
            -94 callsubr
            return
          </CharString>
          <CharString index="136">
            84 143 callsubr
            hstemhm
            return
          </CharString>
          <CharString index="137">
            -10 -47 rrcurveto
            -38 callsubr
            return
          </CharString>
          <CharString index="138">
            67 51 212 89 35 18 -43 -56 return
          </CharString>
          <CharString index="139">
            -4 -48 callgsubr
            return
          </CharString>
          <CharString index="140">
            98 callsubr
            20 17 13 10 5 vhcurveto
            1 hlineto
            endchar
          </CharString>
          <CharString index="141">
            rmoveto
            18 5 -11 14 -18 hhcurveto
            -18 -19 -14 -18 -3 hvcurveto
            -46 -250 rlineto
            30 hlineto
            return
          </CharString>
          <CharString index="142">
            31 233 31 401 31 return
          </CharString>
          <CharString index="143">
            rlineto
            36 9 7 0 33 hhcurveto
            return
          </CharString>
          <CharString index="144">
            -12 11 0 4 return
          </CharString>
          <CharString index="145">
            rmoveto
            25 -19 18 -25 -34 -31 -32 -31 -20 15 -23 30 31 33 29 34 vhcurveto
            return
          </CharString>
          <CharString index="146">
            -22 -22 -18 -22 -6 hvcurveto
            -22 -5 13 -18 22 hhcurveto
            22 23 18 22 5 hvcurveto
            return
          </CharString>
          <CharString index="147">
            53 -43 callgsubr
            return
          </CharString>
          <CharString index="148">
            -200 106 83 22 return
          </CharString>
          <CharString index="149">
            hlineto
            5 6 0 1 4 hvcurveto
            3 2 2 2 2 3 4 4 1 5 -1 5 -1 2 -2 2 -2 2 rrcurveto
            2 -3 -6 0 -5 hhcurveto
            return
          </CharString>
          <CharString index="150">
            hlineto
            -17 -10 0 return
          </CharString>
          <CharString index="151">
            22 callsubr
            hstem
            127 callgsubr
            vstem
            468 104 rmoveto
            5 -8 11 -8 -4 -1 -1 -10 -8 vhcurveto
            return
          </CharString>
          <CharString index="152">
            157 61 13 56 85 61 175 89 return
          </CharString>
          <CharString index="153">
            -10 -1 -1 -3 return
          </CharString>
          <CharString index="154">
            77 callgsubr
            -102 288 rmoveto
            -227 hlineto
            return
          </CharString>
          <CharString index="155">
            75 callsubr
            77 callgsubr
            endchar
          </CharString>
          <CharString index="156">
            rlineto
            -2 -6 -1 -5 -3 vvcurveto
            -11 8 -15 20 12 17 7 19 7 vhcurveto
            40 160 -2 callgsubr
            13 return
          </CharString>
          <CharString index="157">
            rmoveto
            11 -10 0 -15 vhcurveto
            -134 43 callsubr
            -17 -13 8 0 17 hvcurveto
            134 hlineto
            17 10 37 callgsubr
          </CharString>
          <CharString index="158">
            -362 -205 22 603 22 return
          </CharString>
          <CharString index="159">
            -20 7 callsubr
            return
          </CharString>
          <CharString index="160">
            22 220 22 return
          </CharString>
          <CharString index="161">
            hlineto
            144 290 rlineto
            2 5 3 6 6 vvcurveto
            9 -6 11 -14 -6 -5 -2 -4 -4 vhcurveto
            -159 -321 rlineto
            return
          </CharString>
          <CharString index="162">
            51 callgsubr
            hstemhm
            154 56 126 57 return
          </CharString>
          <CharString index="163">
            -260 -11 64 11 22 259 22 11 64 return
          </CharString>
          <CharString index="164">
            74 0 74 callsubr
            return
          </CharString>
          <CharString index="165">
            hlineto
            -8 -9 113 callsubr
            -9 -2 return
          </CharString>
          <CharString index="166" raw="1">
            e91d838b 840b  
          </CharString>
          <CharString index="167">
            -229 -21 1000 -20 hstem
            return
          </CharString>
          <CharString index="168">
            hstemhm
            99 56 0 61 15 56 return
          </CharString>
          <CharString index="169">
            -3 vvcurveto
            -6 5 -4 6 return
          </CharString>
          <CharString index="170">
            -8 2 -7 11 vhcurveto
            8 hlineto
            11 2 1 14 9 vvcurveto
            endchar
          </CharString>
          <CharString index="171">
            rlineto
            25 21 44 34 63 vvcurveto
            33 -18 37 -42 -67 -44 -72 -23 -10 10 0 5 12 1 2 13 4 vhcurveto
            return
          </CharString>
          <CharString index="172">
            hlineto
            14 1 7 9 4 hvcurveto
            48 193 rmoveto
            2 8 rlineto
            1 6 3 7 7 vvcurveto
            8 -5 5 -12 vhcurveto
            return
          </CharString>
          <CharString index="173">
            -1 hlineto
            10 -1 25 -39 17 vhcurveto
            11 -25 -32 3 -27 hhcurveto
            return
          </CharString>
          <CharString index="174">
            7 callgsubr
            endchar
          </CharString>
          <CharString index="175">
            -22 28 398 22 95 80 40 25 hstem
            return
          </CharString>
          <CharString index="176">
            113 70 113 vstem
            return
          </CharString>
          <CharString index="177">
            vvcurveto
            -12 10 0 return
          </CharString>
          <CharString index="178">
            86 callsubr
            hstemhm
            62 return
          </CharString>
          <CharString index="179">
            -56 22 359 22 0 22 252 22 85 22 hstemhm
            return
          </CharString>
          <CharString index="180">
            74 -22 30 645 27 -27 30 return
          </CharString>
          <CharString index="181">
            31 309 31 281 31 return
          </CharString>
          <CharString index="182">
            hlineto
            -72 -287 rlineto
            return
          </CharString>
          <CharString index="183">
            rlineto
            2 6 1 return
          </CharString>
          <CharString index="184">
            594 258 rmoveto
            62 -45 59 -79 -90 -93 -84 -93 -73 51 -48 73 96 87 93 84 vhcurveto
            return
          </CharString>
          <CharString index="185">
            -4 hvcurveto
            -44 -281 rlineto
            -5 vlineto
            -7 2 -6 8 vhcurveto
            1 hlineto
            9 1 3 12 2 7 return
          </CharString>
          <CharString index="186">
            74 -200 106 94 4 callsubr
            -20 return
          </CharString>
          <CharString index="187">
            31 615 31 134 callgsubr
            return
          </CharString>
          <CharString index="188">
            30 49 60 -22 22 70 72 22 60 return
          </CharString>
          <CharString index="189">
            84 callgsubr
            -11 0 return
          </CharString>
          <CharString index="190">
            vvcurveto
            -53 36 -37 48 return
          </CharString>
          <CharString index="191">
            hvcurveto
            -11 -3 -29 -15 -31 83 callgsubr
            27 23 22 32 47 -52 20 -56 return
          </CharString>
          <CharString index="192">
            60 -22 22 0 31 300 22 299 31 return
          </CharString>
          <CharString index="193">
            1 callsubr
            66 26 callsubr
            return
          </CharString>
          <CharString index="194">
            rmoveto
            82 callgsubr
            return
          </CharString>
          <CharString index="195">
            -132 -11 22 408 23 return
          </CharString>
          <CharString index="196">
            28 21 22 26 18 return
          </CharString>
          <CharString index="197">
            -11 12 0 3 return
          </CharString>
          <CharString index="198">
            hlineto
            -18 -1 -1 -4 -4 hvcurveto
            -3 -5 -4 -18 0 70 callsubr
            16 vhcurveto
            return
          </CharString>
          <CharString index="199">
            hlineto
            -4 -4 0 -1 -3 hvcurveto
            -14 -4 -3 -39 0 vvcurveto
            -9 7 -3 8 vhcurveto
            return
          </CharString>
          <CharString index="200">
            -20 46 callgsubr
            return
          </CharString>
          <CharString index="201">
            -8 -2 5 -7 8 hhcurveto
            return
          </CharString>
          <CharString index="202">
            74 16 callgsubr
            return
          </CharString>
          <CharString index="203">
            11 -1 19 -4 18 -5 rrcurveto
            -6 17 27 -8 21 hhcurveto
            35 9 28 5 return
          </CharString>
          <CharString index="204">
            214 0 31 282 31 308 31 return
          </CharString>
          <CharString index="205">
            -26 -7 -13 -22 -19 83 callgsubr
            return
          </CharString>
          <CharString index="206">
            143 callsubr
            hstem
            return
          </CharString>
          <CharString index="207">
            93 rmoveto
            2 8 rlineto
            1 5 3 8 6 vvcurveto
            8 -5 5 -13 vhcurveto
            return
          </CharString>
          <CharString index="208">
            -21 31 hhcurveto
            21 31 8 6 23 hvcurveto
            3 1 27 7 20 2 -8 return
          </CharString>
          <CharString index="209">
            -4 callsubr
            -47 return
          </CharString>
          <CharString index="210">
            -144 -22 22 65 98 489 31 return
          </CharString>
          <CharString index="211">
            1 callsubr
            44 return
          </CharString>
          <CharString index="212">
            416 -21 193 106 hstem
            return
          </CharString>
          <CharString index="213">
            -21 549 22 47 70 hstem
            return
          </CharString>
          <CharString index="214">
            9 2 -5 6 -8 hhcurveto
            return
          </CharString>
          <CharString index="215">
            47 0 31 615 31 return
          </CharString>
          <CharString index="216">
            123 callsubr
            hstemhm
            return
          </CharString>
          <CharString index="217">
            4 0 2 4 return
          </CharString>
          <CharString index="218">
            4 -2 4 hvcurveto
            18 20 2 19 19 21 -2 19 hhcurveto
            3 return
          </CharString>
          <CharString index="219">
            38 116 38 return
          </CharString>
          <CharString index="220">
            -7 -8 -2 hvcurveto
            return
          </CharString>
          <CharString index="221">
            hlineto
            8 8 6 9 2 hvcurveto
            8 3 -6 7 -8 hhcurveto
            return
          </CharString>
          <CharString index="222">
            hlineto
            8 9 7 8 2 hvcurveto
            8 2 -6 7 -8 hhcurveto
            return
          </CharString>
          <CharString index="223">
            -46 callsubr
            210 42 hstemhm
            109 callgsubr
            return
          </CharString>
          <CharString index="224">
            -44 -2 65 15 31 callsubr
            return
          </CharString>
          <CharString index="225">
            5 -7 9 hhcurveto
            8 8 7 8 return
          </CharString>
          <CharString index="226">
            -200 106 94 31 return
          </CharString>
          <CharString index="227">
            vvcurveto
            37 callsubr
            return
          </CharString>
          <CharString index="228">
            113 callgsubr
            hstemhm
            return
          </CharString>
          <CharString index="229">
            30 116 30 return
          </CharString>
          <CharString index="230">
            -21 209 -20 return
          </CharString>
          <CharString index="231">
            0 31 -28 28 367 31 43 -20 hstemhm
            hintmask 01110000
            return
          </CharString>
          <CharString index="232">
            rlineto
            -25 -21 -44 -34 -63 vvcurveto
            -33 18 -37 42 67 return
          </CharString>
          <CharString index="233" raw="1">
            d5f70b0a 0b  
          </CharString>
          <CharString index="234">
            47 -22 31 665 31 return
          </CharString>
          <CharString index="235">
            18 vhcurveto
            142 return
          </CharString>
          <CharString index="236">
            10 -10 0 -5 return
          </CharString>
          <CharString index="237">
            7 0 11 8 -4 0 -12 -35 0 5 5 return
          </CharString>
          <CharString index="238">
            -22 70 7 22 259 22 286 22 hstem
            return
          </CharString>
          <CharString index="239">
            -21 70 -10 24 187 23 177 22 hstemhm
            return
          </CharString>
          <CharString index="240">
            -1 -21 674 31 return
          </CharString>
          <CharString index="241">
            -20 91 callgsubr
            return
          </CharString>
          <CharString index="242">
            175 631 return
          </CharString>
          <CharString index="243">
            10 0 5 13 return
          </CharString>
          <CharString index="244">
            7 13 0 19 return
          </CharString>
          <CharString index="245">
            -32 -15 -32 hhcurveto
            -36 -37 18 44 -4 hvcurveto
            return
          </CharString>
          <CharString index="246">
            -43 callgsubr
            98 68 return
          </CharString>
          <CharString index="247">
            39 155 rlineto
            6 1 -3 4 -6 hhcurveto
            return
          </CharString>
          <CharString index="248">
            rlineto
            -274 hlineto
            return
          </CharString>
          <CharString index="249">
            hstemhm
            150 87 return
          </CharString>
          <CharString index="250">
            -21 191 -20 return
          </CharString>
        <CharString name=".notdef">
          -389 endchar
        </CharString>
        <CharString name="A">
          -23 callgsubr
          hstem
          59 633 vstem
          -106 callsubr
          endchar
        </CharString>
        <CharString name="AE">
          97 callsubr
          hstem
          -77 callgsubr
          endchar
        </CharString>
        <CharString name="AE.dup">
          97 callsubr
          hstem
          -77 callgsubr
          endchar
        </CharString>
        <CharString name="AEacute">
          97 callsubr
          47 callgsubr
          hintmask 11100000
          -77 callgsubr
          hintmask 00011000
          234 261 -104 callsubr
        </CharString>
        <CharString name="Aacute">
          -23 callgsubr
          72 24 callsubr
          59 633 hintmask 11100100
          -106 callsubr
          hintmask 00011000
          234 286 -104 callsubr
        </CharString>
        <CharString name="Abreve">
          -23 callgsubr
          50 121 callsubr
          59 633 hintmask 11100100
          -106 callsubr
          hintmask 00011000
          17 callgsubr
          endchar
        </CharString>
        <CharString name="Abreveacute">
          -23 callgsubr
          50 36 313 -20 96 callgsubr
          hintmask 11100100
          -106 callsubr
          hintmask 00011000
          17 callgsubr
          4 156 -104 callsubr
        </CharString>
        <CharString name="Abrevedotbelow">
          79 callsubr
          50 121 callsubr
          59 633 hintmask 01111110
          -106 callsubr
          17 callgsubr
          hintmask 10000000
          -347 -1043 -95 callsubr
          endchar
        </CharString>
        <CharString name="Abrevegrave">
          -23 callgsubr
          50 121 callsubr
          59 633 hintmask 11100100
          -106 callsubr
          hintmask 00011000
          17 callgsubr
          -22 49 rmoveto
          -3 -8 -12 -10 -8 -1 -3 -1 -2 0 -7 6 -134 93 rcurveline
          -7 5 -9 7 5 16 rrcurveto
          19 6 20 14 19 hhcurveto
          10 6 -5 -6 6 hvcurveto
          107 -116 rlineto
          7 -8 -1 -2 -3 vvcurveto
          endchar
        </CharString>
        <CharString name="Abrevehookabove">
          -23 callgsubr
          50 36 343 -20 96 callgsubr
          hintmask 11100100
          -106 callsubr
          hintmask 00011000
          17 callgsubr
          -11 150 -107 callgsubr
        </CharString>
        <CharString name="Abrevetilde">
          -23 callgsubr
          50 36 174 132 callgsubr
          hintmask 1110000010000000
          -106 callsubr
          hintmask 0001010000000000
          243 319 rmoveto
          6 -5 4 -6 -8 -2 -5 -9 -3 vhcurveto
          -85 -28 -73 -35 -47 hhcurveto
          -59 -29 43 47 10 5 23 0 hvcurveto
          9 -7 2 -4 -17 0 -47 -5 -61 36 -57 71 112 64 131 29 vhcurveto
          49 140 -6 callsubr
        </CharString>
        <CharString name="Acaron">
          -23 callgsubr
          96 callgsubr
          vstemhm
          -106 callsubr
          223 249 -71 callgsubr
        </CharString>
        <CharString name="Acircumflex">
          -23 callgsubr
          96 callgsubr
          vstemhm
          -106 callsubr
          -11 callsubr
          endchar
        </CharString>
        <CharString name="Acircumflexacute">
          -23 callgsubr
          338 -20 96 callgsubr
          hintmask 11101000
          -106 callsubr
          hintmask 00010000
          -11 callsubr
          28 246 -104 callsubr
        </CharString>
        <CharString name="Acircumflexdotbelow">
          79 callsubr
          96 callgsubr
          hintmask 01111000
          -106 callsubr
          -11 callsubr
          hintmask 10000000
          -307 -892 -95 callsubr
          endchar
        </CharString>
        <CharString name="Acircumflexgrave">
          -23 callgsubr
          96 callgsubr
          vstemhm
          -106 callsubr
          hintmask 00010000
          203 168 -75 callgsubr
        </CharString>
        <CharString name="Acircumflexhookabove">
          -23 callgsubr
          368 -20 96 callgsubr
          hintmask 11101000
          -106 callsubr
          hintmask 00010000
          -11 callsubr
          104 240 -107 callgsubr
        </CharString>
        <CharString name="Acircumflextilde">
          -23 callgsubr
          199 132 callgsubr
          hintmask 11100001
          -106 callsubr
          hintmask 00001000
          -11 callsubr
          73 230 -65 callgsubr
          hintmask 00010010
          -96 callsubr
          hintmask 00000100
          -61 callsubr
          hintmask 00010010
          -86 callgsubr
        </CharString>
        <CharString name="Adblgrave">
          -23 callgsubr
          71 90 callgsubr
          59 633 hintmask 11100100
          -106 callsubr
          hintmask 00011000
          160 174 -74 callgsubr
        </CharString>
        <CharString name="Adieresis">
          -23 callgsubr
          40 96 96 callgsubr
          hintmask 11101000
          -106 callsubr
          hintmask 00010000
          19 206 rmoveto
          -94 callsubr
          209 hmoveto
          -94 callsubr
          endchar
        </CharString>
        <CharString name="Adotbelow">
          79 callsubr
          96 callgsubr
          hintmask 01111000
          -106 callsubr
          hintmask 10000000
          -104 -724 -95 callsubr
          endchar
        </CharString>
        <CharString name="Agrave">
          -23 callgsubr
          72 24 callsubr
          59 633 hintmask 11100100
          -106 callsubr
          hintmask 00011000
          139 179 -77 callsubr
        </CharString>
        <CharString name="Ahookabove">
          -23 callgsubr
          83 109 callsubr
          59 633 hintmask 11100100
          -106 callsubr
          hintmask 00011000
          194 311 -107 callgsubr
        </CharString>
        <CharString name="Alpha">
          -23 callgsubr
          hstem
          59 633 vstem
          -106 callsubr
          endchar
        </CharString>
        <CharString name="Amacron">
          -23 callgsubr
          60 30 96 callgsubr
          hintmask 11101000
          -106 callsubr
          hintmask 00010000
          237 188 -80 callgsubr
        </CharString>
        <CharString name="Aogonek">
          74 -211 47 164 64 callgsubr
          hstem
          59 203 vstem
          -37 callgsubr
          endchar
        </CharString>
        <CharString name="Aogonekacute">
          74 -211 47 164 64 callgsubr
          508 24 callsubr
          59 203 hintmask 11100100
          -37 callgsubr
          hintmask 00011000
          234 286 -104 callsubr
        </CharString>
        <CharString name="Aring">
          74 0 4 callsubr
          122 callsubr
          96 callgsubr
          -215 112 callsubr
          hintmask 11101000
          -106 callsubr
          hintmask 00110110
          138 239 -51 callsubr
          -60 -50 -58 67 callsubr
        </CharString>
        <CharString name="Aringacute">
          74 0 4 callsubr
          122 callsubr
          179 -20 96 callgsubr
          -215 112 callsubr
          hintmask 11100100
          -106 callsubr
          hintmask 00111011
          138 239 -51 callsubr
          -60 -50 -58 7 callgsubr
          66 213 -104 callsubr
        </CharString>
        <CharString name="Atilde">
          -23 callgsubr
          40 132 callgsubr
          hintmask 11100001
          -106 callsubr
          hintmask 00001000
          237 239 -65 callgsubr
          hintmask 00010010
          -96 callsubr
          hintmask 00000100
          -61 callsubr
          hintmask 00010010
          -86 callgsubr
        </CharString>
        <CharString name="B">
          -31 callsubr
        </CharString>
        <CharString name="Beta">
          -31 callsubr
        </CharString>
        <CharString name="C">
          127 callsubr
          hstem
          150 87 vstem
          -67 callgsubr
          endchar
        </CharString>
        <CharString name="Cacute">
          127 callsubr
          63 24 callsubr
          150 87 hintmask 11001000
          -67 callgsubr
          hintmask 00110000
          1 435 -104 callsubr
        </CharString>
        <CharString name="Ccaron">
          127 callsubr
          142 callsubr
          vstemhm
          -67 callgsubr
          -10 398 -71 callgsubr
        </CharString>
        <CharString name="Ccedilla">
          127 callsubr
          hstem
          150 87 vstem
          810 681 rmoveto
          1 4 1 6 4 vvcurveto
          0 -1 10 -10 vhcurveto
          0 -7 0 -9 -11 vhcurveto
          -63 -74 rlineto
          69 -43 -58 16 -50 hhcurveto
          -206 -215 -225 -235 -134 71 -93 101 -30 hvcurveto
          -4 -18 -7 -25 -3 -48 callgsubr
          26 -19 21 -42 8 hvcurveto
          8 32 rlineto
          10 hlineto
          195 109 214 48 129 callsubr
          -6 -7 0 -8 -3 hvcurveto
          -169 -51 -125 -64 -83 hhcurveto
          -84 -88 56 142 62 25 157 80 110 -20 callgsubr
          endchar
        </CharString>
        <CharString name="Ccircumflex">
          127 callsubr
          142 callsubr
          vstemhm
          -67 callgsubr
          -30 317 -102 callgsubr
          endchar
        </CharString>
        <CharString name="Cdotaccent">
          127 callsubr
          53 106 142 callsubr
          hintmask 11010000
          -67 callgsubr
          hintmask 00100000
          -98 383 -95 callsubr
          endchar
        </CharString>
        <CharString name="Chi">
          -49 callsubr
        </CharString>
        <CharString name="D">
          86 0 31 621 31 hstem
          692 83 vstem
          -60 callsubr
          endchar
        </CharString>
        <CharString name="Dcaron">
          86 16 callgsubr
          hstemhm
          692 83 vstemhm
          -60 callsubr
          -26 360 -71 callgsubr
        </CharString>
        <CharString name="Dcroat">
          -33 callgsubr
        </CharString>
        <CharString name="Ddotbelow">
          86 60 callgsubr
          692 83 hintmask 01110000
          -60 callsubr
          hintmask 10000000
          -353 -613 -95 callsubr
          endchar
        </CharString>
        <CharString name="Delta">
          149 0 69 647 -20 hstem
          71 680 vstem
          751 10 rmoveto
          3 -1 8 -1 3 vhcurveto
          -140 671 rlineto
          17 -4 0 4 -17 hhcurveto
          -9 -9 0 -16 -11 hvcurveto
          -481 -680 rlineto
          -7 -10 130 callgsubr
          -5 1 -1 20 vhcurveto
          634 hlineto
          16 9 0 10 hvcurveto
          -101 59 rmoveto
          -503 hlineto
          389 550 rlineto
          endchar
        </CharString>
        <CharString name="Dlinebelow">
          86 -162 30 132 26 callsubr
          hstemhm
          692 83 hintmask 01110000
          -60 callsubr
          hintmask 10000000
          -242 -619 -80 callgsubr
        </CharString>
        <CharString name="E">
          -29 callgsubr
          hstem
          62 683 vstem
          -106 callgsubr
          endchar
        </CharString>
        <CharString name="Eacute">
          -29 callgsubr
          88 -21 159 134 callsubr
          hintmask 11110010
          -106 callgsubr
          hintmask 00001100
          8 626 -104 callsubr
        </CharString>
        <CharString name="Ebreve">
          -29 callgsubr
          66 36 134 134 callsubr
          hintmask 11110010
          -106 callgsubr
          hintmask 00001100
          17 659 -84 callsubr
        </CharString>
        <CharString name="Ecaron">
          -29 callgsubr
          91 callgsubr
          vstemhm
          -106 callgsubr
          -3 589 -71 callgsubr
        </CharString>
        <CharString name="Ecircumflex">
          -29 callgsubr
          91 callgsubr
          vstemhm
          -106 callgsubr
          -23 508 -102 callgsubr
          endchar
        </CharString>
        <CharString name="Ecircumflexacute">
          -29 callgsubr
          354 134 callsubr
          hintmask 11110100
          -106 callgsubr
          hintmask 00001000
          -23 508 -102 callgsubr
          28 246 -104 callsubr
        </CharString>
        <CharString name="Ecircumflexdotbelow">
          9 -200 106 94 -23 callsubr
          91 callgsubr
          hintmask 01111100
          -106 callgsubr
          -23 508 -102 callgsubr
          hintmask 10000000
          -307 -892 -95 callsubr
          endchar
        </CharString>
        <CharString name="Ecircumflexgrave">
          -29 callgsubr
          91 callgsubr
          vstemhm
          -106 callgsubr
          -23 508 -75 callgsubr
        </CharString>
        <CharString name="Ecircumflexhookabove">
          -29 callgsubr
          384 134 callsubr
          hintmask 11110100
          -106 callgsubr
          hintmask 00001000
          -23 508 -102 callgsubr
          104 240 -107 callgsubr
        </CharString>
        <CharString name="Ecircumflextilde">
          -29 callgsubr
          215 -43 callgsubr
          62 683 hintmask 1111000010000000
          -106 callgsubr
          hintmask 0000010000000000
          -23 508 -102 callgsubr
          73 230 -6 callsubr
        </CharString>
        <CharString name="Edblgrave">
          -29 callgsubr
          87 -21 190 134 callsubr
          hintmask 11110010
          -106 callgsubr
          hintmask 00001100
          -41 514 -74 callgsubr
        </CharString>
        <CharString name="Edieresis">
          -29 callgsubr
          56 96 91 callgsubr
          hintmask 11110100
          -106 callgsubr
          hintmask 00001000
          -207 546 rmoveto
          -94 callsubr
          209 hmoveto
          -94 callsubr
          endchar
        </CharString>
        <CharString name="Edotaccent">
          -29 callgsubr
          78 106 91 callgsubr
          hintmask 11110100
          -106 callgsubr
          hintmask 00001000
          -90 574 -95 callsubr
          endchar
        </CharString>
        <CharString name="Edotbelow">
          9 -200 106 94 -23 callsubr
          91 callgsubr
          hintmask 01111100
          -106 callgsubr
          hintmask 10000000
          -330 -384 -95 callsubr
          endchar
        </CharString>
        <CharString name="Egrave">
          -29 callgsubr
          88 -21 159 134 callsubr
          hintmask 11110010
          -106 callgsubr
          hintmask 00001100
          -87 519 -77 callsubr
        </CharString>
        <CharString name="Ehookabove">
          -29 callgsubr
          99 -21 209 134 callsubr
          hintmask 11110010
          -106 callgsubr
          hintmask 00001100
          -33 651 -107 callgsubr
        </CharString>
        <CharString name="Emacron">
          -29 callgsubr
          76 30 91 callgsubr
          hintmask 11110100
          -106 callgsubr
          hintmask 00001000
          11 528 -80 callgsubr
        </CharString>
        <CharString name="Eng">
          74 -22 80 -58 26 callsubr
          -8 30 hstemhm
          hintmask 00010000
          796 342 rmoveto
          190 47 -79 173 -179 hhcurveto
          -71 -71 -34 -54 -54 hvcurveto
          hintmask 01100000
          16 66 rlineto
          -2 -14 -14 -1 -13 -41 -43 3 -41 hhcurveto
          -7 -12 0 -18 -13 7 0 20 34 29 0 -17 -3 -2 -13 -1 -3 hvcurveto
          -136 -544 rlineto
          -33 -8 -9 -8 -67 hhcurveto
          -21 -9 0 -18 -11 7 -2 7 hvcurveto
          40 42 3 41 41 43 -3 40 hhcurveto
          7 63 callgsubr
          -20 -62 0 7 11 0 0 7 4 15 hvcurveto
          123 493 rlineto
          hintmask 10010000
          66 51 75 45 77 hhcurveto
          144 21 -168 -165 -41 hvcurveto
          -34 -135 -38 -154 -90 -37 rrcurveto
          2 vlineto
          22 6 -14 18 -22 hhcurveto
          -22 -22 -18 -22 -6 hvcurveto
          -22 -5 13 -18 22 hhcurveto
          155 106 185 179 45 hvcurveto
          endchar
        </CharString>
        <CharString name="Eogonek">
          9 -211 47 164 -23 callsubr
          hstem
          -107 callsubr
          349 hlineto
          -57 -23 -41 -46 31 callgsubr
          -55 callsubr
          9 40 44 33 41 22 rrcurveto
          92 -63 callsubr
          endchar
        </CharString>
        <CharString name="Eogonekacute">
          9 -211 47 164 -23 callsubr
          88 24 callsubr
          hintmask 11111000
          -107 callsubr
          349 hlineto
          -57 -23 -41 -46 31 callgsubr
          -55 callsubr
          9 40 44 33 41 22 rrcurveto
          92 -63 callsubr
          hintmask 00000110
          8 626 -104 callsubr
        </CharString>
        <CharString name="Epsilon">
          -29 callgsubr
          hstem
          62 683 vstem
          -106 callgsubr
          endchar
        </CharString>
        <CharString name="Ereversed">
          -29 callgsubr
          hstem
          790 662 rmoveto
          18 9 -10 0 -17 hhcurveto
          -467 hlineto
          -21 -6 0 -26 -10 hvcurveto
          -66 -177 rlineto
          -18 -7 -1 -4 14 hhcurveto
          4 11 0 12 6 hvcurveto
          2 3 3 9 2 5 9 24 4 13 14 27 rrcurveto
          71 35 40 30 108 hhcurveto
          125 hlineto
          33 7 -1 -33 -9 hvcurveto
          -62 -246 rlineto
          -81 hlineto
          -81 -8 22 71 17 hvcurveto
          21 4 2 3 -13 hhcurveto
          -4 -12 0 -12 -6 hvcurveto
          0 -3 -10 -1 -3 vhcurveto
          -55 -220 rlineto
          -18 -5 2 -2 11 hhcurveto
          6 10 0 12 6 hvcurveto
          2 3 2 8 0 vvcurveto
          6 29 7 15 3 7 rrcurveto
          27 14 15 16 68 hhcurveto
          87 hlineto
          -69 -275 -2 -6 -2 -10 -3 -6 rlinecurve
          -7 -3 -2 -3 -31 hhcurveto
          -122 hlineto
          -159 -2 65 138 11 hvcurveto
          23 2 0 1 -11 hhcurveto
          -3 -12 0 -11 -6 hvcurveto
          0 -2 -10 -2 vvcurveto
          -20 -219 rlineto
          -15 -1 1 -1 20 hhcurveto
          479 hlineto
          16 9 0 12 6 hvcurveto
          19 9 -11 0 -16 hhcurveto
          -68 -2 8 34 9 hvcurveto
          134 536 rlineto
          4 15 4 8 0 vvcurveto
          9 4 4 8 58 hhcurveto
          20 7 0 13 7 hvcurveto
          endchar
        </CharString>
        <CharString name="Eta">
          57 callsubr
          hstem
          62 790 vstem
          -97 callgsubr
          endchar
        </CharString>
        <CharString name="Eth">
          -33 callgsubr
        </CharString>
        <CharString name="Etilde">
          -29 callgsubr
          56 -43 callgsubr
          62 683 hintmask 1111000010000000
          -106 callgsubr
          hintmask 0000010000000000
          11 579 -6 callsubr
        </CharString>
        <CharString name="Euro">
          -93 -22 30 263 30 82 30 262 30 hstem
          522 -12 rmoveto
          140 callsubr
          -10 hlineto
          -5 -5 -4 -5 -2 hvcurveto
          -71 -25 -61 -65 -68 hhcurveto
          -58 -37 42 52 -15 hvcurveto
          -16 52 4 58 11 59 rrcurveto
          234 hlineto
          4 5 3 4 2 hvcurveto
          6 13 rlineto
          5 3 -4 5 -6 hhcurveto
          -238 hlineto
          9 41 11 41 rlineto
          265 hlineto
          5 4 3 4 3 hvcurveto
          6 13 rlineto
          5 2 -4 5 -6 hhcurveto
          -266 hlineto
          19 59 25 57 41 52 rrcurveto
          52 42 58 42 58 hhcurveto
          68 29 -64 -72 -11 hvcurveto
          -5 -1 3 -4 6 hhcurveto
          10 hlineto
          5 6 4 6 1 hvcurveto
          140 callsubr
          -3 hlineto
          -3 -3 -1 -2 -2 hvcurveto
          -44 -41 rlineto
          27 -21 -31 17 -41 hhcurveto
          -76 -79 -45 -62 -60 hvcurveto
          -53 -55 -39 -64 -26 -66 rrcurveto
          -45 101 callgsubr
          44 hlineto
          -4 -14 -4 -14 -4 -13 -3 -14 -3 -14 -2 -13 rrcurveto
          -42 101 callgsubr
          48 hlineto
          -8 -67 7 -64 26 -54 rrcurveto
          -63 29 56 -45 76 hhcurveto
          41 40 17 27 34 hvcurveto
          24 -40 rlineto
          -3 1 2 -1 4 hhcurveto
          3 hlineto
          5 6 4 6 1 hvcurveto
          endchar
        </CharString>
        <CharString name="F">
          -16 0 31 294 31 293 31 hstem
          62 671 vstem
          707 477 rmoveto
          23 177 rlineto
          26 3 -6 0 -21 hhcurveto
          -455 2 callsubr
          63 252 rlineto
          83 hlineto
          65 9 -15 -27 -17 -4 -16 -4 -16 hvcurveto
          -2 -7 -1 -4 -3 120 callsubr
          11 3 1 19 5 vhcurveto
          55 220 rlineto
          1 4 1 5 5 55 callgsubr
          -83 hhcurveto
          -78 hlineto
          64 259 rlineto
          33 8 7 1 33 hhcurveto
          117 hlineto
          107 22 -31 -69 -24 -3 -19 -3 -23 hvcurveto
          -1 -16 rlineto
          37 callsubr
          14 1 4 18 2 vhcurveto
          endchar
        </CharString>
        <CharString name="G">
          41 callgsubr
          hstem
          150 87 vstem
          -98 callgsubr
          endchar
        </CharString>
        <CharString name="Gacute">
          41 callgsubr
          63 24 callsubr
          150 87 hintmask 11100100
          -98 callgsubr
          hintmask 00011000
          -26 613 -104 callsubr
        </CharString>
        <CharString name="Gamma">
          -42 0 31 618 31 hstem
          62 645 vstem
          681 477 rmoveto
          23 177 rlineto
          26 3 -6 0 -21 hhcurveto
          -429 2 callsubr
          135 542 rlineto
          33 8 7 1 33 hhcurveto
          96 hlineto
          110 14 -36 -60 -22 -4 -36 -2 -11 hvcurveto
          -5 -1 -12 0 vhcurveto
          37 callsubr
          14 1 4 18 2 vhcurveto
          endchar
        </CharString>
        <CharString name="Gbreve">
          41 callgsubr
          41 121 callsubr
          150 87 hintmask 11100100
          -98 callgsubr
          hintmask 00011000
          -17 646 -84 callsubr
        </CharString>
        <CharString name="Gcaron">
          41 callgsubr
          142 callsubr
          vstemhm
          -98 callgsubr
          -37 576 -71 callgsubr
        </CharString>
        <CharString name="Gcedilla">
          105 104 callsubr
          35 callsubr
          hstem
          150 87 vstem
          -98 callgsubr
          -369 -370 rmoveto
          -91 callsubr
        </CharString>
        <CharString name="Gcircumflex">
          41 callgsubr
          142 callsubr
          vstemhm
          -98 callgsubr
          -57 495 -102 callgsubr
          endchar
        </CharString>
        <CharString name="Gcommaaccent">
          105 104 callsubr
          35 callsubr
          142 callsubr
          hintmask 00111100
          -98 callgsubr
          hintmask 11000000
          -369 -370 rmoveto
          -91 callsubr
        </CharString>
        <CharString name="Gdotaccent">
          41 callgsubr
          53 106 142 callsubr
          hintmask 11101000
          -98 callgsubr
          hintmask 00010000
          -124 561 -95 callsubr
          endchar
        </CharString>
        <CharString name="H">
          57 callsubr
          hstem
          62 790 vstem
          -97 callgsubr
          endchar
        </CharString>
        <CharString name="H_uni0303">
          57 callsubr
          40 callsubr
          62 790 hintmask 11100001
          -97 callgsubr
          hintmask 00001000
          41 808 -65 callgsubr
          hintmask 00010010
          -96 callsubr
          hintmask 00000100
          -61 callsubr
          hintmask 00010010
          -86 callgsubr
        </CharString>
        <CharString name="Hbar">
          74 0 31 309 31 127 30 124 31 hstem
          62 790 vstem
          814 513 rmoveto
          8 2 -5 7 -8 hhcurveto
          -81 hlineto
          21 84 -103 callsubr
          -22 -88 141 callsubr
          21 84 -103 callsubr
          -22 -88 rlineto
          -79 58 callsubr
          6 -6 8 hhcurveto
          79 hlineto
          -106 -425 -72 callgsubr
          4 25 callgsubr
          143 callgsubr
          274 hlineto
          -66 -267 -72 callgsubr
          0 0 8 4 15 hvcurveto
          107 427 rlineto
          81 hlineto
          8 8 6 9 2 hvcurveto
          -181 -15 rmoveto
          -32 -127 141 callsubr
          32 127 rlineto
          endchar
        </CharString>
        <CharString name="Hbrevebelow">
          74 -232 113 callgsubr
          82 74 callsubr
          hstemhm
          62 790 hintmask 00111100
          -97 callgsubr
          hintmask 11000000
          -197 -90 -84 callsubr
        </CharString>
        <CharString name="Hcircumflex">
          57 callsubr
          hstemhm
          62 790 vstemhm
          -97 callgsubr
          7 737 -102 callgsubr
          endchar
        </CharString>
        <CharString name="Hdieresis">
          57 callsubr
          53 96 hstemhm
          62 790 hintmask 11101000
          -97 callgsubr
          hintmask 00010000
          -177 775 rmoveto
          -94 callsubr
          209 hmoveto
          -94 callsubr
          endchar
        </CharString>
        <CharString name="Hdotbelow">
          74 -200 106 94 74 callsubr
          hstemhm
          62 790 hintmask 01111000
          -97 callgsubr
          hintmask 10000000
          -300 -155 -95 callsubr
          endchar
        </CharString>
        <CharString name="I">
          11 callsubr
          hstem
          57 444 vstem
          -102 callsubr
          7 13 37 callgsubr
        </CharString>
        <CharString name="I_J">
          203 -22 22 0 31 34 98 489 31 hstemhm
          57 444 -163 103 0 103 hintmask 01011000
          -102 callsubr
          hintmask 10110100
          137 callsubr
          hvcurveto
          631 652 rmoveto
          9 -6 3 -8 vhcurveto
          -33 -36 -3 -34 -45 -47 3 -44 hhcurveto
          -9 -12 -44 callsubr
          9 0 16 hvcurveto
          12 hlineto
          17 11 0 -2 18 hvcurveto
          22 -3 8 -1 -15 vvcurveto
          -4 0 -2 -4 -14 vhcurveto
          -116 -466 rlineto
          -75 -19 -57 -70 -55 hhcurveto
          -41 -35 25 41 -8 hvcurveto
          -1 2 2 0 7 hhcurveto
          hintmask 10110010
          38 22 34 25 26 -20 13 -21 -3 -59 0 -77 -68 54 -40 64 94 92 75 91 22 hvcurveto
          117 472 rlineto
          28 7 7 8 45 hhcurveto
          15 11 37 callgsubr
        </CharString>
        <CharString name="Iacute">
          11 callsubr
          47 callgsubr
          57 444 hintmask 11001000
          -102 callsubr
          137 callsubr
          hvcurveto
          hintmask 00110000
          210 854 -104 callsubr
        </CharString>
        <CharString name="Ibreve">
          11 callsubr
          63 121 callsubr
          57 444 hintmask 11001000
          -102 callsubr
          137 callsubr
          hvcurveto
          hintmask 00110000
          219 887 -84 callsubr
        </CharString>
        <CharString name="Icaron">
          11 callsubr
          hstemhm
          57 444 vstemhm
          -102 callsubr
          137 callsubr
          hvcurveto
          199 817 -71 callgsubr
        </CharString>
        <CharString name="Icircumflex">
          11 callsubr
          hstemhm
          57 444 vstemhm
          -102 callsubr
          137 callsubr
          hvcurveto
          179 736 -102 callgsubr
          endchar
        </CharString>
        <CharString name="Idblgrave">
          11 callsubr
          84 90 callgsubr
          57 444 hintmask 11001000
          -102 callsubr
          137 callsubr
          hvcurveto
          hintmask 00110000
          161 742 -74 callgsubr
        </CharString>
        <CharString name="Idieresis">
          11 callsubr
          53 96 hstemhm
          57 444 hintmask 11010000
          -102 callsubr
          137 callsubr
          hvcurveto
          hintmask 00100000
          -5 774 rmoveto
          -94 callsubr
          209 hmoveto
          -94 callsubr
          endchar
        </CharString>
        <CharString name="Idieresisacute">
          11 callsubr
          53 96 84 24 callsubr
          57 444 hintmask 11000100
          -102 callsubr
          137 callsubr
          hvcurveto
          hintmask 00111000
          -5 774 rmoveto
          -94 callsubr
          209 hmoveto
          -94 callsubr
          43 228 -104 callsubr
        </CharString>
        <CharString name="Idotaccent">
          11 callsubr
          75 106 hstemhm
          57 444 hintmask 11010000
          -102 callsubr
          137 callsubr
          hvcurveto
          hintmask 00100000
          112 802 -95 callsubr
          endchar
        </CharString>
        <CharString name="Idotbelow">
          -283 60 callgsubr
          57 444 hintmask 01110000
          -102 callsubr
          137 callsubr
          hvcurveto
          hintmask 10000000
          -128 -156 -95 callsubr
          endchar
        </CharString>
        <CharString name="Igrave">
          11 callsubr
          47 callgsubr
          57 444 hintmask 11001000
          -102 callsubr
          137 callsubr
          hvcurveto
          hintmask 00110000
          115 747 -77 callsubr
        </CharString>
        <CharString name="Ihookabove">
          11 callsubr
          96 109 callsubr
          57 444 hintmask 11001000
          -102 callsubr
          137 callsubr
          hvcurveto
          hintmask 00110000
          170 879 -107 callgsubr
        </CharString>
        <CharString name="Imacron">
          11 callsubr
          73 30 hstemhm
          57 444 hintmask 11010000
          -102 callsubr
          137 callsubr
          hvcurveto
          hintmask 00100000
          213 756 -80 callgsubr
        </CharString>
        <CharString name="Imacron.alt">
          11 callsubr
          73 30 hstemhm
          57 444 hintmask 11010000
          -102 callsubr
          137 callsubr
          hvcurveto
          hintmask 00100000
          140 756 50 callsubr
        </CharString>
        <CharString name="Iogonek">
          -283 -211 47 164 26 callsubr
          hstem
          57 444 vstem
          -26 callgsubr
          endchar
        </CharString>
        <CharString name="Iogonekacute">
          -283 -211 47 164 26 callsubr
          47 callgsubr
          57 444 hintmask 11100100
          -26 callgsubr
          hintmask 00011000
          243 988 -104 callsubr
        </CharString>
        <CharString name="Iota">
          11 callsubr
          hstem
          57 444 vstem
          -102 callsubr
          7 13 37 callgsubr
        </CharString>
        <CharString name="Itilde">
          -283 67 callgsubr
          57 444 hintmask 11000010
          -102 callsubr
          137 callsubr
          hvcurveto
          hintmask 00010000
          213 807 -97 callsubr
        </CharString>
        <CharString name="J">
          103 callsubr
          hstem
          94 103 vstem
          -57 callsubr
          endchar
        </CharString>
        <CharString name="J_uni030C.cap">
          -144 -22 22 65 98 317 -21 145 79 -31 31 hstemhm
          94 103 hintmask 11001100
          -57 callsubr
          110 -32 21 callgsubr
        </CharString>
        <CharString name="Jacute">
          103 callsubr
          47 callgsubr
          94 103 hintmask 11100100
          -57 callsubr
          hintmask 00011000
          52 202 -104 callsubr
        </CharString>
        <CharString name="Jcircumflex">
          103 callsubr
          hstemhm
          94 103 vstemhm
          -57 callsubr
          21 84 -102 callgsubr
          endchar
        </CharString>
        <CharString name="K">
          100 16 callgsubr
          hstem
          62 797 vstem
          -79 callgsubr
          endchar
        </CharString>
        <CharString name="Kappa">
          100 16 callgsubr
          hstem
          62 797 vstem
          -79 callgsubr
          endchar
        </CharString>
        <CharString name="Kcedilla">
          100 86 callsubr
          hstem
          62 797 vstem
          -79 callgsubr
          -312 -129 rmoveto
          -91 callsubr
        </CharString>
        <CharString name="Kcommaaccent">
          100 71 callsubr
          797 hintmask 00111000
          -79 callgsubr
          hintmask 11000000
          -312 -129 rmoveto
          -91 callsubr
        </CharString>
        <CharString name="L">
          -42 16 callgsubr
          hstem
          62 562 vstem
          -90 callgsubr
          endchar
        </CharString>
        <CharString name="L_uni0303">
          -42 67 callgsubr
          62 562 hintmask 11000010
          -90 callgsubr
          hintmask 00010000
          -64 593 -97 callsubr
        </CharString>
        <CharString name="Lacute">
          -42 16 callgsubr
          47 callgsubr
          62 562 hintmask 11001000
          -90 callgsubr
          hintmask 00110000
          -67 640 -104 callsubr
        </CharString>
        <CharString name="Lambda">
          23 0 31 685 -20 hstem
          58 584 vstem
          642 20 rmoveto
          11 -12 0 -9 -48 -1 7 29 -1 vhcurveto
          -29 626 rlineto
          18 -1 0 5 -17 hhcurveto
          -7 -9 0 -17 -9 hvcurveto
          -319 -586 -38 -70 -36 -9 -28 -3 rlinecurve
          -11 -1 -9 -1 -17 vvcurveto
          -7 6 -5 6 vhcurveto
          23 25 3 24 30 33 -3 29 hhcurveto
          5 13 0 19 11 -8 0 -8 1 hvcurveto
          -30 2 -13 16 17 vvcurveto
          13 9 15 4 8 vhcurveto
          257 471 23 -495 1 -21 1 -25 -69 -1 rlinecurve
          -11 -12 119 callgsubr
          40 3 38 33 34 -3 32 hhcurveto
          8 10 3 17 hvcurveto
          endchar
        </CharString>
        <CharString name="Lcaron">
          -42 0 31 449 -21 145 79 -31 31 hstemhm
          62 562 hintmask 10011000
          -90 callgsubr
          27 406 22 callgsubr
        </CharString>
        <CharString name="Lcedilla">
          -42 86 callsubr
          hstem
          62 562 vstem
          -90 callgsubr
          -294 -343 rmoveto
          -91 callsubr
        </CharString>
        <CharString name="Lcommaaccent">
          -42 71 callsubr
          562 hintmask 00111000
          -90 callgsubr
          hintmask 11000000
          -294 -343 rmoveto
          -91 callsubr
        </CharString>
        <CharString name="Ldot">
          -42 0 31 324 106 191 31 hstem
          62 562 vstem
          -90 callgsubr
          44 185 -95 callsubr
          endchar
        </CharString>
        <CharString name="Ldotbelow">
          -42 60 callgsubr
          62 562 hintmask 01110000
          -90 callgsubr
          hintmask 10000000
          -289 -370 -95 callsubr
          endchar
        </CharString>
        <CharString name="Ldotbelowmacron">
          -42 53 callgsubr
          73 30 hstemhm
          62 562 hintmask 11101000
          -90 callgsubr
          -289 -370 -95 callsubr
          hintmask 00010000
          233 912 -80 callgsubr
        </CharString>
        <CharString name="Lslash">
          -42 16 callgsubr
          hstem
          225 295 vstem
          624 246 rmoveto
          12 24 callgsubr
          -19 -7 vhcurveto
          -89 -32 -43 -116 -156 hhcurveto
          -81 -35 callgsubr
          2 10 2 6 hvcurveto
          80 317 165 131 -20 26 -133 -105 44 175 rlineto
          -41 callsubr
          -41 -42 3 -40 hhcurveto
          -6 -13 -42 callsubr
          31 27 0 -17 -3 -1 -2 -3 -14 hvcurveto
          -66 -266 -102 -80 22 -25 67 54 -56 -226 rlineto
          -35 -9 -5 -7 -40 callgsubr
          9 0 16 hvcurveto
          428 hlineto
          22 1 1 17 6 hvcurveto
          76 215 rlineto
          endchar
        </CharString>
        <CharString name="M">
          228 16 callgsubr
          hstem
          66 936 vstem
          -66 callgsubr
          endchar
        </CharString>
        <CharString name="Mdotbelow">
          228 60 callgsubr
          66 936 hintmask 01110000
          -66 callgsubr
          hintmask 10000000
          -373 -155 -95 callsubr
          endchar
        </CharString>
        <CharString name="Mu">
          228 16 callgsubr
          hstem
          66 936 vstem
          -66 callgsubr
          endchar
        </CharString>
        <CharString name="N">
          95 callsubr
          hstem
          62 790 vstem
          -100 callsubr
          endchar
        </CharString>
        <CharString name="Nacute">
          95 callsubr
          47 callgsubr
          62 790 hintmask 11001000
          -100 callsubr
          hintmask 00110000
          -125 203 -104 callsubr
        </CharString>
        <CharString name="Ncaron">
          95 callsubr
          hstemhm
          62 790 vstemhm
          -100 callsubr
          -136 166 -71 callgsubr
        </CharString>
        <CharString name="Ncedilla">
          74 86 callsubr
          hstem
          62 790 vstem
          -100 callsubr
          -468 -780 rmoveto
          -91 callsubr
        </CharString>
        <CharString name="Ncommaaccent">
          74 71 callsubr
          790 hintmask 00111000
          -100 callsubr
          hintmask 11000000
          -468 -780 rmoveto
          -91 callsubr
        </CharString>
        <CharString name="Ndotaccent">
          95 callsubr
          53 106 hstemhm
          62 790 hintmask 11010000
          -100 callsubr
          hintmask 00100000
          -228 129 -95 callsubr
          endchar
        </CharString>
        <CharString name="Ndotbelow">
          74 60 callgsubr
          62 790 hintmask 01110000
          -100 callsubr
          hintmask 10000000
          -463 -807 -95 callsubr
          endchar
        </CharString>
        <CharString name="Ntilde">
          74 67 callgsubr
          62 790 hintmask 11000010
          -100 callsubr
          hintmask 00010000
          -122 156 -97 callsubr
        </CharString>
        <CharString name="Nu">
          95 callsubr
          hstem
          62 790 vstem
          -100 callsubr
          endchar
        </CharString>
        <CharString name="O">
          11 callgsubr
          hstem
          5 callgsubr
          vstem
          -99 callgsubr
          endchar
        </CharString>
        <CharString name="OE">
          -51 callgsubr
        </CharString>
        <CharString name="OE.dup">
          -51 callgsubr
        </CharString>
        <CharString name="Oacute">
          11 callgsubr
          63 -21 159 93 callgsubr
          hintmask 11001100
          -99 callgsubr
          hintmask 00110000
          36 387 -104 callsubr
        </CharString>
        <CharString name="Obreve">
          11 callgsubr
          41 36 134 93 callgsubr
          hintmask 11001100
          -99 callgsubr
          hintmask 00110000
          45 420 -84 callsubr
        </CharString>
        <CharString name="Ocaron">
          11 callgsubr
          10 callsubr
          vstemhm
          -99 callgsubr
          25 350 -71 callgsubr
        </CharString>
        <CharString name="Ocircumflex">
          11 callgsubr
          10 callsubr
          vstemhm
          -99 callgsubr
          5 269 -102 callgsubr
          endchar
        </CharString>
        <CharString name="Ocircumflexacute">
          11 callgsubr
          329 93 callgsubr
          hintmask 11011000
          -99 callgsubr
          hintmask 00100000
          5 269 -102 callgsubr
          28 246 -104 callsubr
        </CharString>
        <CharString name="Ocircumflexdotbelow">
          98 -200 106 72 26 676 25 10 callsubr
          hintmask 01111000
          -99 callgsubr
          5 269 -102 callgsubr
          hintmask 10000000
          -307 -892 -95 callsubr
          endchar
        </CharString>
        <CharString name="Ocircumflexgrave">
          11 callgsubr
          10 callsubr
          vstemhm
          -99 callgsubr
          5 269 -75 callgsubr
        </CharString>
        <CharString name="Ocircumflexhookabove">
          11 callgsubr
          359 93 callgsubr
          hintmask 11011000
          -99 callgsubr
          hintmask 00100000
          5 269 -102 callgsubr
          104 240 -107 callgsubr
        </CharString>
        <CharString name="Ocircumflextilde">
          11 callgsubr
          190 -43 callgsubr
          148 90 465 85 hintmask 11000011
          -99 callgsubr
          hintmask 00010000
          5 269 -102 callgsubr
          73 230 -97 callsubr
        </CharString>
        <CharString name="Odblgrave">
          11 callgsubr
          62 -21 190 93 callgsubr
          hintmask 11001100
          -99 callgsubr
          hintmask 00110000
          -13 275 -74 callgsubr
        </CharString>
        <CharString name="Odieresis">
          11 callgsubr
          31 96 10 callsubr
          hintmask 11011000
          -99 callgsubr
          hintmask 00100000
          -179 307 rmoveto
          -94 callsubr
          209 hmoveto
          -94 callsubr
          endchar
        </CharString>
        <CharString name="Odotbelow">
          98 -200 106 72 26 676 25 10 callsubr
          hintmask 01111000
          -99 callgsubr
          hintmask 10000000
          -302 -623 -95 callsubr
          endchar
        </CharString>
        <CharString name="Ograve">
          11 callgsubr
          63 -21 159 93 callgsubr
          hintmask 11001100
          -99 callgsubr
          hintmask 00110000
          -59 280 -77 callsubr
        </CharString>
        <CharString name="Ohookabove">
          11 callgsubr
          74 -21 209 93 callgsubr
          hintmask 11001100
          -99 callgsubr
          hintmask 00110000
          -5 412 -107 callgsubr
        </CharString>
        <CharString name="Ohorn">
          98 -22 26 676 109 hstem
          148 90 463 85 vstem
          -89 callgsubr
          endchar
        </CharString>
        <CharString name="Ohornacute">
          98 -22 26 676 109 117 -20 hstemhm
          148 90 463 85 hintmask 11011000
          -89 callgsubr
          hintmask 00100000
          31 518 -104 callsubr
        </CharString>
        <CharString name="Ohorndotbelow">
          98 -200 106 72 26 676 109 hstemhm
          148 90 463 85 hintmask 01111000
          -89 callgsubr
          hintmask 10000000
          -281 -492 -95 callsubr
          endchar
        </CharString>
        <CharString name="Ohorngrave">
          98 -22 26 676 109 117 -20 hstemhm
          148 90 463 85 hintmask 11011000
          -89 callgsubr
          hintmask 00100000
          -38 411 -77 callsubr
        </CharString>
        <CharString name="Ohornhookabove">
          98 -22 26 676 109 178 -20 hstemhm
          148 90 463 85 hintmask 11011000
          -89 callgsubr
          hintmask 01100000
          16 543 -107 callgsubr
        </CharString>
        <CharString name="Ohorntilde">
          98 -22 26 676 109 -53 -43 callgsubr
          148 90 463 85 hintmask 11000011
          -89 callgsubr
          hintmask 00010000
          60 471 -97 callsubr
        </CharString>
        <CharString name="Ohungarumlaut">
          11 callgsubr
          62 -21 190 93 callgsubr
          hintmask 11001100
          -99 callgsubr
          hintmask 00110000
          -92 423 -76 callgsubr
        </CharString>
        <CharString name="Omacron">
          11 callgsubr
          51 30 10 callsubr
          hintmask 11011000
          -99 callgsubr
          hintmask 00100000
          39 289 -80 callgsubr
        </CharString>
        <CharString name="Omega">
          -42 callgsubr
        </CharString>
        <CharString name="Omicron">
          11 callgsubr
          hstem
          5 callgsubr
          vstem
          -99 callgsubr
          endchar
        </CharString>
        <CharString name="Oogonek">
          11 callgsubr
          hstem
          5 callgsubr
          vstem
          13 callsubr
          164 -102 97 -126 -205 -207 -237 -232 -136 76 -100 114 -19 vhcurveto
          -37 -29 -31 -35 -8 -38 rrcurveto
          -38 callsubr
          -55 callsubr
          6 89 callsubr
          6 5 rcurveline
          4 hlineto
          200 210 225 241 hvcurveto
          -85 callsubr
          endchar
        </CharString>
        <CharString name="Oogonekacute">
          11 callgsubr
          63 -21 159 93 callgsubr
          hintmask 11001100
          13 callsubr
          164 -102 97 -126 -205 -207 -237 -232 -136 76 -100 114 -19 vhcurveto
          -37 -29 -31 -35 -8 -38 rrcurveto
          -38 callsubr
          -55 callsubr
          6 89 callsubr
          6 5 rcurveline
          4 hlineto
          200 210 225 241 hvcurveto
          -85 callsubr
          hintmask 00110000
          36 387 -104 callsubr
        </CharString>
        <CharString name="Orogate">
          98 5 callgsubr
          vstem
          13 callsubr
          159 -96 97 -121 5 vhcurveto
          40 162 rlineto
          6 -5 5 -17 -9 vhcurveto
          -41 -164 rlineto
          -201 -9 -199 -233 -227 vvcurveto
          -147 89 -105 129 -6 vhcurveto
          -40 -161 rlineto
          -7 5 -4 17 8 vhcurveto
          41 164 rlineto
          197 8 202 221 237 vvcurveto
          -85 callsubr
          endchar
        </CharString>
        <CharString name="Oslash">
          98 callgsubr
          hstem
          148 73 495 72 vstem
          -58 callsubr
          endchar
        </CharString>
        <CharString name="Oslash.dup">
          98 callgsubr
          hstem
          148 73 495 72 vstem
          -58 callsubr
          endchar
        </CharString>
        <CharString name="Oslashacute">
          98 callgsubr
          45 24 callsubr
          148 73 495 72 hintmask 11110011
          -58 callsubr
          hintmask 00001100
          23 386 -104 callsubr
        </CharString>
        <CharString name="Otilde">
          11 callgsubr
          31 -43 callgsubr
          148 90 465 85 hintmask 11000011
          -99 callgsubr
          hintmask 00010000
          39 340 -97 callsubr
        </CharString>
        <CharString name="P">
          -26 callsubr
        </CharString>
        <CharString name="Phi">
          47 16 callgsubr
          hstem
          158 86 398 87 vstem
          729 379 rmoveto
          84 -72 73 -126 12 vhcurveto
          7 29 11 48 7 9 rrcurveto
          18 13 42 0 30 hhcurveto
          10 hlineto
          17 82 callsubr
          -4 hvcurveto
          -45 -47 -3 -46 -46 -48 3 -46 hhcurveto
          -8 -12 -44 callsubr
          9 0 16 hvcurveto
          10 hlineto
          15 16 0 -2 15 hvcurveto
          23 -3 4 -2 -14 vvcurveto
          -5 0 -2 -9 -36 vhcurveto
          -10 -40 rlineto
          -168 -18 -129 -113 -113 vvcurveto
          -91 80 -66 113 -12 vhcurveto
          -8 -31 5 17 -8 -31 rrcurveto
          -52 -13 -2 -7 -85 29 callgsubr
          154 11 148 111 122 vvcurveto
          -280 146 rmoveto
          -92 -367 rlineto
          -66 11 -47 36 72 vvcurveto
          8 0 208 205 32 vhcurveto
          193 -120 rmoveto
          -24 -8 -198 -201 -26 vhcurveto
          92 369 rlineto
          117 -17 0 -81 -23 vvcurveto
          endchar
        </CharString>
        <CharString name="Pi">
          74 0 31 618 31 hstem
          62 789 vstem
          689 -22 callsubr
          134 536 rlineto
          34 8 6 8 68 hhcurveto
          16 11 75 callgsubr
          -575 43 callsubr
          -18 -13 7 0 20 58 0 -8 -9 0 0 -8 -4 -15 hvcurveto
          -134 -536 -72 callgsubr
          0 0 8 4 15 hvcurveto
          145 578 rlineto
          274 hlineto
          -144 -576 -40 callsubr
          endchar
        </CharString>
        <CharString name="Psi">
          98 0 31 103 26 363 31 98 31 hstem
          231 71 vstem
          825 543 rmoveto
          11 -10 0 -15 vhcurveto
          -29 hlineto
          -68 -25 -48 -106 -29 hvcurveto
          -27 -104 -55 -107 -108 -28 111 446 rcurveline
          -41 callsubr
          -46 -48 3 -46 hhcurveto
          -8 -12 -44 callsubr
          9 0 16 hvcurveto
          10 hlineto
          15 16 0 -2 15 hvcurveto
          23 -3 4 -2 -14 vvcurveto
          -4 0 -2 -4 -14 vhcurveto
          -113 -451 rlineto
          -59 17 -21 51 65 vvcurveto
          27 6 42 10 41 vhcurveto
          5 18 8 34 29 vvcurveto
          70 -42 0 -22 vhcurveto
          -29 hlineto
          -16 -9 0 -11 -10 9 -1 4 hvcurveto
          11 -1 19 -3 -44 vvcurveto
          0 0 -26 -11 -46 vhcurveto
          -11 -44 -3 -30 -25 vvcurveto
          -105 54 -58 91 -14 vhcurveto
          -7 -29 -11 -47 -6 -10 rrcurveto
          -9 -7 -6 -10 -74 29 callgsubr
          167 20 76 132 29 107 17 63 17 67 53 8 rrcurveto
          7 1 7 1 9 vvcurveto
          endchar
        </CharString>
        <CharString name="Q">
          98 -194 94 78 25 123 22 532 25 hstem
          148 85 89 22 360 84 vstem
          695 -1 rmoveto
          7 -5 5 -6 -8 -2 -6 -7 -2 vhcurveto
          -70 -23 -50 -28 -37 hhcurveto
          -34 -24 15 91 -2 hvcurveto
          165 72 121 187 179 vvcurveto
          164 -102 97 -126 -205 -207 -237 -232 -151 94 -107 136 35 35 8 7 21 vhcurveto
          -8 -52 -2 -29 -14 vvcurveto
          -55 21 -37 58 116 41 193 0 vhcurveto
          9 481 rmoveto
          -88 -44 -248 -161 -102 vhcurveto
          32 -2 -6 74 -72 hhcurveto
          -55 -42 -57 -48 -16 3 -7 2 -5 hvcurveto
          -71 33 -23 82 72 vvcurveto
          64 25 151 75 115 vhcurveto
          93 61 85 55 74 hhcurveto
          92 59 -81 -119 hvcurveto
          -231 -454 rmoveto
          -12 -24 -32 -11 -32 hhcurveto
          -11 -30 0 40 36 32 47 44 54 0 -46 -26 -8 0 -12 -1 -8 hvcurveto
          endchar
        </CharString>
        <CharString name="R">
          60 -22 4 callgsubr
          hintmask 10011100
          -79 callsubr
          hintmask 01101000
          -75 callsubr
          hintmask 10110100
          -63 callgsubr
          endchar
        </CharString>
        <CharString name="Racute">
          85 callsubr
          47 callgsubr
          485 109 34 90 hintmask 10010011
          -79 callsubr
          hintmask 01100010
          -75 callsubr
          hintmask 10110001
          -63 callgsubr
          hintmask 00001100
          92 315 -104 callsubr
        </CharString>
        <CharString name="Rcaron">
          60 -22 4 callgsubr
          hintmask 10011100
          -79 callsubr
          hintmask 01101000
          -75 callsubr
          hintmask 10110100
          -63 callgsubr
          hintmask 00000000
          81 278 -71 callgsubr
        </CharString>
        <CharString name="Rcedilla">
          60 104 callsubr
          4 callgsubr
          hintmask 00100111
          -79 callsubr
          hintmask 00011010
          -75 callsubr
          hintmask 11101101
          -63 callgsubr
          -251 -668 rmoveto
          -91 callsubr
        </CharString>
        <CharString name="Rcommaaccent">
          60 104 callsubr
          4 callgsubr
          hintmask 00100111
          -79 callsubr
          hintmask 00011010
          -75 callsubr
          hintmask 00101101
          -63 callgsubr
          hintmask 11000000
          -251 -668 rmoveto
          -91 callsubr
        </CharString>
        <CharString name="Rdblgrave">
          85 callsubr
          84 90 callgsubr
          485 109 34 90 hintmask 10010011
          -79 callsubr
          hintmask 01100010
          -75 callsubr
          hintmask 10110001
          -63 callgsubr
          hintmask 00001100
          18 203 -74 callgsubr
        </CharString>
        <CharString name="Rdotaccent">
          85 callsubr
          75 106 hstemhm
          485 109 34 90 hintmask 10010110
          -79 callsubr
          hintmask 01100100
          -75 callsubr
          hintmask 10110010
          -63 callgsubr
          hintmask 00001000
          -6 263 -95 callsubr
          endchar
        </CharString>
        <CharString name="Rdotbelow">
          60 -200 106 72 4 callgsubr
          hintmask 01001110
          -79 callsubr
          hintmask 00110100
          -75 callsubr
          hintmask 01011010
          -63 callgsubr
          hintmask 10000000
          -246 -695 -95 callsubr
          endchar
        </CharString>
        <CharString name="Rdotbelowmacron">
          60 -200 106 72 22 0 31 300 22 299 31 73 30 hstemhm
          485 109 34 90 hintmask 01001011
          -79 callsubr
          hintmask 00110010
          -75 callsubr
          hintmask 11011001
          -63 callgsubr
          -246 -695 -95 callsubr
          hintmask 00000100
          341 912 -80 callgsubr
        </CharString>
        <CharString name="Rho">
          -26 callsubr
        </CharString>
        <CharString name="S">
          -107 -22 31 668 28 hstem
          107 callgsubr
          vstem
          538 238 rmoveto
          -101 callsubr
          rrcurveto
          -54 37 64 -15 52 hhcurveto
          126 111 134 126 hvcurveto
          endchar
        </CharString>
        <CharString name="S_S">
          455 -22 31 668 28 hstem
          107 callgsubr
          223 137 callgsubr
          vstem
          538 238 rmoveto
          -101 callsubr
          rrcurveto
          -54 37 64 -15 52 hhcurveto
          126 111 134 126 hvcurveto
          562 hmoveto
          -101 callsubr
          rrcurveto
          -54 37 64 -15 52 hhcurveto
          126 111 134 126 hvcurveto
          endchar
        </CharString>
        <CharString name="Sacute">
          -107 -22 31 668 28 63 24 callsubr
          107 callgsubr
          hintmask 11001100
          538 238 rmoveto
          -101 callsubr
          rrcurveto
          -54 37 64 -15 52 hhcurveto
          126 111 134 126 hvcurveto
          hintmask 00110000
          99 635 -104 callsubr
        </CharString>
        <CharString name="Scaron">
          -107 -22 56 callgsubr
          vstemhm
          538 238 rmoveto
          -101 callsubr
          rrcurveto
          -54 37 64 -15 52 hhcurveto
          126 111 134 126 hvcurveto
          88 598 -71 callgsubr
        </CharString>
        <CharString name="Scedilla">
          -107 -22 31 668 28 hstem
          107 callgsubr
          vstem
          538 238 rmoveto
          -101 callsubr
          24 -35 36 -19 37 -9 rrcurveto
          -5 -17 -6 -24 -3 -48 callgsubr
          26 -19 21 -42 8 hvcurveto
          8 34 rlineto
          123 5 107 131 124 vvcurveto
          endchar
        </CharString>
        <CharString name="Scircumflex">
          -107 -22 56 callgsubr
          vstemhm
          538 238 rmoveto
          -101 callsubr
          rrcurveto
          -54 37 64 -15 52 hhcurveto
          126 111 134 126 hvcurveto
          68 517 -102 callgsubr
          endchar
        </CharString>
        <CharString name="Sdotbelow">
          -107 -200 106 72 56 callgsubr
          hintmask 01111000
          538 238 rmoveto
          -101 callsubr
          rrcurveto
          -54 37 64 -15 52 hhcurveto
          126 111 134 126 hvcurveto
          hintmask 10000000
          -239 -375 -95 callsubr
          endchar
        </CharString>
        <CharString name="Sigma">
          47 0 41 611 31 hstem
          80 704 vstem
          695 224 rmoveto
          11 -11 0 -5 -4 -4 0 -3 -3 vhcurveto
          -2 -1 0 -2 -8 -20 rrcurveto
          -137 -54 -57 -31 -153 hhcurveto
          -245 hlineto
          298 285 8 8 1 1 3 5 rlinecurve
          -119 312 rlineto
          218 hlineto
          131 42 -25 -91 -20 -5 -35 0 hvcurveto
          -3 -1 -8 0 vhcurveto
          -12 12 0 4 14 1 5 74 callgsubr
          25 3 -7 0 -20 hhcurveto
          -486 hlineto
          -17 -11 0 -19 0 0 -6 5 -12 hvcurveto
          133 -342 -291 -278 rlineto
          -10 -9 0 -6 0 vvcurveto
          -11 9 0 16 vhcurveto
          486 hlineto
          21 1 1 15 6 hvcurveto
          71 193 rlineto
          5 11 0 4 0 vvcurveto
          endchar
        </CharString>
        <CharString name="T">
          108 callsubr
          hstem
          135 callsubr
          vstem
          -99 callsubr
          endchar
        </CharString>
        <CharString name="T_uni0303">
          108 callsubr
          59 -43 callgsubr
          175 631 hintmask 11000010
          -99 callsubr
          hintmask 00010000
          -59 353 -97 callsubr
        </CharString>
        <CharString name="T_uni0308">
          108 callsubr
          59 96 134 callgsubr
          hintmask 11010000
          -99 callsubr
          hintmask 00100000
          -277 320 rmoveto
          -94 callsubr
          209 hmoveto
          -94 callsubr
          endchar
        </CharString>
        <CharString name="Tau">
          108 callsubr
          hstem
          135 callsubr
          vstem
          -99 callsubr
          endchar
        </CharString>
        <CharString name="Tcaron">
          47 0 80 callsubr
          vstemhm
          -99 callsubr
          -73 363 -71 callgsubr
        </CharString>
        <CharString name="Tcedilla">
          108 callsubr
          hstem
          135 callsubr
          vstem
          775 473 rmoveto
          30 179 rlineto
          1 4 0 5 4 vvcurveto
          136 callgsubr
          vhcurveto
          -513 hlineto
          -20 -3 0 -18 -6 hvcurveto
          -59 -179 rlineto
          -5 -13 0 -4 0 42 callgsubr
          4 4 0 3 3 vhcurveto
          2 2 1 1 10 26 rrcurveto
          141 47 28 21 129 hhcurveto
          34 hlineto
          23 0 -4 -7 -7 -2 -9 -2 -6 hvcurveto
          -134 -537 rlineto
          -35 -9 -9 -10 -88 hhcurveto
          -16 15 callsubr
          12 0 5 hvcurveto
          122 3 rlineto
          -3 -12 -11 -45 32 callsubr
          26 -19 21 -42 8 hvcurveto
          13 57 125 -3 rlineto
          9 12 0 20 11 -10 0 -15 hvcurveto
          -15 hlineto
          -16 -31 2 -3 hhcurveto
          -28 3 -5 4 14 vvcurveto
          3 0 2 4 14 vhcurveto
          134 538 7 30 8 2 8 1 rlinecurve
          2 8 27 0 17 hhcurveto
          104 23 -14 -62 -12 0 -19 -10 -59 hvcurveto
          -2 -11 130 callgsubr
          -13 136 callsubr
          2 3 18 3 vhcurveto
          endchar
        </CharString>
        <CharString name="Tdotbelow">
          47 -200 106 94 80 callsubr
          hintmask 01110000
          -99 callsubr
          hintmask 10000000
          -400 -610 -95 callsubr
          endchar
        </CharString>
        <CharString name="Theta">
          98 -22 23 306 70 306 22 hstem
          148 82 477 81 vstem
          13 callsubr
          164 -102 97 -126 -205 -207 -237 -232 -151 94 -107 136 200 210 225 241 vhcurveto
          -81 36 rmoveto
          -72 -28 -154 -73 -107 vhcurveto
          -98 -67 -85 -48 -70 hhcurveto
          -92 -62 79 122 60 21 147 79 123 hvcurveto
          84 54 87 67 83 hhcurveto
          95 58 -85 -118 hvcurveto
          -60 -94 rmoveto
          1 5 2 5 3 vvcurveto
          3 -2 9 -14 -19 -2 -34 0 vhcurveto
          -270 hlineto
          1 5 4 12 5 vvcurveto
          3 -2 9 -14 -13 -1 -6 -12 -3 vhcurveto
          -24 -95 rlineto
          -1 -5 -2 -5 -3 vvcurveto
          -3 2 -9 14 19 2 34 0 vhcurveto
          270 hlineto
          -1 -5 -4 -12 -5 vvcurveto
          -3 2 -9 14 13 1 6 12 3 vhcurveto
          endchar
        </CharString>
        <CharString name="Thorn">
          -42 0 31 147 31 313 31 99 31 hstem
          556 91 vstem
          647 409 rmoveto
          49 -25 95 -136 vhcurveto
          -117 hlineto
          6 26 10 40 4 11 rrcurveto
          13 6 7 9 57 hhcurveto
          24 9 0 19 12 -11 0 -4 hvcurveto
          -114 -3 -117 3 rlineto
          -7 -12 -27 callsubr
          20 57 0 -8 -9 -7 -3 -10 -1 -5 hvcurveto
          -135 -539 rlineto
          -34 -8 -3 -9 -71 hhcurveto
          -17 -10 0 -19 -10 8 -2 6 hvcurveto
          115 3 117 -3 rlineto
          6 63 callgsubr
          -20 -57 0 7 11 6 9 36 5 22 hvcurveto
          17 65 rlineto
          127 hlineto
          133 112 120 111 hvcurveto
          -91 8 rmoveto
          -92 -72 -116 -105 vhcurveto
          -96 hlineto
          78 313 rlineto
          101 hlineto
          23 26 0 -29 23 hvcurveto
          20 -27 2 -34 -15 vvcurveto
          endchar
        </CharString>
        <CharString name="Tlinebelow">
          47 -162 30 132 80 callsubr
          hintmask 01110000
          -99 callsubr
          hintmask 10000000
          -288 -616 -80 callgsubr
        </CharString>
        <CharString name="U">
          23 callgsubr
          hstem
          202 75 vstem
          -104 callgsubr
          endchar
        </CharString>
        <CharString name="U_uni032F">
          74 -211 -21 134 36 40 31 643 31 110 callgsubr
          hintmask 00111000
          -104 callgsubr
          hintmask 11000000
          -369 -850 -55 callgsubr
        </CharString>
        <CharString name="Uacute">
          23 callgsubr
          47 callgsubr
          202 75 hintmask 11001000
          -104 callgsubr
          hintmask 00110000
          -102 203 -104 callsubr
        </CharString>
        <CharString name="Ubreve">
          23 callgsubr
          63 121 callsubr
          202 75 hintmask 11001000
          -104 callgsubr
          hintmask 00110000
          -93 236 -84 callsubr
        </CharString>
        <CharString name="Ucaron">
          23 callgsubr
          110 callgsubr
          vstemhm
          -104 callgsubr
          -113 166 -71 callgsubr
        </CharString>
        <CharString name="Ucircumflex">
          23 callgsubr
          110 callgsubr
          vstemhm
          -104 callgsubr
          -133 85 -102 callgsubr
          endchar
        </CharString>
        <CharString name="Udblgrave">
          23 callgsubr
          84 90 callgsubr
          202 75 hintmask 11001000
          -104 callgsubr
          hintmask 00110000
          -151 91 -74 callgsubr
        </CharString>
        <CharString name="Udieresis">
          23 callgsubr
          53 96 110 callgsubr
          hintmask 11010000
          -104 callgsubr
          hintmask 00100000
          28 callsubr
          endchar
        </CharString>
        <CharString name="Udieresisacute">
          23 callgsubr
          53 96 84 24 callsubr
          202 75 hintmask 11000100
          -104 callgsubr
          hintmask 00111000
          28 callsubr
          43 228 -104 callsubr
        </CharString>
        <CharString name="Udieresiscaron">
          23 callgsubr
          53 96 110 callgsubr
          hintmask 11010000
          -104 callgsubr
          hintmask 00100000
          28 callsubr
          32 191 -71 callgsubr
        </CharString>
        <CharString name="Udieresisgrave">
          23 callgsubr
          53 96 84 24 callsubr
          202 75 hintmask 11000100
          -104 callgsubr
          hintmask 00111000
          28 callsubr
          -52 121 -77 callsubr
        </CharString>
        <CharString name="Udotbelow">
          74 -200 106 72 31 643 31 110 callgsubr
          hintmask 01110000
          -104 callgsubr
          hintmask 10000000
          -440 -807 -95 callsubr
          endchar
        </CharString>
        <CharString name="Ugrave">
          23 callgsubr
          47 callgsubr
          202 75 hintmask 11001000
          -104 callgsubr
          hintmask 00110000
          -197 96 -77 callsubr
        </CharString>
        <CharString name="Uhookabove">
          23 callgsubr
          96 109 callsubr
          202 75 hintmask 11001000
          -104 callgsubr
          hintmask 00110000
          -143 228 -107 callgsubr
        </CharString>
        <CharString name="Uhorn">
          73 callsubr
          106 -20 hstemhm
          hintmask 00110000
          -93 callgsubr
          endchar
        </CharString>
        <CharString name="Uhornacute">
          73 callsubr
          85 -21 42 -20 137 -20 hstemhm
          hintmask 00101000
          -93 callgsubr
          hintmask 00010100
          -147 152 -104 callsubr
        </CharString>
        <CharString name="Uhorndotbelow">
          74 -200 106 72 30 645 27 -27 30 106 -20 hstemhm
          hintmask 00011000
          871 721 rmoveto
          2 7 1 7 6 vvcurveto
          26 -15 22 -27 vhcurveto
          -37 -1 -27 -32 -31 vvcurveto
          -24 16 -18 28 3 3 0 1 3 vhcurveto
          -18 -22 -26 -17 -27 -5 7 29 rcurveline
          3 vlineto
          5 -3 5 -5 1 vhcurveto
          hintmask 00100000
          -1 -2 -4 -1 0 vvcurveto
          hintmask 01010000
          -33 -32 1 2 -33 hvcurveto
          -2 hlineto
          -5 -5 -3 -5 -1 hvcurveto
          -2 -9 -1 -2 rlineto
          -5 4 -5 5 -1 vhcurveto
          3 hlineto
          27 19 -5 -11 12 hvcurveto
          6 -6 3 -9 -11 vvcurveto
          -6 -1 -7 -2 -7 vhcurveto
          -90 -361 -15 -59 -31 -56 -46 -43 rlinecurve
          -40 -42 -52 -24 -48 hhcurveto
          -43 -34 23 37 -17 hvcurveto
          -9 19 -3 22 24 vvcurveto
          27 5 31 8 34 vhcurveto
          97 389 5 17 5 11 10 4 rlinecurve
          6 13 24 1 38 hhcurveto
          6 4 3 5 1 hvcurveto
          2 8 1 3 rlineto
          5 -4 5 -5 1 vhcurveto
          -1 hlineto
          hintmask 00100000
          -123 -3 rlineto
          hintmask 01010000
          -122 3 rlineto
          -3 hlineto
          -5 -5 -3 -5 -1 hvcurveto
          -2 -9 rlineto
          -2 vlineto
          -5 3 -5 5 -1 vhcurveto
          3 hlineto
          38 24 -2 -5 9 hvcurveto
          2 -1 1 -2 -6 vvcurveto
          -5 -1 -6 -2 -7 vhcurveto
          -97 -389 rlineto
          -5 -22 -3 -22 -21 vvcurveto
          -42 11 -38 21 -32 vhcurveto
          -48 32 53 -27 62 hhcurveto
          56 59 28 45 48 hvcurveto
          51 48 36 61 16 65 96 385 rcurveline
          59 6 56 47 14 58 rrcurveto
          hintmask 10000000
          -482 -858 -95 callsubr
          endchar
        </CharString>
        <CharString name="Uhorngrave">
          73 callsubr
          85 -21 42 -20 137 -20 hstemhm
          hintmask 00101000
          -93 callgsubr
          hintmask 00010100
          -216 45 -77 callsubr
        </CharString>
        <CharString name="Uhornhookabove">
          73 callsubr
          96 -21 31 -20 198 -20 hstemhm
          hintmask 00101000
          -93 callgsubr
          hintmask 00001100
          -162 177 rmoveto
          1 5 1 5 5 vvcurveto
          15 -6 13 -12 9 vhcurveto
          13 -16 -23 4 -26 hhcurveto
          -41 -42 -23 -35 -12 hvcurveto
          -3 -6 rlineto
          -7 vlineto
          -14 10 -8 12 13 13 9 15 4 vhcurveto
          1 2 0 5 0 vvcurveto
          11 -7 7 -8 3 vhcurveto
          13 15 22 8 22 hhcurveto
          16 12 -3 -7 5 hvcurveto
          2 -3 1 -3 -5 vvcurveto
          -6 -1 -6 -3 -11 vhcurveto
          -3 -12 -7 -11 -9 -7 -32 -22 -24 -30 -9 -32 -4 -19 rcurveline
          -1 -2 rlineto
          hintmask 00010000
          -5 3 -4 5 -1 vhcurveto
          2 hlineto
          5 4 3 4 1 hvcurveto
          4 19 8 29 29 24 41 20 rlinecurve
          18 8 15 15 4 18 rrcurveto
          endchar
        </CharString>
        <CharString name="Uhorntilde">
          73 callsubr
          40 callsubr
          hintmask 00100000
          -93 callgsubr
          hintmask 00001000
          -118 105 -65 callgsubr
          hintmask 00010010
          -96 callsubr
          hintmask 00000100
          -61 callsubr
          hintmask 00010010
          -86 callgsubr
        </CharString>
        <CharString name="Uhungarumlaut">
          23 callgsubr
          84 90 callgsubr
          202 75 hintmask 11001000
          -104 callgsubr
          hintmask 00110000
          -230 239 -76 callgsubr
        </CharString>
        <CharString name="Umacron">
          23 callgsubr
          73 30 110 callgsubr
          hintmask 11010000
          -104 callgsubr
          hintmask 00100000
          -99 105 -80 callgsubr
        </CharString>
        <CharString name="Uogonek">
          74 -211 47 142 31 643 31 hstem
          202 75 vstem
          852 670 rmoveto
          8 -4 5 -9 vhcurveto
          -30 -33 -3 -31 -32 -33 3 -31 hhcurveto
          -5 -13 0 -19 -11 9 -1 9 hvcurveto
          52 -2 8 -20 -21 vvcurveto
          -9 -2 -7 -2 -8 vhcurveto
          -89 -356 rlineto
          -129 -32 -106 -91 -94 hhcurveto
          -52 -55 34 91 22 5 32 5 22 hvcurveto
          100 402 -103 callsubr
          -96 -386 rlineto
          -8 -32 0 -22 -10 vvcurveto
          -101 59 -64 75 -18 vhcurveto
          -39 -29 -32 -36 -8 -39 rrcurveto
          -38 callsubr
          -55 callsubr
          6 89 callsubr
          7 5 rcurveline
          10 hlineto
          127 111 130 110 27 hvcurveto
          91 366 16 64 56 3 29 1 rlinecurve
          3 12 1 17 hvcurveto
          endchar
        </CharString>
        <CharString name="Upsilon">
          98 0 31 603 71 hstem
          453 51 294 35 vstem
          833 597 rmoveto
          64 -30 44 -59 -130 -77 -145 -90 -36 vhcurveto
          -1 1 rlineto
          2 14 2 24 18 vvcurveto
          80 -22 98 -106 -109 -53 -140 -21 -9 12 0 0 12 4 5 9 3 vhcurveto
          67 23 57 18 32 hhcurveto
          75 21 -60 -70 -40 -9 -60 -9 -34 hvcurveto
          -74 -296 rlineto
          -33 -8 -6 -10 -82 hhcurveto
          -10 hlineto
          -17 -10 133 callgsubr
          46 48 3 47 47 49 -3 46 hhcurveto
          9 12 27 callsubr
          5 25 callgsubr
          63 251 rlineto
          94 24 54 216 142 hhcurveto
          53 19 -34 -33 hvcurveto
          -15 -2 -3 -5 vvcurveto
          -9 12 0 0 25 0 41 21 vhcurveto
          endchar
        </CharString>
        <CharString name="Uring">
          23 callgsubr
          33 122 callsubr
          110 callgsubr
          223 112 callsubr
          hintmask 11001000
          -104 callgsubr
          hintmask 00110110
          -198 156 -51 callsubr
          -60 -50 -58 67 callsubr
        </CharString>
        <CharString name="Utilde">
          23 callgsubr
          40 callsubr
          202 75 hintmask 11000010
          -104 callgsubr
          hintmask 00010000
          -99 156 -97 callsubr
        </CharString>
        <CharString name="V">
          74 133 callsubr
          hstem
          209 659 vstem
          868 672 rmoveto
          0 -2 11 -11 vhcurveto
          -24 -27 -3 -25 -30 -33 3 -29 hhcurveto
          -6 -12 0 -19 -11 8 0 8 -1 hvcurveto
          16 -1 24 -7 -24 vvcurveto
          -13 -11 -20 -4 -7 vhcurveto
          -289 -483 -51 524 rlineto
          30 53 1 10 14 82 callsubr
          -3 vhcurveto
          -37 -40 -3 -38 -34 -35 3 -33 hhcurveto
          -5 -13 34 callgsubr
          50 2 -9 -25 2 hvcurveto
          60 -616 rlineto
          -19 2 1 -5 16 hhcurveto
          12 5 1 18 11 hvcurveto
          343 574 40 67 35 11 37 3 rlinecurve
          8 1 11 0 19 vvcurveto
          endchar
        </CharString>
        <CharString name="W">
          106 callgsubr
          hstem
          208 916 vstem
          -85 callgsubr
          endchar
        </CharString>
        <CharString name="Wacute">
          106 callgsubr
          47 callgsubr
          208 916 hintmask 11001000
          -85 callgsubr
          hintmask 00110000
          -269 201 -104 callsubr
        </CharString>
        <CharString name="Wcircumflex">
          106 callgsubr
          hstemhm
          208 916 vstemhm
          -85 callgsubr
          -300 83 -102 callgsubr
          endchar
        </CharString>
        <CharString name="Wdieresis">
          106 callgsubr
          53 96 hstemhm
          208 916 hintmask 11010000
          -85 callgsubr
          hintmask 00100000
          -484 121 rmoveto
          -94 callsubr
          209 hmoveto
          -94 callsubr
          endchar
        </CharString>
        <CharString name="Wgrave">
          106 callgsubr
          47 callgsubr
          208 916 hintmask 11001000
          -85 callgsubr
          hintmask 00110000
          -364 94 -77 callsubr
        </CharString>
        <CharString name="X">
          -49 callsubr
        </CharString>
        <CharString name="Xi">
          -5 0 64 97 -20 179 64 229 64 hstem
          75 678 vstem
          732 548 rmoveto
          21 118 rlineto
          11 -10 0 -15 vhcurveto
          -459 hlineto
          -21 -1 -1 -18 -6 hvcurveto
          -34 -108 -3 -12 rlineto
          90 callsubr
          13 1 4 14 4 vhcurveto
          1 2 14 46 9 12 rrcurveto
          8 6 49 0 14 hhcurveto
          316 hlineto
          16 30 -1 -2 15 hvcurveto
          -15 0 -10 -6 -32 vhcurveto
          0 -2 -12 -3 42 callgsubr
          12 3 3 18 3 vhcurveto
          -98 -410 rmoveto
          3 12 rlineto
          44 callgsubr
          -5 -5 123 callgsubr
          -2 -3 -4 -12 -4 -11 -7 -26 -11 -28 -6 -6 rrcurveto
          -6 -7 -53 0 -11 hhcurveto
          -317 hlineto
          -40 -2 0 4 -23 hvcurveto
          14 0 11 7 37 vhcurveto
          1 6 2 11 3 vvcurveto
          44 callgsubr
          -13 -2 -4 -17 -3 vhcurveto
          -22 -114 rlineto
          -2 -8 0 -2 -3 vvcurveto
          -13 8 0 17 vhcurveto
          469 hlineto
          21 3 0 18 5 hvcurveto
          -14 275 rmoveto
          28 113 rlineto
          2 7 1 6 0 vvcurveto
          12 -11 0 -4 -13 -1 -3 -15 -4 vhcurveto
          -1 -2 -4 -19 -2 -8 rrcurveto
          -293 hlineto
          8 28 0 2 5 vvcurveto
          12 -11 0 -4 -11 -3 -1 -19 -5 vhcurveto
          -28 -113 rlineto
          -2 -7 -1 -6 0 120 callsubr
          13 1 3 15 4 vhcurveto
          1 2 4 19 2 8 rrcurveto
          293 hlineto
          -8 -28 0 -2 -5 120 callsubr
          11 3 1 19 5 vhcurveto
          endchar
        </CharString>
        <CharString name="Y">
          95 callsubr
          hstem
          202 672 vstem
          -98 callsubr
          endchar
        </CharString>
        <CharString name="Yacute">
          95 callsubr
          47 callgsubr
          202 672 hintmask 11001000
          -98 callsubr
          hintmask 00110000
          -147 201 -104 callsubr
        </CharString>
        <CharString name="Ycircumflex">
          95 callsubr
          hstemhm
          202 672 vstemhm
          -98 callsubr
          -178 83 -102 callgsubr
          endchar
        </CharString>
        <CharString name="Ydieresis">
          95 callsubr
          53 96 hstemhm
          202 672 hintmask 11010000
          -98 callsubr
          hintmask 00100000
          -362 121 rmoveto
          -94 callsubr
          209 hmoveto
          -94 callsubr
          endchar
        </CharString>
        <CharString name="Ydotbelow">
          74 60 callgsubr
          202 672 hintmask 01110000
          -98 callsubr
          hintmask 10000000
          -485 -809 -95 callsubr
          endchar
        </CharString>
        <CharString name="Ygrave">
          95 callsubr
          47 callgsubr
          202 672 hintmask 11001000
          -98 callsubr
          hintmask 00110000
          -242 94 -77 callsubr
        </CharString>
        <CharString name="Yhookabove">
          95 callsubr
          96 109 callsubr
          202 672 hintmask 11001000
          -98 callsubr
          hintmask 00110000
          -187 226 -107 callgsubr
        </CharString>
        <CharString name="Ytilde">
          74 67 callgsubr
          202 672 hintmask 11000010
          -98 callsubr
          hintmask 00010000
          -144 154 -97 callsubr
        </CharString>
        <CharString name="Z">
          108 callgsubr
          hstem
          80 624 vstem
          -76 callsubr
          endchar
        </CharString>
        <CharString name="Zacute">
          108 callgsubr
          47 callgsubr
          80 624 hintmask 11001000
          -76 callsubr
          hintmask 00110000
          57 618 -104 callsubr
        </CharString>
        <CharString name="Zcaron">
          108 callgsubr
          hstemhm
          80 624 vstemhm
          -76 callsubr
          46 581 -71 callgsubr
        </CharString>
        <CharString name="Zdotaccent">
          108 callgsubr
          75 106 hstemhm
          80 624 hintmask 11010000
          -76 callsubr
          hintmask 00100000
          -41 566 -95 callsubr
          endchar
        </CharString>
        <CharString name="Zdotbelow">
          -56 -200 106 94 34 618 31 hstemhm
          80 624 hintmask 01110000
          -76 callsubr
          hintmask 10000000
          -281 -392 -95 callsubr
          endchar
        </CharString>
        <CharString name="Zeta">
          108 callgsubr
          hstem
          80 624 vstem
          -76 callsubr
          endchar
        </CharString>
        <CharString name="a">
          95 callgsubr
          98 68 vstem
          -105 callgsubr
          endchar
        </CharString>
        <CharString name="aacute">
          57 callgsubr
          98 68 hintmask 11001000
          -105 callgsubr
          hintmask 00110000
          146 355 -92 callgsubr
        </CharString>
        <CharString name="abreve">
          -49 callgsubr
          74 121 callsubr
          98 68 hintmask 11001000
          -105 callgsubr
          hintmask 00110000
          17 callsubr
          endchar
        </CharString>
        <CharString name="abreveacute">
          -49 callgsubr
          74 36 313 -20 hstemhm
          98 68 hintmask 11001000
          -105 callgsubr
          hintmask 00110000
          17 callsubr
          4 156 -104 callsubr
        </CharString>
        <CharString name="abrevedotbelow">
          28 callgsubr
          74 121 callsubr
          98 68 hintmask 01111100
          -105 callgsubr
          17 callsubr
          hintmask 10000000
          -290 -813 -95 callsubr
          endchar
        </CharString>
        <CharString name="abrevegrave">
          -49 callgsubr
          74 121 callsubr
          98 68 hintmask 11001000
          -105 callgsubr
          hintmask 00110000
          17 callsubr
          -22 49 rmoveto
          -3 -8 -12 -10 -8 -1 -3 -1 -2 0 -7 6 -134 93 rcurveline
          -7 5 -9 7 5 16 rrcurveto
          19 6 20 14 19 hhcurveto
          10 6 -5 -6 6 hvcurveto
          107 -116 rlineto
          7 -8 -1 -2 -3 vvcurveto
          endchar
        </CharString>
        <CharString name="abrevehookabove">
          -49 callgsubr
          74 36 343 -20 hstemhm
          98 68 hintmask 11001000
          -105 callgsubr
          hintmask 00110000
          17 callsubr
          -11 150 -107 callgsubr
        </CharString>
        <CharString name="abrevetilde">
          -49 callgsubr
          74 87 callgsubr
          98 68 hintmask 11000001
          -105 callgsubr
          hintmask 00101000
          170 363 -17 callsubr
          hintmask 00010010
          -96 callsubr
          hintmask 00000100
          -61 callsubr
          hintmask 00010010
          -86 callgsubr
        </CharString>
        <CharString name="acaron">
          70 callgsubr
          98 68 vstemhm
          -105 callgsubr
          167 352 rmoveto
          -67 callsubr
        </CharString>
        <CharString name="acircumflex">
          70 callgsubr
          98 68 vstemhm
          -105 callgsubr
          134 223 -73 callgsubr
          endchar
        </CharString>
        <CharString name="acircumflexacute">
          -49 callgsubr
          374 -20 -52 callgsubr
          133 224 -102 callgsubr
          28 246 -104 callsubr
        </CharString>
        <CharString name="acircumflexdotbelow">
          28 callgsubr
          hstemhm
          98 68 hintmask 01110000
          -105 callgsubr
          134 223 -73 callgsubr
          hintmask 10000000
          -254 -673 -95 callsubr
          endchar
        </CharString>
        <CharString name="acircumflexgrave">
          70 callgsubr
          98 68 vstemhm
          -105 callgsubr
          133 224 -75 callgsubr
        </CharString>
        <CharString name="acircumflexhookabove">
          -49 callgsubr
          404 -20 -52 callgsubr
          133 224 -102 callgsubr
          104 240 -107 callgsubr
        </CharString>
        <CharString name="acircumflextilde">
          -49 callgsubr
          235 139 callsubr
          hintmask 11000010
          -105 callgsubr
          hintmask 00010000
          133 224 -102 callgsubr
          73 230 -97 callsubr
        </CharString>
        <CharString name="acute">
          526 99 callsubr
          539 668 -92 callgsubr
        </CharString>
        <CharString name="acute.cap">
          515 49 callgsubr
          hstem
          548 620 -104 callsubr
        </CharString>
        <CharString name="acute.dup">
          526 99 callsubr
          539 668 -92 callgsubr
        </CharString>
        <CharString name="acute.ts1">
          527 76 callgsubr
          21 -20 hstemhm
          hintmask 00100000
          551 669 rmoveto
          13 -11 15 -17 vhcurveto
          hintmask 11000000
          -5 -1 -21 -3 -15 -23 -14 -14 rlinecurve
          -107 -107 rlineto
          -6 -6 -15 -12 -9 vvcurveto
          -7 8 -9 7 vhcurveto
          1 hlineto
          11 23 21 13 15 hvcurveto
          118 90 rlineto
          13 11 15 10 18 vvcurveto
          endchar
        </CharString>
        <CharString name="adblgrave">
          -49 callgsubr
          85 90 callgsubr
          98 68 hintmask 11001000
          -105 callgsubr
          hintmask 00110000
          110 208 -82 callgsubr
        </CharString>
        <CharString name="adieresis">
          -49 callgsubr
          111 96 -52 callgsubr
          -27 297 -50 callgsubr
        </CharString>
        <CharString name="adotbelow">
          28 callgsubr
          hstemhm
          98 68 hintmask 01110000
          -105 callgsubr
          hintmask 10000000
          -120 -450 -95 callsubr
          endchar
        </CharString>
        <CharString name="ae">
          47 -8 callsubr
          hstem
          92 73 516 38 vstem
          -59 callsubr
          endchar
        </CharString>
        <CharString name="ae.dup">
          47 -8 callsubr
          hstem
          92 73 516 38 vstem
          -59 callsubr
          endchar
        </CharString>
        <CharString name="aeacute">
          47 -8 callsubr
          29 callsubr
          92 73 516 38 hintmask 11100110
          -59 callsubr
          hintmask 00011000
          214 279 -92 callgsubr
        </CharString>
        <CharString name="agrave">
          57 callgsubr
          98 68 hintmask 11001000
          -105 callgsubr
          hintmask 00110000
          51 209 -70 callsubr
        </CharString>
        <CharString name="ahookabove">
          -49 callgsubr
          75 109 callsubr
          98 68 hintmask 11001000
          -105 callgsubr
          hintmask 00110000
          112 323 -107 callgsubr
        </CharString>
        <CharString name="amacron">
          -49 callgsubr
          144 30 -52 callgsubr
          179 292 -80 callgsubr
        </CharString>
        <CharString name="ampersand">
          98 -22 22 242 78 -10 22 107 22 61 81 91 22 hstemhm
          126 76 198 30 60 31 181 32 hintmask 0100010010000000
          734 311 rmoveto
          60 -22 50 -35 46 vhcurveto
          96 69 31 110 17 vvcurveto
          21 -17 10 -16 -21 -26 -17 -30 -19 12 -11 22 -1 vhcurveto
          -35 -87 -69 -44 -48 -30 rrcurveto
          -49 -30 -67 -42 -70 vvcurveto
          -44 28 -27 35 29 19 23 24 23 -17 8 -15 -21 -17 -14 -18 -7 vhcurveto
          hintmask 1011111111000000
          -3 8 0 6 8 vvcurveto
          58 37 23 92 57 vhcurveto
          42 -54 10 -44 -42 vvcurveto
          -80 -57 -228 -262 -79 -102 35 121 56 28 89 23 41 vhcurveto
          -3 3 31 -29 47 hhcurveto
          52 44 45 46 38 -27 22 -36 -30 -35 -12 -22 -33 hvcurveto
          103 3 59 164 93 hhcurveto
          30 44 -18 -73 1 hvcurveto
          -57 0 -49 0 -13 9 -19 26 50 3 61 18 61 -37 54 -69 -107 -106 -134 -126 -13 0 -19 9 -28 hvcurveto
          2 -5 0 -2 0 vvcurveto
          -3 -6 rlineto
          -72 -78 -21 -92 -37 vvcurveto
          -104 91 -94 165 278 74 233 100 vhcurveto
          -334 95 rmoveto
          -36 -27 -38 -37 -30 -20 20 27 -10 vhcurveto
          13 10 38 47 43 hhcurveto
          16 17 -8 -25 hvcurveto
          endchar
        </CharString>
        <CharString name="anglearc">
          98 -36 -21 614 -20 hstem
          695 20 rmoveto
          2 8 -3 8 -7 3 -115 51 rcurveline
          31 51 23 54 14 55 13 55 4 54 -5 51 141 51 rcurveline
          8 3 7 8 2 8 4 14 -12 10 -14 -5 -142 -52 rcurveline
          -7 36 -13 35 -17 31 rrcurveto
          5 -3 -4 3 -7 hhcurveto
          -11 -11 -9 -11 -3 hvcurveto
          -1 -5 1 -4 1 -3 16 -29 11 -31 7 -33 -448 -163 rcurveline
          -8 -3 -7 -8 -2 -8 -3 -8 4 -8 6 -3 367 -163 rcurveline
          -23 -33 -27 -31 -30 -29 -3 -3 -3 -4 -1 -5 rrcurveto
          -11 -3 7 -9 11 hhcurveto
          6 6 3 5 5 hvcurveto
          33 31 30 35 26 36 115 -52 rcurveline
          12 -5 17 10 3 14 rrcurveto
          -95 230 rmoveto
          -13 -50 -21 -49 -28 -46 -325 145 rcurveline
          398 145 5 -46 -4 -49 -12 -50 rlinecurve
          endchar
        </CharString>
        <CharString name="angleleft">
          -260 -228 -21 1000 -20 hstem
          274 -231 rmoveto
          5 vlineto
          15 -3 16 -1 15 vhcurveto
          -11 134 -18 136 -9 134 rrcurveto
          6 -1 6 6 vvcurveto
          4 vlineto
          1 5 4 5 2 4 13 22 rcurveline
          81 129 71 133 81 129 rrcurveto
          10 16 20 26 15 vvcurveto
          3 vlineto
          10 -1 -8 8 -10 hhcurveto
          -5 -1 -15 -4 -10 -24 -8 -15 rlinecurve
          -76 -128 -174 -292 rlineto
          -6 -11 -12 -14 -13 vvcurveto
          -22 4 -23 3 -22 vhcurveto
          37 -398 rlineto
          -15 2 1 -18 18 hhcurveto
          10 9 9 9 1 hvcurveto
          endchar
        </CharString>
        <CharString name="angleright">
          -260 -228 -21 1000 -20 hstem
          345 254 rmoveto
          23 -5 27 -3 24 vhcurveto
          -36 394 rlineto
          12 -2 -2 17 -17 hhcurveto
          0 -3 0 -2 -1 vhcurveto
          -8 -2 -6 -6 -1 -8 rrcurveto
          -5 vlineto
          -14 2 -14 1 -14 vhcurveto
          19 -199 15 -162 rlineto
          3 -21 4 -22 -21 vvcurveto
          -8 -5 -6 -3 -6 vhcurveto
          -13 -22 -258 -433 rlineto
          -2 -5 -3 -5 -5 vvcurveto
          -2 vlineto
          -10 10 -9 10 vhcurveto
          17 2 11 26 7 13 252 423 rcurveline
          6 12 12 13 14 vvcurveto
          endchar
        </CharString>
        <CharString name="aogonek">
          58 callgsubr
          hstem
          98 68 230 81 vstem
          -38 callgsubr
          endchar
        </CharString>
        <CharString name="aogonekacute">
          58 callgsubr
          29 callsubr
          98 68 230 81 hintmask 11100110
          -38 callgsubr
          hintmask 00011000
          146 355 -92 callgsubr
        </CharString>
        <CharString name="aring">
          139 callgsubr
          hstemhm
          98 68 148 112 callsubr
          hintmask 11001000
          -105 callgsubr
          hintmask 00110110
          75 326 -51 callsubr
          -59 -50 -58 -1 vhcurveto
          67 callsubr
        </CharString>
        <CharString name="aringacute">
          139 callgsubr
          179 -20 hstemhm
          98 68 149 112 callsubr
          hintmask 11000100
          -105 callgsubr
          hintmask 00111011
          76 326 -51 callsubr
          -60 -50 -58 7 callgsubr
          66 213 -104 callsubr
        </CharString>
        <CharString name="asciicircum">
          -113 583 -21 hstem
          707 584 rmoveto
          -243 160 -323 -160 6 -22 301 123 242 -123 rlineto
          endchar
        </CharString>
        <CharString name="asciitilde">
          -113 193 43 28 43 hstem
          627 290 0 callsubr
        </CharString>
        <CharString name="asciitilde.low">
          -113 0 43 28 43 hstem
          579 97 0 callsubr
        </CharString>
        <CharString name="asterisk">
          340 -21 431 -20 hstem
          195 388 vstem
          537 447 rmoveto
          10 -7 4 -8 5 vhcurveto
          -113 68 150 70 rlineto
          10 4 14 9 17 vvcurveto
          3 -1 17 -19 -8 -6 -4 -2 -3 vhcurveto
          -140 -93 53 161 rlineto
          1 4 3 8 4 vvcurveto
          11 -10 7 -10 -27 -5 -27 -7 -1 vhcurveto
          -27 -161 -90 88 rlineto
          9 -9 -2 2 -8 hhcurveto
          -17 -15 -17 -15 -9 3 -2 11 -7 hvcurveto
          113 -69 -150 -70 rlineto
          -21 -10 -3 -11 -9 vvcurveto
          -12 8 -8 12 8 4 3 3 5 vhcurveto
          141 93 -54 -161 rlineto
          -1 -4 -3 -7 -5 vvcurveto
          -10 8 -8 13 26 5 26 8 1 vhcurveto
          27 161 90 -88 rlineto
          -10 10 3 -1 7 hhcurveto
          15 17 16 16 hvcurveto
          endchar
        </CharString>
        <CharString name="asterisk.math">
          57 -21 430 -20 hstem
          466 163 rmoveto
          17 -24 8 -13 9 vhcurveto
          -19 11 -18 12 -19 11 -11 6 -13 6 -9 9 rrcurveto
          -6 -1 178 59 42 vvcurveto
          9 -9 10 -11 -14 -14 -13 -7 -10 vhcurveto
          -40 -25 -38 -28 -40 -24 4 16 6 16 6 16 28 86 rcurveline
          5 12 7 16 11 vvcurveto
          11 -9 8 -10 -28 -7 -27 -22 -2 vhcurveto
          -8 -48 -12 -48 -4 -48 -71 69 rcurveline
          11 -11 -12 18 -15 hhcurveto
          -16 -17 -16 -16 -17 24 -8 13 -9 hvcurveto
          19 -11 18 -12 19 -11 11 -6 13 -6 9 -9 -18 -4 -23 -13 -18 -10 rrcurveto
          -38 -17 -75 -22 -34 vvcurveto
          -9 9 -10 11 14 14 13 7 10 vhcurveto
          40 25 38 28 40 24 -4 -16 -6 -16 -6 -16 -28 -86 rcurveline
          -5 -12 -7 -16 -11 vvcurveto
          -11 9 -8 10 28 7 27 22 2 vhcurveto
          8 48 12 48 4 48 71 -69 rcurveline
          -11 11 12 -18 15 hhcurveto
          16 17 16 16 hvcurveto
          endchar
        </CharString>
        <CharString name="at">
          98 -11 22 117 22 394 22 117 22 hstem
          151 31 97 61 419 30 vstem
          706 68 rmoveto
          10 -6 0 -19 -16 -2 0 -7 -16 vhcurveto
          -37 -81 -88 -23 -89 hhcurveto
          -138 -69 108 127 224 195 213 179 125 78 -102 -133 -48 -38 -250 -89 -6 -12 0 25 6 2 8 1 6 hvcurveto
          65 263 rlineto
          1 3 1 10 0 vvcurveto
          10 -7 0 -16 vhcurveto
          -26 hlineto
          20 -8 -26 65 -79 hhcurveto
          -119 -124 -137 -143 -98 62 -60 76 66 50 46 19 20 hvcurveto
          -57 3 51 -8 21 hhcurveto
          71 32 72 41 15 hvcurveto
          1 3 42 110 91 vvcurveto
          166 -105 94 -127 -201 -205 -225 -232 -135 79 -124 158 14 69 0 22 87 vhcurveto
          26 6 122 35 16 vvcurveto
          -136 200 rmoveto
          -36 -9 -73 -82 -68 hhcurveto
          -63 -17 74 46 131 97 143 85 74 17 -86 -14 hvcurveto
          -3 -14 rlineto
          endchar
        </CharString>
        <CharString name="atilde">
          -49 callgsubr
          108 139 callsubr
          hintmask 11000010
          -105 callgsubr
          hintmask 00010000
          175 327 -97 callsubr
        </CharString>
        <CharString name="b">
          -209 73 callgsubr
          hstem
          115 57 220 67 vstem
          459 72 callgsubr
          70 280 rlineto
          -92 callsubr
          -99 -395 3 callsubr
        </CharString>
        <CharString name="backslash">
          -169 60 callsubr
          386 -230 rmoveto
          0 1 5 -2 13 vhcurveto
          -105 940 rlineto
          11 -1 -1 11 -14 hhcurveto
          -11 -12 -9 -11 -2 hvcurveto
          0 -2 -5 2 -13 vhcurveto
          105 -940 rlineto
          -11 1 2 -11 14 hhcurveto
          11 11 9 11 3 hvcurveto
          endchar
        </CharString>
        <CharString name="baht">
          35 0 31 313 22 286 31 hstem
          646 88 vstem
          677 219 rmoveto
          83 -67 46 -72 9 vhcurveto
          122 27 74 86 77 vvcurveto
          72 -59 64 -109 vhcurveto
          -36 hlineto
          7 30 rlineto
          107 callsubr
          -8 -9 -6 -9 -2 hvcurveto
          -7 -30 rlineto
          -245 -1 callgsubr
          239 hlineto
          -8 -30 rlineto
          -8 -2 118 callsubr
          2 hvcurveto
          8 30 rlineto
          61 hlineto
          142 115 115 104 hvcurveto
          -31 334 rmoveto
          -85 -77 -102 -114 vhcurveto
          -5 hlineto
          72 286 rlineto
          30 hlineto
          84 10 -68 -31 hvcurveto
          -154 99 rmoveto
          -72 -286 rlineto
          -97 hlineto
          62 250 36 callsubr
          154 -420 rmoveto
          -97 -80 -104 -110 vhcurveto
          -31 hlineto
          78 313 rlineto
          44 hlineto
          93 6 -86 -26 hvcurveto
          -251 -201 rmoveto
          -63 -35 callgsubr
          3 10 1 6 hvcurveto
          70 281 rlineto
          98 hlineto
          endchar
        </CharString>
        <CharString name="bar">
          -391 60 callsubr
          105 -217 rmoveto
          5 callsubr
          endchar
        </CharString>
        <CharString name="bigcircle">
          -56 callgsubr
          endchar
        </CharString>
        <CharString name="blanksymbol">
          -209 73 callgsubr
          hstem
          115 57 220 67 vstem
          459 72 callgsubr
          44 176 84 71 4 3 2 3 1 4 rlinecurve
          107 callsubr
          -4 -5 -1 -3 -3 hvcurveto
          -57 -48 15 60 rlineto
          -92 callsubr
          -20 -78 -100 -84 -3 -2 -2 -4 -1 -4 rlinecurve
          94 callsubr
          4 4 2 3 4 hvcurveto
          73 60 -69 -273 3 callsubr
        </CharString>
        <CharString name="braceleft">
          -169 -229 -21 487 24 489 -20 hstem
          612 739 rmoveto
          11 3 -8 0 -12 hhcurveto
          -100 -102 -51 -72 -20 hvcurveto
          -46 -183 -23 -94 -4 -16 -33 -28 rlinecurve
          -18 -14 -34 -27 -64 -4 rrcurveto
          -7 -7 -1 -10 -2 hvcurveto
          -3 -10 6 0 10 -1 42 -3 80 -21 -25 -100 -50 -198 rcurveline
          -14 -58 -9 -34 43 -37 rrcurveto
          -30 36 63 -8 31 hhcurveto
          12 8 0 11 2 hvcurveto
          3 10 -6 0 -10 1 rrcurveto
          -78 5 -25 45 36 vvcurveto
          -1 11 1 2 9 35 37 150 rcurveline
          8 30 12 51 1 10 3 66 -57 26 -36 11 126 34 18 71 7 28 45 180 rcurveline
          18 72 5 22 31 25 22 18 29 24 71 4 5 1 5 4 2 6 rrcurveto
          endchar
        </CharString>
        <CharString name="braceright">
          -169 -229 -21 510 -21 511 -20 hstem
          490 250 rmoveto
          2 10 -6 0 -10 1 -42 3 -80 21 25 100 50 198 rcurveline
          14 58 9 34 -43 37 rrcurveto
          29 -36 -61 9 -32 hhcurveto
          -10 -10 0 -11 -3 hvcurveto
          -3 -10 6 0 10 -1 rrcurveto
          78 -5 26 -45 -36 vvcurveto
          -11 -1 -2 -8 -35 vhcurveto
          -38 -150 -7 -30 -13 -51 -1 -10 rlinecurve
          -3 -66 57 -26 37 -11 -127 -34 -18 -71 -7 -28 -45 -180 rcurveline
          -18 -72 -5 -22 -30 -25 -23 -18 -29 -24 -71 -4 -5 -1 -5 -4 -2 -6 rrcurveto
          -11 -2 10 0 10 hhcurveto
          100 101 51 72 20 hvcurveto
          46 183 24 94 4 16 33 28 rlinecurve
          17 14 34 27 64 4 rrcurveto
          7 7 1 10 3 hvcurveto
          endchar
        </CharString>
        <CharString name="bracketleft">
          -362 -250 40 920 40 hstem
          73 373 vstem
          206 -222 142 callgsubr
          -16 vhcurveto
          -59 hlineto
          230 920 rlineto
          65 114 callgsubr
          12 -10 0 -16 vhcurveto
          -77 hlineto
          -22 -1 0 -19 -5 hvcurveto
          -239 -956 rlineto
          -1 -3 -2 -10 0 70 callsubr
          16 vhcurveto
          77 114 callgsubr
          endchar
        </CharString>
        <CharString name="bracketright">
          -362 -250 40 920 40 hstem
          -14 373 vstem
          117 -231 rmoveto
          239 956 -20 callsubr
          12 -10 0 -16 vhcurveto
          -77 91 callsubr
          59 hlineto
          -230 -920 rlineto
          -65 91 callsubr
          77 hlineto
          22 1 0 19 5 hvcurveto
          endchar
        </CharString>
        <CharString name="breve">
          516 36 134 14 callgsubr
          endchar
        </CharString>
        <CharString name="breve.cap">
          493 113 callgsubr
          hstem
          557 653 -84 callsubr
        </CharString>
        <CharString name="breve.ts1">
          -56 523 36 135 -20 21 -20 hstemhm
          284 22 hintmask 11010000
          666 679 rmoveto
          4 vlineto
          6 -4 5 -6 vhcurveto
          -2 hlineto
          -10 -1 -1 -15 -4 -8 rrcurveto
          -73 -29 -90 -38 -77 hhcurveto
          -8 hlineto
          -54 2 -75 27 67 vvcurveto
          4 vlineto
          1 6 3 8 7 vvcurveto
          hintmask 00100000
          7 -4 8 -7 vhcurveto
          hintmask 11010000
          -4 -1 rlineto
          -10 -5 -1 -19 -13 vvcurveto
          -80 63 -54 92 81 83 40 70 43 vhcurveto
          9 14 8 16 3 16 rrcurveto
          endchar
        </CharString>
        <CharString name="brokenbar">
          -391 60 callsubr
          245 343 100 callgsubr
          14 4 5 19 -20 hhcurveto
          -20 -5 -19 -14 -4 hvcurveto
          -93 -374 rlineto
          -9 -2 8 -6 10 hhcurveto
          10 12 6 9 2 hvcurveto
          -140 -560 100 callgsubr
          9 2 -8 6 -10 hhcurveto
          -10 -12 -6 -9 -2 hvcurveto
          -93 -374 rlineto
          19 callgsubr
          endchar
        </CharString>
        <CharString name="bullet">
          98 81 298 hstem
          77 callsubr
          endchar
        </CharString>
        <CharString name="c">
          -209 -11 22 285 79 45 22 hstem
          110 70 205 85 vstem
          -59 callgsubr
          -99 59 -66 88 128 83 100 15 vhcurveto
          endchar
        </CharString>
        <CharString name="cacute">
          22 callsubr
          84 -21 191 -20 104 callgsubr
          hintmask 11100110
          -59 callgsubr
          -99 59 -66 88 128 83 100 15 vhcurveto
          hintmask 00011000
          68 564 -92 callgsubr
        </CharString>
        <CharString name="caron">
          560 665 rmoveto
          -67 callsubr
        </CharString>
        <CharString name="caron.cap">
          537 583 -71 callgsubr
        </CharString>
        <CharString name="caron.ts1">
          -56 561 -21 158 -20 hstem
          655 681 rmoveto
          9 -6 8 -8 -11 -19 -15 -7 -13 vhcurveto
          -108 -62 -26 -15 rlineto
          -2 -4 -3 -3 -4 hhcurveto
          -2 hlineto
          -11 5 -10 10 -10 9 rrcurveto
          22 -27 -60 58 -17 hhcurveto
          -2 hlineto
          -8 -1 -8 -9 -8 vvcurveto
          -12 24 -16 9 -9 vhcurveto
          32 -32 34 -30 32 -32 rrcurveto
          -4 4 5 -5 6 hhcurveto
          11 24 19 11 15 hvcurveto
          44 28 117 65 18 vvcurveto
          endchar
        </CharString>
        <CharString name="ccaron">
          22 callsubr
          104 callgsubr
          vstemhm
          -59 callgsubr
          -99 59 -66 88 128 83 100 15 vhcurveto
          89 561 rmoveto
          -67 callsubr
        </CharString>
        <CharString name="ccedilla">
          -209 -11 22 285 79 45 22 hstem
          110 70 205 85 vstem
          -59 callgsubr
          -75 34 -55 54 -23 vhcurveto
          -4 -15 -10 -40 32 callsubr
          26 -19 21 -42 8 hvcurveto
          10 43 rlineto
          126 1 82 99 15 vvcurveto
          endchar
        </CharString>
        <CharString name="ccircumflex">
          22 callsubr
          104 callgsubr
          vstemhm
          -59 callgsubr
          -99 59 -66 88 128 83 100 15 vhcurveto
          56 432 -73 callgsubr
          endchar
        </CharString>
        <CharString name="cdotaccent">
          22 callsubr
          106 106 104 callgsubr
          hintmask 11101100
          -59 callgsubr
          -99 59 -66 88 128 83 100 15 vhcurveto
          hintmask 00010000
          -10 507 -95 callsubr
          endchar
        </CharString>
        <CharString name="cedilla">
          -1 callsubr
        </CharString>
        <CharString name="cedilla.dup">
          -1 callsubr
        </CharString>
        <CharString name="cent">
          44 callsubr
          -63 -80 -74 -15 -31 -2 102 408 rcurveline
          17 -2 33 -7 12 -34 rrcurveto
          -50 -6 0 -43 0 vvcurveto
          -16 11 -16 23 27 24 22 38 45 -36 35 -56 5 vhcurveto
          5 20 rlineto
          8 2 -5 7 -8 hhcurveto
          -8 -9 113 callsubr
          -5 -20 rlineto
          -119 -10 -119 -137 -140 vvcurveto
          -91 50 -63 76 -10 vhcurveto
          -5 -20 rlineto
          -8 -3 118 callsubr
          3 hvcurveto
          4 19 rlineto
          124 4 79 96 15 vvcurveto
          -227 -91 rmoveto
          -42 9 -19 41 51 vvcurveto
          53 27 105 26 48 vhcurveto
          30 55 41 33 38 9 rrcurveto
          endchar
        </CharString>
        <CharString name="cent.oldstyle">
          44 callsubr
          -94 -74 -89 -4 -17 hhcurveto
          -17 -14 4 8 -11 hvcurveto
          185 389 13 -6 13 -10 7 -19 rlinecurve
          -50 -6 0 -43 0 vvcurveto
          -16 11 -16 23 27 24 22 38 35 -22 29 -36 14 vhcurveto
          11 23 rlineto
          10 4 -4 9 -10 hhcurveto
          -7 -7 -5 -7 -4 hvcurveto
          -11 -23 rlineto
          1 -7 -7 0 -7 hhcurveto
          -124 -129 -142 -146 -66 26 -51 44 -27 hvcurveto
          -17 -37 rlineto
          -9 -5 5 -9 10 hhcurveto
          7 7 5 7 3 hvcurveto
          15 31 rlineto
          -6 16 17 -3 19 hhcurveto
          128 83 100 15 hvcurveto
          -94 315 rmoveto
          -177 -374 rlineto
          -12 18 -5 24 27 vvcurveto
          53 27 105 26 48 vhcurveto
          65 36 50 35 45 hhcurveto
          2 4 0 -1 4 hvcurveto
          endchar
        </CharString>
        <CharString name="centigrade">
          251 -21 31 470 40 124 40 -9 31 hstemhm
          354 88 hintmask 10011000
          1007 655 rmoveto
          3 12 4 13 2 12 rrcurveto
          3 vlineto
          4 -2 7 -8 -17 -39 -59 -26 -26 vhcurveto
          56 -25 -66 29 -58 hhcurveto
          -234 -187 -253 -209 -128 76 -137 172 hvcurveto
          10 hlineto
          132 8 124 116 31 123 rrcurveto
          2 5 2 6 6 vvcurveto
          7 -1 -6 3 -7 hhcurveto
          -18 0 -15 -12 -4 hvcurveto
          -104 -34 -98 -112 -122 hhcurveto
          -53 -51 25 43 -31 hvcurveto
          -27 38 -9 45 45 vvcurveto
          26 3 27 4 25 vhcurveto
          22 129 53 132 110 78 rrcurveto
          29 42 53 23 52 hhcurveto
          106 37 -95 -81 -16 0 -17 -2 -16 hvcurveto
          -1 -5 -2 -7 -6 vvcurveto
          -10 8 -2 8 vhcurveto
          6 hlineto
          9 2 1 10 2 8 rrcurveto
          -575 160 rmoveto
          hintmask 01100000
          43 -29 41 -58 vhcurveto
          -8 hlineto
          -59 -7 -56 -52 -62 vvcurveto
          -41 26 -42 60 vhcurveto
          8 hlineto
          59 7 57 51 62 vvcurveto
          -41 -5 rmoveto
          -39 -6 -38 -36 -40 hhcurveto
          -25 -20 14 34 hvcurveto
          39 6 39 37 39 hhcurveto
          23 23 -14 -28 -3 -1 -4 0 hvcurveto
          endchar
        </CharString>
        <CharString name="circumflex">
          527 536 -73 callgsubr
          endchar
        </CharString>
        <CharString name="circumflex.cap">
          517 502 -102 callgsubr
          endchar
        </CharString>
        <CharString name="circumflex.dup">
          527 536 -73 callgsubr
          endchar
        </CharString>
        <CharString name="colon">
          -362 0 106 219 106 hstemhm
          113 109 -28 109 hintmask 11100000
          222 63 6 callsubr
          81 325 rmoveto
          23 -16 20 -28 vhcurveto
          hintmask 01010000
          126 callgsubr
          hvcurveto
          endchar
        </CharString>
        <CharString name="colonmonetary">
          47 674 31 hstem
          150 87 vstem
          810 681 rmoveto
          1 4 1 6 4 vvcurveto
          0 -1 10 -10 vhcurveto
          0 -7 0 -9 -11 vhcurveto
          -63 -74 -39 63 -52 19 -46 3 rlinecurve
          2 8 rlineto
          107 callsubr
          -9 -8 -6 -9 -2 hvcurveto
          -2 -8 rlineto
          -201 -12 -204 -219 -229 vvcurveto
          -155 96 -101 127 -10 vhcurveto
          -2 -9 rlineto
          94 callsubr
          9 8 7 8 2 hvcurveto
          2 8 rlineto
          190 6 106 209 47 vvcurveto
          129 callsubr
          -6 -7 0 -8 -3 vhcurveto
          -51 -168 -123 -64 -83 -1 166 665 rcurveline
          2 hlineto
          -52 callsubr
          -368 -427 rmoveto
          -74 11 -70 59 126 vvcurveto
          62 25 157 80 110 vhcurveto
          59 79 76 45 69 11 rrcurveto
          endchar
        </CharString>
        <CharString name="comma">
          -362 -172 -21 193 106 hstem
          113 111 vstem
          224 47 rmoveto
          33 -14 26 -32 -40 -25 -35 -29 -32 23 -10 21 20 16 11 4 5 vhcurveto
          -15 -77 -50 -64 -47 -40 rrcurveto
          -12 -12 -1 -1 -4 vvcurveto
          -3 3 -7 7 18 123 121 119 vhcurveto
          endchar
        </CharString>
        <CharString name="copyleft">
          -56 callgsubr
          -137 -58 rmoveto
          141 70 -61 134 -124 hhcurveto
          -30 -39 -9 -42 -46 hvcurveto
          -16 45 rlineto
          -2 6 -4 0 0 vvcurveto
          -6 -4 -6 0 hvcurveto
          -1 -2 -1 -4 -1 -2 -36 -146 rcurveline
          -10 -3 2 0 6 hhcurveto
          3 6 0 6 3 hvcurveto
          1 1 7 20 8 15 rrcurveto
          52 26 50 58 63 hhcurveto
          46 42 -28 -55 13 hvcurveto
          15 -66 -32 -94 -19 -37 rrcurveto
          -85 -42 -70 -33 -50 hhcurveto
          -50 -55 38 101 20 hvcurveto
          5 -4 0 -4 -2 -6 0 -6 -3 vhcurveto
          -29 -15 1 -128 117 hhcurveto
          83 95 62 98 49 hvcurveto
          endchar
        </CharString>
        <CharString name="copyright">
          -56 callgsubr
          -99 203 rmoveto
          2 1 4 2 vvcurveto
          0 -1 6 -6 vhcurveto
          0 -4 0 -5 -6 vhcurveto
          -38 -45 rlineto
          42 -26 -34 9 -30 hhcurveto
          -124 -128 -134 -141 -98 64 -62 82 117 65 128 29 6 -6 0 -3 -3 -4 0 -5 -2 hvcurveto
          -101 -31 -75 -38 -49 hhcurveto
          -51 -52 33 85 37 15 94 48 66 hvcurveto
          55 40 55 28 46 hhcurveto
          64 21 -58 -52 -15 -3 -21 0 hvcurveto
          -6 6 0 3 7 2 0 10 2 vhcurveto
          endchar
        </CharString>
        <CharString name="copyright.alt">
          -23 -107 40 492 19 54 40 hstem
          646 215 rmoveto
          198 -125 125 -198 -198 -125 -125 -198 -198 125 -124 198 198 125 124 198 vhcurveto
          -40 hmoveto
          -173 -110 -109 -173 -174 -109 109 173 174 109 109 174 173 110 -109 -174 vhcurveto
          -63 214 rmoveto
          3 1 3 3 vvcurveto
          0 -1 6 -6 vhcurveto
          0 -4 0 -6 -7 vhcurveto
          -40 -46 rlineto
          43 -27 -36 10 -32 hhcurveto
          -130 -135 -142 -148 -103 67 -65 87 123 69 135 30 7 -7 0 -3 -3 -5 0 -6 -2 hvcurveto
          -106 -32 -79 -40 -52 hhcurveto
          -53 -55 35 89 39 15 99 51 70 hvcurveto
          58 43 58 29 48 hhcurveto
          67 23 -61 -55 hvcurveto
          -16 -4 -20 -2 vvcurveto
          -6 7 0 3 7 2 0 11 2 vhcurveto
          endchar
        </CharString>
        <CharString name="currency">
          98 57 40 306 40 hstem
          614 37 rmoveto
          13 11 -7 10 -5 8 -48 63 rcurveline
          34 33 27 42 11 46 12 46 -6 43 -19 33 76 60 rcurveline
          13 10 16 14 -15 10 -15 11 -16 -13 -13 -10 -67 -54 rcurveline
          27 -26 -39 16 -46 hhcurveto
          -46 -46 -16 -26 -39 hvcurveto
          -41 53 -7 11 0 0 -3 2 rlinecurve
          -9 6 -13 -1 -11 -8 -14 -12 8 -11 5 -6 48 -63 rcurveline
          -35 -34 -27 -42 -11 -46 -12 -46 6 -43 18 -33 -75 -60 rcurveline
          -13 -10 -16 -14 15 -10 15 -11 16 13 13 10 67 54 rcurveline
          -27 26 38 -16 47 hhcurveto
          46 46 16 27 40 hvcurveto
          40 -53 8 -10 -1 -1 3 -2 rlinecurve
          11 -7 14 3 9 7 rrcurveto
          -15 213 rmoveto
          -85 -21 -86 -68 -84 hhcurveto
          -85 -52 68 85 22 hvcurveto
          85 21 85 68 85 hhcurveto
          85 51 -68 -85 -21 hvcurveto
          endchar
        </CharString>
        <CharString name="cwm">
          -669 endchar
        </CharString>
        <CharString name="cwmascender">
          -669 endchar
        </CharString>
        <CharString name="cwmcapital">
          -669 endchar
        </CharString>
        <CharString name="d">
          73 callgsubr
          hstem
          108 68 vstem
          -70 callgsubr
          endchar
        </CharString>
        <CharString name="dagger">
          -225 -195 -21 613 67 241 -20 hstem
          495 430 rmoveto
          13 3 -1 21 -31 hhcurveto
          -21 -31 -8 -6 -22 hvcurveto
          -4 -1 -26 -7 -21 -2 6 20 8 28 27 65 15 37 15 37 9 37 rrcurveto
          8 2 8 33 -33 hhcurveto
          -34 -8 -32 -9 -2 hvcurveto
          -9 -35 -5 -58 -2 -24 -5 -46 -5 -32 -6 -29 -11 1 -19 4 -17 5 rrcurveto
          6 -18 131 callgsubr
          -3 0 101 callsubr
          -25 -8 -20 -11 -25 -32 -72 -2 -8 -13 -53 -38 -151 -31 -168 -15 -95 rrcurveto
          -14 -2 -1 -6 11 hhcurveto
          12 1 5 13 6 hvcurveto
          18 50 16 53 15 51 20 63 31 103 24 96 13 54 2 7 4 71 rrcurveto
          23 3 21 4 27 vhcurveto
          96 callsubr
          2 hvcurveto
          endchar
        </CharString>
        <CharString name="daggerdbl">
          -225 -184 -21 194 66 389 67 194 -20 hstem
          506 477 rmoveto
          13 4 -1 21 -31 hhcurveto
          -21 -31 -8 -6 -23 hvcurveto
          -3 -1 -27 -7 -20 -2 8 30 16 34 6 14 15 33 17 40 7 28 rrcurveto
          7 1 8 32 -34 hhcurveto
          -10 -23 -3 -36 -9 hvcurveto
          -5 -20 -4 -29 -1 -35 -4 -41 -2 -28 -5 -26 -11 1 -19 4 -18 5 rrcurveto
          6 -17 131 callgsubr
          -4 1 101 callsubr
          -30 -16 -34 -6 -14 -15 -33 -17 -40 -7 -28 rrcurveto
          -35 -8 21 -4 11 hhcurveto
          30 10 25 14 3 hvcurveto
          5 20 4 29 1 35 4 41 2 28 5 26 96 callsubr
          1 hvcurveto
          -113 -455 rmoveto
          17 4 -8 16 -21 hhcurveto
          -20 -18 -3 -8 -33 hvcurveto
          -28 -8 -7 -2 -23 -2 9 28 10 24 18 42 25 56 5 23 2 5 rrcurveto
          35 8 -21 4 -11 hhcurveto
          -30 -10 -25 -14 -3 hvcurveto
          -8 -29 -2 -43 -3 -34 rrcurveto
          -11 -2 -31 -6 -30 vhcurveto
          -22 2 -3 1 -37 11 rrcurveto
          9 -30 -17 0 -7 hhcurveto
          -25 -14 -20 -13 -3 hvcurveto
          -15 -4 5 -18 24 hhcurveto
          24 26 6 4 12 hvcurveto
          41 10 8 1 17 2 -9 -28 -10 -24 -17 -42 -25 -56 -6 -23 -1 -5 rrcurveto
          -35 -9 21 -4 11 hhcurveto
          30 10 25 14 4 hvcurveto
          7 29 3 43 2 34 rrcurveto
          11 3 31 5 30 vhcurveto
          23 -2 2 -1 38 -11 rrcurveto
          -9 30 18 0 5 hhcurveto
          24 15 18 15 4 hvcurveto
          endchar
        </CharString>
        <CharString name="dblbracketleft">
          -247 -249 40 920 40 hstem
          320 -221 rmoveto
          9 -8 4 -9 vhcurveto
          -5 -5 -1 -5 hhcurveto
          -53 hlineto
          34 137 191 762 rlineto
          10 2 -1 11 17 hhcurveto
          68 hlineto
          11 2 3 18 9 vvcurveto
          4 vlineto
          6 -3 -6 1 -6 hhcurveto
          -209 hlineto
          -20 -1 -15 -14 -2 hvcurveto
          -237 -947 rlineto
          -1 -4 -2 -4 -4 vvcurveto
          -11 10 -1 6 vhcurveto
          211 hlineto
          17 3 15 13 hvcurveto
          104 930 79 callgsubr
        </CharString>
        <CharString name="dblbracketright">
          -247 -249 40 920 40 hstem
          471 727 rmoveto
          1 4 2 4 4 vvcurveto
          9 -9 3 -7 vhcurveto
          -211 hlineto
          -17 -2 -17 -11 -9 8 -4 9 hvcurveto
          5 5 1 5 hhcurveto
          52 hlineto
          -34 -137 -190 -760 rlineto
          -11 -4 3 -13 -17 -4 -4 1 -3 hhcurveto
          -57 hlineto
          -11 -2 -3 -18 -9 vvcurveto
          -4 vlineto
          -6 3 6 -1 6 hhcurveto
          208 hlineto
          20 1 15 14 2 hvcurveto
          192 929 79 callgsubr
        </CharString>
        <CharString name="dblgrave.ts1">
          528 135 callgsubr
          349 523 rmoveto
          20 callgsubr
          153 hmoveto
          20 callgsubr
          endchar
        </CharString>
        <CharString name="dblverticalbar">
          -271 60 callsubr
          105 -217 rmoveto
          5 callsubr
          120 hmoveto
          5 callsubr
          endchar
        </CharString>
        <CharString name="dcaron">
          -49 callgsubr
          49 -21 145 79 -42 42 hstemhm
          108 68 hintmask 11001100
          -70 callgsubr
          268 336 21 callgsubr
        </CharString>
        <CharString name="dcroat">
          -49 callgsubr
          91 30 89 42 hstem
          108 68 vstem
          535 143 rmoveto
          -88 callgsubr
          15 6 24 hvcurveto
          109 435 rlineto
          46 12 callsubr
          -47 hlineto
          27 106 rlineto
          -92 callsubr
          -14 -55 rlineto
          -120 58 callsubr
          5 -6 8 hhcurveto
          121 hlineto
          -37 -149 rlineto
          31 -15 -27 27 -42 -25 callgsubr
          -180 -21 rmoveto
          -31 -8 -61 -80 -55 hhcurveto
          -47 -8 59 30 50 31 117 18 42 hvcurveto
          61 25 46 50 41 hhcurveto
          8 23 -1 -28 18 hvcurveto
          10 -16 10 -29 -19 vvcurveto
          -3 -1 -4 -2 -6 vhcurveto
          endchar
        </CharString>
        <CharString name="ddotbelow">
          28 callgsubr
          210 42 hstemhm
          108 68 hintmask 01111000
          -70 callgsubr
          hintmask 10000000
          -130 -451 -95 callsubr
          endchar
        </CharString>
        <CharString name="degree">
          -286 428 40 175 40 hstem
          458 556 rmoveto
          70 18 -43 57 -70 hhcurveto
          -71 -72 -57 -70 -17 hvcurveto
          -71 -18 43 -57 71 hhcurveto
          70 72 57 71 17 hvcurveto
          -40 hmoveto
          -49 -12 -49 -39 -48 hhcurveto
          -49 -29 39 49 12 hvcurveto
          48 12 49 39 49 hhcurveto
          48 29 -39 -48 -12 hvcurveto
          endchar
        </CharString>
        <CharString name="diameter">
          98 -35 40 490 40 hstem
          825 537 rmoveto
          11 2 -6 9 -11 hhcurveto
          -6 -6 -2 -4 -4 hvcurveto
          -107 -86 rlineto
          44 -39 -59 26 -71 hhcurveto
          -158 -159 -128 -157 -39 hvcurveto
          -18 -71 10 -66 30 -50 -107 -86 rcurveline
          -5 -3 -3 -5 -2 -6 rrcurveto
          -11 -2 6 -9 11 hhcurveto
          6 6 2 4 4 hvcurveto
          108 86 rlineto
          -44 39 59 -26 71 hhcurveto
          158 159 128 157 40 hvcurveto
          17 72 -10 65 -31 50 107 86 rcurveline
          5 3 3 5 2 6 rrcurveto
          -133 -287 rmoveto
          -135 -34 -137 -110 -136 hhcurveto
          -60 -50 22 36 -34 hvcurveto
          432 346 26 -43 8 -55 -15 -61 rlinecurve
          -41 187 rmoveto
          -431 -345 -26 42 -8 56 16 60 rlinecurve
          135 33 137 110 136 hhcurveto
          60 50 -22 -36 33 hvcurveto
          endchar
        </CharString>
        <CharString name="died">
          -4 -21 366 38 -33 38 219 -20 hstemhm
          hintmask 00100000
          564 372 rmoveto
          8 -8 4 -6 -11 -12 -1 -1 -11 vhcurveto
          hintmask 01010000
          -143 -3 15 69 23 65 21 67 rlinecurve
          1 4 2 3 4 vvcurveto
          11 -10 1 -7 vhcurveto
          -31 hlineto
          -21 3 -26 -14 -3 hvcurveto
          -7 -48 -10 -47 -12 -47 -3 -14 -4 -14 -2 -14 rrcurveto
          -33 -34 0 2 -33 hvcurveto
          hintmask 00100000
          1 -18 -19 2 -18 hhcurveto
          -4 hlineto
          -11 -2 -4 -21 -8 vvcurveto
          hintmask 01000000
          -6 6 -6 6 vhcurveto
          6 hlineto
          8 9 1 1 8 hvcurveto
          22 hlineto
          hintmask 10100000
          33 34 3 33 hhcurveto
          -95 -343 rlineto
          -1 -5 -3 -6 -5 vvcurveto
          -8 7 -4 7 vhcurveto
          33 hlineto
          16 2 11 14 2 hvcurveto
          6 30 64 285 2 10 4 11 1 10 rlinecurve
          42 41 0 -2 42 hvcurveto
          hintmask 01000000
          -1 19 19 -2 18 hhcurveto
          3 hlineto
          12 2 4 21 8 vvcurveto
          endchar
        </CharString>
        <CharString name="dieresis">
          553 96 hstem
          -32 callgsubr
          endchar
        </CharString>
        <CharString name="dieresis.cap">
          483 96 hstem
          -5 callsubr
          endchar
        </CharString>
        <CharString name="dieresis.dup">
          553 96 hstem
          -32 callgsubr
          endchar
        </CharString>
        <CharString name="dieresis.ts1">
          570 100 hstem
          372 629 rmoveto
          20 -14 21 -26 -3 -3 0 -1 -3 vhcurveto
          -28 -3 -25 -26 -29 vvcurveto
          -20 14 -21 26 31 31 26 33 vhcurveto
          179 5 rmoveto
          21 -3 -17 15 -21 -3 -2 -1 -3 hhcurveto
          -32 -4 -22 -28 -31 vvcurveto
          -21 3 17 -15 21 hhcurveto
          35 27 30 34 hvcurveto
          endchar
        </CharString>
        <CharString name="discount">
          22 -21 750 -20 hstem
          616 730 rmoveto
          11 -7 10 -11 vhcurveto
          0 -4 0 -2 -1 vhcurveto
          -15 -4 -9 -22 -10 -13 -379 -544 rcurveline
          -89 -128 -3 -5 -4 -4 -1 -6 rlinecurve
          -2 vlineto
          -11 10 -10 11 vhcurveto
          17 2 11 25 10 13 86 124 rcurveline
          306 440 52 74 rlineto
          10 14 21 22 15 vvcurveto
          -214 -42 48 callgsubr
          20 -609 48 callgsubr
          endchar
        </CharString>
        <CharString name="divide">
          98 40 106 84 40 84 106 hstem
          cntrmask 11100000
          752 250 18 callsubr
          -212 167 6 callsubr
          -79 -314 6 callsubr
          endchar
        </CharString>
        <CharString name="divorced">
          -84 -21 22 -21 140 43 344 43 140 -20 21 -20 hstemhm
          -95 42 254 43 -34 34 148 34 -34 43 254 42 hintmask 0011001011010000
          731 305 rmoveto
          9 vlineto
          68 -29 84 -94 vhcurveto
          -9 hlineto
          -120 -14 -87 -153 -103 vvcurveto
          -64 17 -96 101 vhcurveto
          8 hlineto
          113 10 97 137 3 122 rrcurveto
          -487 3 rmoveto
          66 -22 92 -97 vhcurveto
          -9 hlineto
          -117 -13 -88 -137 -6 -117 rrcurveto
          -12 vlineto
          -68 32 -83 90 vhcurveto
          8 hlineto
          123 11 86 159 102 vvcurveto
          21 -399 rmoveto
          6 30 43 206 48 203 60 201 rlinecurve
          hintmask 0000010000100000
          4 13 9 17 14 vvcurveto
          3 vlineto
          9 -12 2 -10 vhcurveto
          hintmask 1000100100000000
          -7 -6 -1 -6 hhcurveto
          -8 hlineto
          -3 -2 0 -1 -2 hvcurveto
          -10 -4 -2 -26 -1 -13 -39 -206 -58 -202 -56 -202 -9 -30 rcurveline
          -2 -4 -1 -5 -4 vvcurveto
          -3 vlineto
          -9 12 -2 9 vhcurveto
          hintmask 0111001011010000
          6 6 1 6 hhcurveto
          8 hlineto
          9 6 4 9 2 hvcurveto
          -56 401 rmoveto
          -7 -79 -29 -81 -69 -47 rrcurveto
          -14 -21 -26 -10 -26 hhcurveto
          -47 -37 35 69 hvcurveto
          8 vlineto
          94 6 59 138 110 hhcurveto
          43 45 -32 -70 -4 0 -3 -1 -4 hvcurveto
          479 -3 rmoveto
          -95 -9 -55 -133 -112 hhcurveto
          -49 -37 42 65 109 77 119 96 9 hvcurveto
          64 26 -49 -52 -5 0 -5 -1 -5 hvcurveto
          endchar
        </CharString>
        <CharString name="dlinebelow">
          -162 30 121 -46 callsubr
          210 42 hstemhm
          108 68 hintmask 01111000
          -70 callgsubr
          hintmask 10000000
          -18 -457 -80 callgsubr
        </CharString>
        <CharString name="dollar">
          -169 -35 -21 193 92 250 92 179 -20 hstem
          581 560 rmoveto
          7 84 -53 56 -93 4 10 46 rcurveline
          -31 hlineto
          -7 -28 -1 -3 -1 -7 -1 -3 rlinecurve
          -1 -4 -1 0 -4 -1 -149 -22 -70 -118 -7 -81 -3 -43 12 -41 25 -28 28 -31 25 -8 48 -13 -75 -299 rcurveline
          -69 4 -54 38 4 78 rrcurveto
          -2 4 8 -1 5 hhcurveto
          35 21 28 24 2 hvcurveto
          32 2 -26 8 -14 hhcurveto
          -55 -5 -65 -20 -2 hvcurveto
          -9 -105 69 -45 76 -4 -11 -46 rcurveline
          31 hlineto
          11 46 117 9 108 110 10 120 rlinecurve
          6 73 -32 39 -4 6 -32 38 -26 6 -44 11 68 272 rcurveline
          64 -3 58 -30 -73 vvcurveto
          2 -5 -7 1 -5 hhcurveto
          -29 -25 -23 -30 -3 hvcurveto
          -27 -2 20 -12 20 hhcurveto
          55 5 65 16 2 hvcurveto
          -179 113 rmoveto
          -66 -263 -26 6 -78 19 7 87 rlinecurve
          6 71 71 70 86 10 rrcurveto
          36 -482 rmoveto
          -6 -74 -68 -83 -93 -13 72 290 rcurveline
          51 -10 50 -32 -6 -78 rrcurveto
          endchar
        </CharString>
        <CharString name="dollar.oldstyle">
          -56 -35 -21 22 -21 45 31 122 81 262 81 109 31 44 -20 hstemhm
          116 32 54 56 274 56 54 31 hintmask 1011011110000000
          673 573 rmoveto
          79 -63 34 -61 14 vhcurveto
          4 12 5 16 11 vvcurveto
          3 vlineto
          6 -1 -7 3 -7 hhcurveto
          -21 1 -31 -16 -5 hvcurveto
          2 -11 -11 1 -11 hhcurveto
          -13 -14 -1 -2 -12 hvcurveto
          6 21 rlineto
          17 5 -2 9 -11 hhcurveto
          -8 hlineto
          -10 -2 -9 -8 -2 hvcurveto
          -10 -35 rlineto
          0 -29 -7 -25 -11 vhcurveto
          -91 -40 -65 -68 -92 vvcurveto
          -62 46 -61 75 -19 vhcurveto
          -79 -311 rlineto
          -55 -41 65 51 hvcurveto
          3 2 -1 3 hhcurveto
          25 24 22 27 19 -16 13 -18 -47 -8 -51 -36 -60 27 -50 72 -24 hvcurveto
          9 -3 13 -3 0 0 -9 -26 -12 vvcurveto
          -9 7 -6 9 19 3 33 15 3 vhcurveto
          -1 11 10 -1 11 hhcurveto
          13 13 1 1 13 hvcurveto
          -2 -11 -5 -12 -1 -11 rrcurveto
          hintmask 0110110011100000
          -6 4 -5 6 -2 vhcurveto
          4 hlineto
          13 2 5 11 4 hvcurveto
          8 36 rlineto
          0 13 5 14 4 vhcurveto
          97 32 91 88 108 vvcurveto
          62 -36 66 -81 22 vhcurveto
          70 285 rlineto
          50 -9 51 -29 -65 vvcurveto
          -7 1 rlineto
          -29 -21 -24 -30 hvcurveto
          -18 3 15 -9 17 hhcurveto
          48 5 53 34 hvcurveto
          -232 -180 rmoveto
          -66 20 63 259 rlineto
          0 29 4 8 32 4 -2 0 vhcurveto
          -167 -252 rmoveto
          -43 11 -43 38 46 vvcurveto
          91 111 43 35 14 vhcurveto
          128 -468 rmoveto
          -81 -86 -66 -63 -17 vhcurveto
          67 269 rlineto
          45 -20 37 -33 -52 vvcurveto
          -112 114 rmoveto
          -72 -286 rlineto
          0 -13 -4 -25 -10 -11 0 2 -13 vhcurveto
          77 308 rlineto
          endchar
        </CharString>
        <CharString name="dong">
          -30 30 hstem
          517 171 rmoveto
          9 -8 0 -6 -12 -1 -1 -21 -5 vhcurveto
          -53 -14 -18 -60 -32 hhcurveto
          -25 0 26 13 7 0 14 6 23 hvcurveto
          103 413 rlineto
          44 hlineto
          8 8 6 8 2 hvcurveto
          8 2 -5 7 -7 hhcurveto
          -44 hlineto
          25 100 -20 callsubr
          8 -6 3 -8 -2 46 callsubr
          vhcurveto
          -94 -7 rlineto
          -11 -1 -11 -1 -18 vvcurveto
          -11 10 0 13 46 2 -7 -9 -3 -3 -13 0 vhcurveto
          -13 -52 rlineto
          -115 hlineto
          -7 -9 113 callsubr
          -8 -2 5 -6 8 hhcurveto
          115 hlineto
          -35 -141 rlineto
          29 -15 -25 26 -40 hhcurveto
          -106 -112 -145 -138 -81 44 -67 71 34 42 20 47 38 hvcurveto
          -47 11 35 -20 33 hhcurveto
          35 20 24 29 14 hvcurveto
          18 37 11 57 0 vvcurveto
          -46 -186 rmoveto
          8 2 -5 7 -8 hhcurveto
          -385 hlineto
          -8 -9 113 callsubr
          94 callsubr
          385 hlineto
          9 8 7 8 2 hvcurveto
          -79 348 rmoveto
          -46 -182 rlineto
          -30 -8 -58 -76 -52 hhcurveto
          -45 -7 56 29 47 29 111 17 40 hvcurveto
          58 24 44 48 39 hhcurveto
          7 22 -1 -27 17 hvcurveto
          10 -15 9 -28 -18 vvcurveto
          -2 -1 -4 -1 -6 vhcurveto
          endchar
        </CharString>
        <CharString name="dotaccent">
          -362 548 106 hstem
          358 611 -95 callsubr
          endchar
        </CharString>
        <CharString name="dotaccent.alt">
          -362 504 106 hstem
          347 567 -95 callsubr
          endchar
        </CharString>
        <CharString name="dotaccent.cap">
          -362 483 106 hstem
          342 546 -95 callsubr
          endchar
        </CharString>
        <CharString name="dotlessi">
          15 callgsubr
          hstem
          128 56 47 55 vstem
          -100 callgsubr
          endchar
        </CharString>
        <CharString name="dotlessj">
          51 callsubr
          hstem
          -35 84 212 60 vstem
          -68 callgsubr
          endchar
        </CharString>
        <CharString name="e">
          -19 callsubr
          hstem
          9 callgsubr
          vstem
          -101 callgsubr
          endchar
        </CharString>
        <CharString name="eacute">
          -19 callsubr
          84 -21 191 52 callsubr
          hintmask 11100110
          -101 callgsubr
          hintmask 00011000
          88 309 -92 callgsubr
        </CharString>
        <CharString name="ebreve">
          -19 callsubr
          74 36 134 52 callsubr
          hintmask 11100110
          -101 callgsubr
          hintmask 00011000
          112 317 -84 callsubr
        </CharString>
        <CharString name="ecaron">
          -19 callsubr
          7 callsubr
          vstemhm
          -101 callgsubr
          109 306 rmoveto
          -67 callsubr
        </CharString>
        <CharString name="ecircumflex">
          -19 callsubr
          7 callsubr
          vstemhm
          -101 callgsubr
          76 177 -73 callgsubr
          endchar
        </CharString>
        <CharString name="ecircumflexacute">
          -19 callsubr
          374 52 callsubr
          hintmask 11101100
          -101 callgsubr
          hintmask 00010000
          75 178 -102 callgsubr
          28 246 -104 callsubr
        </CharString>
        <CharString name="ecircumflexdotbelow">
          -209 -200 106 83 -17 callgsubr
          7 callsubr
          hintmask 01111100
          -101 callgsubr
          76 177 -73 callgsubr
          hintmask 10000000
          -253 -673 -95 callsubr
          endchar
        </CharString>
        <CharString name="ecircumflexgrave">
          -19 callsubr
          7 callsubr
          vstemhm
          -101 callgsubr
          75 178 -75 callgsubr
        </CharString>
        <CharString name="ecircumflexhookabove">
          -19 callsubr
          404 52 callsubr
          hintmask 11101100
          -101 callgsubr
          hintmask 00010100
          75 178 -102 callgsubr
          104 240 -107 callgsubr
        </CharString>
        <CharString name="ecircumflextilde">
          -19 callsubr
          235 -43 callgsubr
          114 69 242 38 hintmask 1110000110000000
          -101 callgsubr
          hintmask 0000100000000000
          75 178 -102 callgsubr
          73 230 -65 callgsubr
          hintmask 0001001000000000
          -96 callsubr
          hintmask 0000010000000000
          -61 callsubr
          hintmask 0001001000000000
          -86 callgsubr
        </CharString>
        <CharString name="edblgrave">
          -19 callsubr
          85 -21 190 52 callsubr
          hintmask 11100110
          -101 callgsubr
          hintmask 00011000
          52 162 -82 callgsubr
        </CharString>
        <CharString name="edieresis">
          -19 callsubr
          111 96 7 callsubr
          hintmask 11101100
          -101 callgsubr
          hintmask 00010000
          -85 251 -50 callgsubr
        </CharString>
        <CharString name="edotaccent">
          -19 callsubr
          106 106 7 callsubr
          hintmask 11101100
          -101 callgsubr
          hintmask 00010000
          10 252 -95 callsubr
          endchar
        </CharString>
        <CharString name="edotbelow">
          -209 -200 106 83 -17 callgsubr
          7 callsubr
          hintmask 01111100
          -101 callgsubr
          hintmask 10000000
          -177 -496 -95 callsubr
          endchar
        </CharString>
        <CharString name="egrave">
          -19 callsubr
          84 -21 191 52 callsubr
          hintmask 11100110
          -101 callgsubr
          hintmask 00011000
          -7 163 -70 callsubr
        </CharString>
        <CharString name="ehookabove">
          -19 callsubr
          75 -21 209 52 callsubr
          hintmask 11100110
          -101 callgsubr
          hintmask 00011010
          54 277 -107 callgsubr
        </CharString>
        <CharString name="eight">
          -22 28 635 25 hstem
          97 50 63 55 170 59 15 45 vstem
          494 -64 callsubr
        </CharString>
        <CharString name="eight.oldstyle">
          -149 -22 28 635 25 hstem
          102 50 63 55 170 59 15 45 vstem
          499 -64 callsubr
        </CharString>
        <CharString name="eight.prop">
          -149 -22 28 635 25 hstem
          102 50 63 55 170 59 15 45 vstem
          499 -64 callsubr
        </CharString>
        <CharString name="eight.taboldstyle">
          -22 28 635 25 hstem
          97 50 63 55 170 59 15 45 vstem
          494 -64 callsubr
        </CharString>
        <CharString name="ellipsis">
          15 0 106 hstem
          221 63 6 callsubr
          189 hmoveto
          -9 callgsubr
          189 hmoveto
          -9 callgsubr
          endchar
        </CharString>
        <CharString name="emacron">
          -19 callsubr
          144 30 7 callsubr
          hintmask 11101100
          -101 callgsubr
          hintmask 00010000
          121 246 -80 callgsubr
        </CharString>
        <CharString name="emdash">
          353 255 22 hstem
          119 917 vstem
          1036 266 rmoveto
          11 -10 0 -15 vhcurveto
          -867 hlineto
          -15 -10 0 -11 -11 10 0 15 hvcurveto
          867 hlineto
          15 10 0 11 hvcurveto
          endchar
        </CharString>
        <CharString name="emdash.alt">
          46 256 22 hstem
          729 267 rmoveto
          9 -8 2 -8 vhcurveto
          -580 hlineto
          -3 -2 0 -1 -2 hvcurveto
          -5 -2 -2 -3 -4 vvcurveto
          -6 4 -5 7 -1 vhcurveto
          583 hlineto
          7 9 2 9 hvcurveto
          endchar
        </CharString>
        <CharString name="endash">
          255 22 hstem
          93 458 vstem
          551 266 rmoveto
          11 -10 0 -15 vhcurveto
          -408 hlineto
          -15 -10 0 -11 -11 10 0 15 hvcurveto
          408 hlineto
          15 10 0 11 hvcurveto
          endchar
        </CharString>
        <CharString name="eng">
          -171 -216 64 572 22 hstem
          457 61 vstem
          518 338 rmoveto
          -83 callgsubr
          -75 -41 -78 -19 -77 hvcurveto
          -27 -107 -34 -136 -41 -49 rrcurveto
          9 -4 -8 7 -12 hhcurveto
          -18 -17 -15 -17 -5 hvcurveto
          -18 -4 10 -14 18 hhcurveto
          119 46 184 156 39 hvcurveto
          18 72 41 72 70 vvcurveto
          endchar
        </CharString>
        <CharString name="eogonek">
          -209 -211 47 153 -17 callgsubr
          hstem
          9 callgsubr
          vstem
          -25 callsubr
          endchar
        </CharString>
        <CharString name="eogonekacute">
          -209 -211 47 153 -17 callgsubr
          84 -21 191 52 callsubr
          hintmask 11110011
          -25 callsubr
          hintmask 00001100
          88 309 -92 callgsubr
        </CharString>
        <CharString name="equal">
          98 133 40 154 40 hstemhm
          115 613 -564 613 hintmask 11100000
          728 153 18 callsubr
          49 194 rmoveto
          20 -20 0 -14 vhcurveto
          -546 hlineto
          hintmask 01010000
          -15 -18 0 -20 -20 18 0 15 hvcurveto
          546 hlineto
          14 20 0 20 hvcurveto
          endchar
        </CharString>
        <CharString name="ereversed">
          -19 callsubr
          hstem
          474 164 rmoveto
          177 88 -92 101 -105 hhcurveto
          -64 -57 -39 -46 -23 hvcurveto
          -3 -7 -33 -65 63 -32 rrcurveto
          -19 39 65 -3 30 hhcurveto
          39 hlineto
          -6 -27 -13 -45 -19 -38 rrcurveto
          -39 -19 -47 -71 -65 hhcurveto
          -17 -87 4 94 -27 hvcurveto
          10 -3 0 1 -4 hhcurveto
          -8 -14 -11 -5 -2 hvcurveto
          -15 -8 33 -100 128 hhcurveto
          95 91 85 90 45 hvcurveto
          -48 89 rmoveto
          -21 hlineto
          -33 -165 0 106 53 hvcurveto
          34 17 37 27 40 hhcurveto
          10 101 -3 -164 -39 hvcurveto
          endchar
        </CharString>
        <CharString name="estimated">
          4 -10 25 330 21 313 22 hstem
          126 87 434 82 vstem
          650 121 rmoveto
          8 -6 4 -7 -7 -7 -3 -5 -3 vhcurveto
          -75 -59 -85 -35 -96 hhcurveto
          -45 -38 11 34 -34 hvcurveto
          -38 39 -12 54 53 vvcurveto
          39 7 35 7 38 vhcurveto
          2 9 3 9 1 9 rrcurveto
          460 hlineto
          35 1 141 4 142 -94 69 -114 -104 -95 -62 -73 -67 hvcurveto
          -77 -85 -52 -113 -116 vvcurveto
          -116 60 -146 181 98 110 28 81 63 vhcurveto
          4 6 8 8 8 vvcurveto
          -36 245 rmoveto
          -375 hlineto
          31 107 49 109 98 62 rrcurveto
          20 31 38 15 37 hhcurveto
          100 24 -98 -69 -59 -13 -87 -20 hvcurveto
          endchar
        </CharString>
</ttFont>
